<?xml version="1.0" standalone="no"?><!-- Generator: Adobe Fireworks CS6, Export SVG Extension by Aaron Beall (http://fireworks.abeall.com) . Version: 0.6.1  --><!DOCTYPE svg PUBLIC "-//W3C//DTD SVG 1.1//EN" "http://www.w3.org/Graphics/SVG/1.1/DTD/svg11.dtd"><svg id="Raichu-Icons.fw-weather" viewBox="0 0 400 400" style="background-color:#ffffff00" version="1.1"	xmlns="http://www.w3.org/2000/svg" xmlns:xlink="http://www.w3.org/1999/xlink" xml:space="preserve"	x="0px" y="0px" width="400px" height="400px">	<g id="Layer%201111">		<path d="M 43.1997 118.6836 L 56.6362 125.4912 C 61.5425 127.9766 67.5903 125.9961 70.0762 121.0898 C 72.5615 116.1836 70.5811 110.1357 65.6748 107.6499 L 52.2383 100.8428 C 47.332 98.3569 41.2842 100.3379 38.7983 105.2441 C 36.3125 110.1504 38.2935 116.1982 43.1997 118.6836 Z" fill="#323232"/>		<path d="M 126.126 66.0347 C 126.6016 71.5137 131.4736 75.6079 136.9531 75.1323 C 142.4326 74.6567 146.5264 69.7842 146.0508 64.3052 L 144.7485 49.2993 C 144.2729 43.8193 139.4004 39.7256 133.9214 40.2012 C 128.4419 40.6768 124.3477 45.5493 124.8232 51.0283 L 126.126 66.0347 Z" fill="#323232"/>		<path d="M 214.4497 91.5566 C 219.1211 94.46 225.3184 93.0127 228.2217 88.3413 L 236.1714 75.5479 C 239.0742 70.876 237.6274 64.6787 232.9561 61.7759 C 228.2842 58.873 222.0869 60.3203 219.1841 64.9912 L 211.2339 77.7852 C 208.3311 82.4565 209.7783 88.6538 214.4497 91.5566 Z" fill="#323232"/>		<path d="M 345.1382 252.5107 C 350.5869 242.7285 353.7026 231.4688 353.7026 219.4766 C 353.7026 181.9209 323.2578 151.4766 285.7026 151.4766 C 267.9521 151.4766 251.7959 158.2837 239.686 169.4229 C 238.3027 170.6948 236.8818 171.9399 235.6606 173.3735 C 234.4683 174.7725 234.0361 176.5923 234.0361 178.4165 C 234.0361 183.9395 238.5132 188.4165 244.0361 188.4165 C 245.5303 188.4165 247.0547 188.0635 248.4038 187.3706 C 250.8481 186.1152 252.6758 183.7031 254.7788 181.9668 C 256.8799 180.2319 259.1255 178.6729 261.4863 177.3125 C 266.293 174.542 271.5723 172.6084 277.0327 171.6235 C 279.8921 171.1079 282.7974 170.8516 285.7026 170.8516 C 312.5576 170.8516 334.3276 192.6216 334.3276 219.4766 C 334.3276 227.8428 332.2129 235.7148 328.4917 242.5898 C 328.4717 242.5825 328.4512 242.5767 328.4316 242.5693 C 325.3936 248.6499 321.1338 254.0137 315.9551 258.3174 C 330.3291 260.8281 341.3008 273.2153 341.6191 288.2314 C 341.6465 288.7539 341.6611 289.2803 341.6611 289.8096 C 341.6611 305.0146 330.3467 317.5688 315.6797 319.5342 C 314.0186 319.8086 312.3164 319.958 310.5776 319.958 C 310.0015 319.958 309.4297 319.9399 308.8613 319.9087 C 307.6479 319.9087 306.4346 319.9087 305.2217 319.9087 C 301.8569 319.9087 298.4932 319.9087 295.1289 319.9087 C 290.022 319.9087 284.915 319.9087 279.8086 319.9087 C 273.3687 319.9087 266.9282 319.9087 260.4883 319.9087 C 253.123 319.9087 245.7578 319.9087 238.3926 319.9087 C 230.5117 319.9087 222.6304 319.9087 214.749 319.9087 C 206.7607 319.9087 198.7715 319.9087 190.7832 319.9087 C 183.0957 319.9087 175.4082 319.9087 167.7207 319.9087 C 160.7432 319.9087 153.7661 319.9087 146.7886 319.9087 C 140.9297 319.9087 135.0713 319.9087 129.2129 319.9087 C 123.4883 319.9087 117.7637 319.8784 112.041 319.9268 C 106.5557 319.9731 101.0181 319.895 95.6748 318.5103 C 91.0396 317.3091 86.5913 315.4067 82.5181 312.8896 C 74.4614 307.9111 67.9517 300.5557 64.0078 291.9434 C 63.249 290.2866 62.585 288.5864 62.02 286.854 C 61.502 285.2627 60.6133 283.188 60.6133 281.502 C 59.9844 278.4023 59.6533 275.1943 59.6533 271.9087 C 59.6533 250.0703 73.9097 231.6504 93.8696 225.833 C 90.605 219.9966 88.0586 213.4668 86.4854 206.6045 C 86.5176 206.5894 86.457 206.52 86.4893 206.5049 C 84.1826 196.439 84.2129 185.7568 86.8711 175.0493 C 95.9209 138.6006 132.8037 116.3887 169.2529 125.4375 C 174.3647 126.7065 179.3301 128.562 184.0146 130.9707 C 188.5723 133.3149 192.8594 136.1802 196.7705 139.4932 C 200.6196 142.7539 204.1025 146.4448 207.1377 150.4741 C 208.8096 152.6929 210.3438 155.0151 211.7324 157.4209 C 213.1714 159.9136 214.1016 162.792 215.7485 165.1499 C 217.168 167.1826 219.291 168.6563 221.6992 169.2539 C 227.2153 170.6235 232.7979 167.2617 234.167 161.7456 C 234.915 158.7349 234.0029 155.9482 232.6885 153.2314 C 231.5938 150.9683 230.4043 148.751 229.1245 146.5869 C 226.5581 142.2461 223.6294 138.1201 220.3779 134.2661 C 217.1055 130.3872 213.5059 126.7842 209.625 123.5127 C 205.7002 120.2041 201.4893 117.2354 197.0493 114.6582 C 192.5215 112.0293 187.7578 109.8086 182.8325 108.0332 C 180.0098 107.0151 177.1348 106.1436 174.2227 105.4204 C 126.7188 93.6265 78.6479 122.5752 66.854 170.0791 C 62.8838 186.0703 63.5366 202.123 67.9536 216.8369 C 50.8936 229.1919 39.7861 249.2607 39.7861 271.9346 C 39.7861 309.4902 70.2305 339.9346 107.7861 339.9346 C 108.8906 339.9346 109.9883 339.9033 111.0801 339.8516 L 308.8438 339.8516 C 309.7769 339.9028 310.7148 339.9346 311.6611 339.9346 C 339.3442 339.9346 361.7861 317.4932 361.7861 289.8096 C 361.7861 274.9956 355.3555 261.687 345.1382 252.5107 Z" fill="#323232"/>	</g></svg>