<?xml version="1.0" standalone="no"?><!-- Generator: Adobe Fireworks CS6, Export SVG Extension by Aaron Beall (http://fireworks.abeall.com) . Version: 0.6.1  --><!DOCTYPE svg PUBLIC "-//W3C//DTD SVG 1.1//EN" "http://www.w3.org/Graphics/SVG/1.1/DTD/svg11.dtd"><svg id="Raichu-Icons.fw-clipboard" viewBox="0 0 400 400" style="background-color:#ffffff00" version="1.1"	xmlns="http://www.w3.org/2000/svg" xmlns:xlink="http://www.w3.org/1999/xlink" xml:space="preserve"	x="0px" y="0px" width="400px" height="400px">	<g id="Layer%20139">		<path d="M 320.3311 90.2944 C 320.3311 87.8018 319.4102 85.5273 317.8984 83.7788 C 316.0703 81.5039 313.2686 80.0449 310.123 80.0449 C 309.3359 80.0449 308.5742 80.1455 307.8398 80.3179 L 256.4531 80.3179 C 248.4443 56.8774 226.2646 39.9961 200.1074 39.9502 C 173.873 39.9033 151.583 56.8022 143.5498 80.3179 L 92.5625 80.3179 C 91.8281 80.1455 91.0664 80.0449 90.2793 80.0449 C 86.1162 80.0449 82.5527 82.5967 81.0566 86.2197 C 80.498 87.4648 80.1807 88.8413 80.1807 90.2944 C 80.1807 90.7998 80.2305 91.292 80.3027 91.7769 L 80.3027 348.5322 C 80.2305 349.0171 80.1807 349.5098 80.1807 350.0146 C 80.1807 355.5244 84.6475 359.9912 90.1572 359.9912 L 270.3545 359.9912 C 275.8643 359.9912 280.3311 355.5244 280.3311 350.0146 C 280.3311 344.5049 275.8643 340.0381 270.3545 340.0381 L 100.2559 340.0381 L 100.2559 100.271 L 140.3613 100.271 L 159.8984 100.271 C 159.8945 100.0264 159.8809 99.7842 159.8809 99.5381 C 159.8926 92.5703 161.6836 86.0225 164.8184 80.3179 C 171.6504 67.8828 184.8809 59.4629 200.0703 59.4897 C 215.209 59.5166 228.3701 67.9277 235.1787 80.3179 C 238.3359 86.0625 240.1318 92.6606 240.1191 99.6797 C 240.1191 99.8779 240.1055 100.0732 240.1016 100.271 L 259.6426 100.271 L 300.1465 100.271 L 300.1465 349.1104 C 300.1465 354.6201 304.6133 359.0869 310.123 359.0869 C 315.6328 359.0869 320.0996 354.6201 320.0996 349.1104 L 320.0996 92.417 C 320.248 91.7324 320.3311 91.0234 320.3311 90.2944 Z" fill="#323232"/>		<path d="M 220.8545 80.3179 L 179.6572 80.3179 C 174.1475 80.3179 169.6807 84.7847 169.6807 90.2944 C 169.6807 95.8042 174.1475 100.271 179.6572 100.271 L 220.8545 100.271 C 226.3643 100.271 230.8311 95.8042 230.8311 90.2944 C 230.8311 84.7847 226.3643 80.3179 220.8545 80.3179 Z" fill="#323232"/>	</g></svg>