<?xml version="1.0" standalone="no"?><!-- Generator: Adobe Fireworks CS6, Export SVG Extension by Aaron Beall (http://fireworks.abeall.com) . Version: 0.6.1  --><!DOCTYPE svg PUBLIC "-//W3C//DTD SVG 1.1//EN" "http://www.w3.org/Graphics/SVG/1.1/DTD/svg11.dtd"><svg id="Raichu-Icons.fw-upload" viewBox="0 0 400 400" style="background-color:#ffffff00" version="1.1"	xmlns="http://www.w3.org/2000/svg" xmlns:xlink="http://www.w3.org/1999/xlink" xml:space="preserve"	x="0px" y="0px" width="400px" height="400px">	<g id="Layer%20124">		<path d="M 150.1793 113.6319 L 189.6694 74.1375 L 189.6694 189.9842 C 189.6694 195.507 194.1441 199.9841 199.6674 199.9831 C 205.1888 199.9831 209.6654 195.507 209.6654 189.9842 L 209.6654 73.4716 L 249.8215 113.6319 C 253.726 117.5358 260.0567 117.5367 263.9612 113.6319 C 267.8657 109.727 267.8647 103.3957 263.9602 99.4908 L 207.4032 42.9284 C 205.3655 40.89 202.6668 39.9258 199.9965 40.0161 C 199.9057 40.0127 199.8168 40.0034 199.727 40.0029 C 199.7065 40.0029 199.687 40 199.6674 40 C 199.6567 40 199.6469 40.0015 199.6362 40.0015 C 199.3169 40.0024 198.9996 40.0185 198.6813 40.0498 C 198.5319 40.0644 198.3864 40.0928 198.239 40.1137 C 198.0633 40.1386 197.8875 40.1596 197.7128 40.1938 C 197.5468 40.227 197.3866 40.2724 197.2226 40.3134 C 197.0703 40.3525 196.916 40.3857 196.7637 40.4316 C 196.6055 40.4794 196.4532 40.539 196.299 40.5942 C 196.1447 40.6493 195.9904 40.7001 195.8391 40.7626 C 195.6985 40.8212 195.5638 40.89 195.4261 40.9545 C 195.267 41.0292 195.1068 41.1 194.9516 41.1835 C 194.8237 41.2518 194.7036 41.3299 194.5786 41.4032 C 194.4224 41.4959 194.2642 41.5848 194.1119 41.6868 C 193.9811 41.7747 193.858 41.8728 193.7321 41.9666 C 193.5964 42.0672 193.4577 42.1614 193.3269 42.2698 C 193.1219 42.4382 192.9276 42.6189 192.7372 42.8029 C 192.6913 42.8464 192.6425 42.884 192.5976 42.9284 L 136.0405 99.4918 C 132.1351 103.3966 132.1351 109.727 136.0405 113.6319 C 139.945 117.5367 146.2748 117.5367 150.1793 113.6319 Z" fill="#333333"/>		<path d="M 125.8521 341.7426 C 204.1372 382.6983 300.7946 352.431 341.7444 274.1394 C 371.1263 217.9695 363.8474 152.3417 328.4795 104.6143 C 328.2227 104.2686 327.9621 103.9268 327.7033 103.5841 C 325.8697 101.4466 323.1544 100.0874 320.1169 100.0874 C 314.5946 100.0874 310.119 104.5635 310.119 110.0864 C 310.119 112.5226 310.9918 114.7538 312.4398 116.488 C 312.432 116.4968 312.4271 116.5066 312.4183 116.5154 C 343.3759 158.2815 349.7497 215.7168 324.038 264.8748 C 288.2025 333.3851 203.6207 359.8706 135.1159 324.0326 C 66.6101 288.1936 40.1291 203.6009 75.9647 135.0925 C 79.2902 128.7358 83.0472 122.753 87.1597 117.1364 C 87.1236 117.0983 87.0943 117.0593 87.0669 117.0163 C 88.8508 115.2108 89.9531 112.7316 89.9531 109.9926 C 89.9531 104.4698 85.4774 99.9937 79.9551 99.9937 C 77.0123 99.9937 74.3751 101.2728 72.5454 103.2961 C 72.1178 103.7687 71.736 104.2823 71.4041 104.8311 C 66.5652 111.387 62.151 118.3814 58.2563 125.8279 C 17.3036 204.1185 47.568 300.786 125.8521 341.7426 Z" fill="#333333"/>	</g></svg>