<?xml version="1.0" standalone="no"?><!-- Generator: Adobe Fireworks CS6, Export SVG Extension by Aaron Beall (http://fireworks.abeall.com) . Version: 0.6.1  --><!DOCTYPE svg PUBLIC "-//W3C//DTD SVG 1.1//EN" "http://www.w3.org/Graphics/SVG/1.1/DTD/svg11.dtd"><svg id="Raichu-Icons.fw-feedback-open" viewBox="0 0 400 400" style="background-color:#ffffff00" version="1.1"	xmlns="http://www.w3.org/2000/svg" xmlns:xlink="http://www.w3.org/1999/xlink" xml:space="preserve"	x="0px" y="0px" width="400px" height="400px">	<g id="Layer%20153">		<path d="M 230.0984 338.998 C 230.2049 338.998 230.308 338.9854 230.4135 338.9819 C 230.5313 338.9863 230.647 339 230.7657 339 L 349.8277 339 C 349.8619 339 349.8951 338.9951 349.9298 338.9946 C 349.9513 338.9946 349.9723 338.998 349.9943 338.998 C 355.5201 338.998 359.9995 334.5211 359.9995 328.9983 L 359.9995 209.0017 C 359.9995 208.9929 359.998 208.9846 359.998 208.9763 C 359.9985 208.9646 360 208.9534 360 208.9416 C 360 203.4188 355.5206 198.9419 349.9948 198.9419 L 289.9636 198.9419 C 284.4377 198.9419 279.9583 203.4188 279.9583 208.9416 C 279.9583 214.4644 284.4377 218.9413 289.9636 218.9413 L 339.9891 218.9413 L 339.9891 319.0005 L 240.1036 319.0005 L 240.1036 210.0017 C 240.1036 209.6926 240.0846 209.3879 240.0572 209.0862 C 241.2282 151.8783 277.6671 99.1747 334.4159 79.6318 C 334.8434 79.4848 335.2689 79.3359 335.6988 79.1923 C 339.2656 77.6641 341.7654 74.1246 341.7654 69.9997 C 341.7654 64.4769 337.286 60 331.7602 60 C 330.5452 60 329.3859 60.2275 328.3087 60.624 C 328.3097 60.6235 328.3107 60.623 328.3116 60.6225 C 328.3107 60.6128 328.3092 60.603 328.3087 60.5928 C 263.1811 82.8285 221.4411 143.3458 220.1543 208.9162 C 220.1157 209.2732 220.0932 209.6345 220.0932 210.0017 L 220.0932 328.9983 C 220.0932 334.5211 224.5726 338.998 230.0984 338.998 Z" fill="#333333"/>		<path d="M 41 328.9983 C 41 334.5211 45.4794 338.998 51.0052 338.998 C 51.1117 338.998 51.2148 338.9854 51.3203 338.9819 C 51.438 338.9863 51.5538 339 51.6725 339 L 170.7345 339 C 170.7687 339 170.8019 338.9951 170.8366 338.9946 C 170.8581 338.9946 170.8791 338.998 170.9011 338.998 C 176.4269 338.998 180.9063 334.5211 180.9063 328.9983 L 180.9063 209.0017 C 180.9063 208.9929 180.9048 208.9846 180.9048 208.9763 C 180.9053 208.9646 180.9068 208.9534 180.9068 208.9416 C 180.9068 203.4188 176.4274 198.9419 170.9016 198.9419 L 110.8703 198.9419 C 105.3445 198.9419 100.8651 203.4188 100.8651 208.9416 C 100.8651 214.4644 105.3445 218.9413 110.8703 218.9413 L 160.8959 218.9413 L 160.8959 319.0005 L 61.0104 319.0005 L 61.0104 210.0017 C 61.0104 209.6926 60.9914 209.3879 60.964 209.0862 C 62.135 151.8783 98.5739 99.1747 155.3227 79.6318 C 155.7502 79.4848 156.1757 79.3359 156.6056 79.1923 C 160.1724 77.6641 162.6722 74.1246 162.6722 69.9997 C 162.6722 64.4769 158.1928 60 152.667 60 C 151.452 60 150.2927 60.2275 149.2155 60.624 C 149.2165 60.6235 149.2175 60.623 149.2184 60.6225 C 149.2175 60.6128 149.216 60.603 149.2155 60.5928 C 84.0879 82.8285 42.3479 143.3458 41.0611 208.9162 C 41.0225 209.2732 41 209.6345 41 210.0017 L 41 328.9983 Z" fill="#333333"/>	</g></svg>