<?xml version="1.0" standalone="no"?><!-- Generator: Adobe Fireworks CS6, Export SVG Extension by Aaron Beall (http://fireworks.abeall.com) . Version: 0.6.1  --><!DOCTYPE svg PUBLIC "-//W3C//DTD SVG 1.1//EN" "http://www.w3.org/Graphics/SVG/1.1/DTD/svg11.dtd"><svg id="Raichu-Icons.fw-program" viewBox="0 0 400 400" style="background-color:#ffffff00" version="1.1"	xmlns="http://www.w3.org/2000/svg" xmlns:xlink="http://www.w3.org/1999/xlink" xml:space="preserve"	x="0px" y="0px" width="400px" height="400px">	<g id="Layer%201108">		<path d="M 90 199 C 82 199 80 209 80 209 L 80 296 C 80 309.6667 90 312 90 312 C 90 312 131.6667 339 200 339 C 268.3333 339 313.3333 314.6667 317 310 C 320.6667 305.3333 320 292 320 292 L 320 167 L 349 154 C 349 154 360.3333 150.3333 360 139 C 359.6667 127.6667 351 125 351 125 C 351 125 221.0727 65.4023 212 62 C 204 59 200 59 200 59 C 192 59.3333 186 63 186 63 L 50 124 C 50 124 40 126.6667 40 137 C 40 144.6667 49 151 49 151 C 49 151 185.6667 213 194 217 C 196.2817 218.0952 198.2886 218.5168 200 218.55 L 200 219 C 205.3333 219 214.6667 214.3333 214.6667 214.3333 L 240 203.815 L 240 240.135 C 233.4748 243.4286 229 250.1914 229 258 C 229 269.0458 237.9542 278 249 278 C 260.0458 278 269 269.0458 269 258 C 269 251.0178 265.4222 244.8724 260 241.295 L 260 190 L 259.6 190 C 259.7981 188.2238 259.4114 186.2053 258 184 C 252.6667 175.6667 246 180 246 180 L 200 199 L 200 200 L 59 137 L 200 77 L 341 137 L 309 153 C 309 153 300 156.3333 300 168 L 300 176 L 300 297 C 300 297 252.6667 319 200 319 C 147.3333 319 100 296 100 296 L 100 209 C 100 200.3333 90 199 90 199 Z" fill="#333333"/>	</g></svg>