<?xml version="1.0" standalone="no"?><!-- Generator: Adobe Fireworks CS6, Export SVG Extension by Aaron Beall (http://fireworks.abeall.com) . Version: 0.6.1  --><!DOCTYPE svg PUBLIC "-//W3C//DTD SVG 1.1//EN" "http://www.w3.org/Graphics/SVG/1.1/DTD/svg11.dtd"><svg id="Raichu-Icons.fw-path" viewBox="0 0 400 400" style="background-color:#ffffff00" version="1.1"	xmlns="http://www.w3.org/2000/svg" xmlns:xlink="http://www.w3.org/1999/xlink" xml:space="preserve"	x="0px" y="0px" width="400px" height="400px">	<g id="Layer%201117">		<path d="M 118.9678 89.9522 C 113.5482 90.1601 108.9803 85.8706 108.757 80.372 L 108.757 80.372 C 108.5353 74.8794 112.7379 70.25 118.1508 70.0298 L 288.5809 69.8949 C 294.1284 69.672 298.844 74.0037 299.1079 79.5748 L 299.1079 79.5748 C 299.3725 85.1502 295.0787 89.8433 289.5242 90.0536 L 118.9678 89.9522 Z" fill="#323232"/>		<path d="M 119.9678 205.9521 C 114.5482 206.1601 109.9803 201.8706 109.757 196.372 L 109.757 196.372 C 109.5353 190.8794 113.7379 186.25 119.1508 186.0298 L 349.5809 185.8948 C 355.1284 185.672 359.844 190.0037 360.1079 195.5748 L 360.1079 195.5748 C 360.3725 201.1502 356.0787 205.8433 350.5242 206.0536 L 119.9678 205.9521 Z" fill="#323232"/>		<path d="M 80.9678 341.9521 C 75.5482 342.1601 70.9803 337.8706 70.757 332.372 L 70.757 332.372 C 70.5353 326.8794 74.7379 322.25 80.1508 322.0298 L 290.5809 321.8948 C 296.1284 321.672 300.844 326.0037 301.1079 331.5748 L 301.1079 331.5748 C 301.3725 337.1502 297.0787 341.8433 291.5242 342.0536 L 80.9678 341.9521 Z" fill="#323232"/>		<path d="M 321.0176 299.376 C 310.1494 299.376 301.3379 308.1865 301.3379 319.0542 C 301.3379 329.9224 310.1494 338.7329 321.0176 338.7329 C 331.8848 338.7329 340.6953 329.9224 340.6953 319.0542 C 340.6953 308.1865 331.8848 299.376 321.0176 299.376 ZM 321.0166 358.9351 C 298.9922 358.9351 281.1367 341.0796 281.1367 319.0547 C 281.1367 297.0293 298.9922 279.1738 321.0166 279.1738 C 343.043 279.1738 360.8975 297.0293 360.8975 319.0547 C 360.8975 341.0796 343.043 358.9351 321.0166 358.9351 Z" fill="#323232"/>		<path d="M 340.1006 95.1993 C 339.8944 89.7903 344.1484 85.2313 349.6014 85.0084 L 349.6014 85.0084 C 355.0486 84.7871 359.6396 88.9815 359.858 94.3839 L 359.9918 194.482 C 360.2129 200.0186 355.9171 204.7251 350.3921 204.9885 L 350.3921 204.9885 C 344.8628 205.2526 340.2086 200.9672 340 195.4235 L 340.1006 95.1993 Z" fill="#323232"/>		<path d="M 70.1006 244.1993 C 69.8944 238.7903 74.1484 234.2313 79.6014 234.0084 L 79.6014 234.0084 C 85.0486 233.7871 89.6396 237.9815 89.858 243.3839 L 89.9918 323.482 C 90.2129 329.0186 85.9171 333.7251 80.3921 333.9885 L 80.3921 333.9885 C 74.8628 334.2526 70.2086 329.9672 70 324.4235 L 70.1006 244.1993 Z" fill="#323232"/>		<path d="M 90.0176 190.376 C 79.1494 190.376 70.3379 199.1865 70.3379 210.0542 C 70.3379 220.9224 79.1494 229.7329 90.0176 229.7329 C 100.8848 229.7329 109.6953 220.9224 109.6953 210.0542 C 109.6953 199.1865 100.8848 190.376 90.0176 190.376 ZM 90.0166 249.9351 C 67.9922 249.9351 50.1367 232.0796 50.1367 210.0547 C 50.1367 188.0293 67.9922 170.1738 90.0166 170.1738 C 112.043 170.1738 129.8975 188.0293 129.8975 210.0547 C 129.8975 232.0796 112.043 249.9351 90.0166 249.9351 Z" fill="#323232"/>		<path d="M 79.0176 61.376 C 68.1494 61.376 59.3379 70.1865 59.3379 81.0542 C 59.3379 91.9224 68.1494 100.7329 79.0176 100.7329 C 89.8848 100.7329 98.6953 91.9224 98.6953 81.0542 C 98.6953 70.1865 89.8848 61.376 79.0176 61.376 ZM 79.0166 120.9351 C 56.9922 120.9351 39.1367 103.0796 39.1367 81.0547 C 39.1367 59.0293 56.9922 41.1738 79.0166 41.1738 C 101.043 41.1738 118.8975 59.0293 118.8975 81.0547 C 118.8975 103.0796 101.043 120.9351 79.0166 120.9351 Z" fill="#323232"/>		<path d="M 322.0176 61.376 C 311.1494 61.376 302.3379 70.1865 302.3379 81.0542 C 302.3379 91.9224 311.1494 100.7329 322.0176 100.7329 C 332.8848 100.7329 341.6953 91.9224 341.6953 81.0542 C 341.6953 70.1865 332.8848 61.376 322.0176 61.376 ZM 322.0166 120.9351 C 299.9922 120.9351 282.1367 103.0796 282.1367 81.0547 C 282.1367 59.0293 299.9922 41.1738 322.0166 41.1738 C 344.043 41.1738 361.8975 59.0293 361.8975 81.0547 C 361.8975 103.0796 344.043 120.9351 322.0166 120.9351 Z" fill="#323232"/>		<path d="M 96.9063 283.9155 C 97.4453 284.1748 97.9756 284.4487 98.501 284.731 C 97.9971 284.4146 97.4658 284.1396 96.9063 283.9155 Z" fill="#323232"/>	</g></svg>