<?xml version="1.0" standalone="no"?><!-- Generator: Adobe Fireworks CS6, Export SVG Extension by Aaron Beall (http://fireworks.abeall.com) . Version: 0.6.1  --><!DOCTYPE svg PUBLIC "-//W3C//DTD SVG 1.1//EN" "http://www.w3.org/Graphics/SVG/1.1/DTD/svg11.dtd"><svg id="Raichu-Icons.fw-course" viewBox="0 0 400 400" style="background-color:#ffffff00" version="1.1"	xmlns="http://www.w3.org/2000/svg" xmlns:xlink="http://www.w3.org/1999/xlink" xml:space="preserve"	x="0px" y="0px" width="400px" height="400px">	<g id="Layer%201109">		<path d="M 200 79 C 200 79 240 80.6667 240 119 C 240 119 238.6667 135.1667 229 145 L 229 199 C 229 199 227.6667 207 220 207 C 212.3333 207 200 196 200 196 C 200 196 186.8333 208 180 208 C 173.1667 208 171 202.5 171 198 C 171 193.5 171 168 171 168 C 171 168 172.3333 160 180 160 C 187.6667 160 190 165.5 190 169 C 190 172.5 190 184 190 184 C 190 184 194 178 200 178 C 206 178 210 184 210 184 L 210 158 L 210 144 C 210 144 209.5 136.8333 213 134 C 216.5 131.1667 222.3333 123.1667 219 113 C 215.6667 102.8333 208.1667 99 200 99 C 191.8333 99 180 106.1667 180 119 C 180 131.8333 194 138 194 138 C 194 138 203.8333 142.8333 200 151 C 196.1667 159.1667 189.5 157.1667 186 156 C 182.5 154.8333 160 144 160 119 C 160 94 182.1667 79 200 79 Z" fill="#333333"/>		<path d="M 231.3333 240.05 L 231.3333 240 L 230.3333 240 C 230.6708 240 231.0044 240.0173 231.3333 240.05 ZM 231.3333 259.95 C 236.3867 259.4483 240.3333 255.1854 240.3333 250 C 240.3333 244.8146 236.3867 240.5517 231.3333 240.05 C 231.0044 240.0173 230.6708 240 230.3333 240 L 130 240 C 124.4771 240 120 244.4771 120 250 C 120 255.5229 124.4771 260 130 260 L 230.3333 260 C 230.6708 260 231.0044 259.9826 231.3333 259.95 ZM 231.3333 260 L 231.3333 259.95 C 231.0044 259.9826 230.6708 260 230.3333 260 L 231.3333 260 Z" fill="#333333"/>		<path d="M 231.3333 279.05 L 231.3333 279 L 230.3333 279 C 230.6708 279 231.0044 279.0173 231.3333 279.05 ZM 231.3333 298.95 C 236.3867 298.4483 240.3333 294.1854 240.3333 289 C 240.3333 283.8146 236.3867 279.5517 231.3333 279.05 C 231.0044 279.0173 230.6708 279 230.3333 279 L 130 279 C 124.4771 279 120 283.4771 120 289 C 120 294.5229 124.4771 299 130 299 L 230.3333 299 C 230.6708 299 231.0044 298.9826 231.3333 298.95 ZM 231.3333 299 L 231.3333 298.95 C 231.0044 298.9826 230.6708 299 230.3333 299 L 231.3333 299 Z" fill="#333333"/>		<path d="M 60 349 L 60 350 L 60.05 350 C 60.0173 349.6711 60 349.3375 60 349 ZM 70 39 L 69 39 L 69 39.05 C 69.3289 39.0173 69.6625 39 70 39 ZM 291 39.05 L 291 39 L 290 39 C 290.3375 39 290.6711 39.0173 291 39.05 ZM 280.05 350 C 280.5517 355.0534 284.8146 359 290 359 C 295.0052 359 299.1516 355.3251 299.885 350.525 L 300.0524 350.5903 L 359 214 L 358.725 213.89 C 359.537 212.4443 360 210.7762 360 209 C 360 203.4771 355.5229 199 350 199 C 348.9548 199 347.947 199.1626 347 199.46 L 347 199 L 320 199 C 314.4771 199 310 203.4771 310 209 C 310 214.5229 314.4771 219 320 219 L 334.335 219 L 300 298.555 L 300 49 C 300 43.8146 296.0534 39.5517 291 39.05 C 290.6711 39.0173 290.3375 39 290 39 L 70 39 C 69.6625 39 69.3289 39.0173 69 39.05 C 63.9466 39.5517 60 43.8146 60 49 L 60 349 C 60 349.3375 60.0173 349.6711 60.05 350 C 60.5517 355.0534 64.8146 359 70 359 L 230 359 C 235.5229 359 240 354.5229 240 349 C 240 343.4771 235.5229 339 230 339 L 80 339 L 80 59 L 280 59 L 280 349 C 280 349.3375 280.0173 349.6711 280.05 350 ZM 280 350 L 280.05 350 C 280.0173 349.6711 280 349.3375 280 349 L 280 350 Z" fill="#333333"/>	</g></svg>