<?xml version="1.0" standalone="no"?><!-- Generator: Adobe Fireworks CS6, Export SVG Extension by Aaron Beall (http://fireworks.abeall.com) . Version: 0.6.1  --><!DOCTYPE svg PUBLIC "-//W3C//DTD SVG 1.1//EN" "http://www.w3.org/Graphics/SVG/1.1/DTD/svg11.dtd"><svg id="Raichu-Icons.fw-hourglass" viewBox="0 0 400 400" style="background-color:#ffffff00" version="1.1"	xmlns="http://www.w3.org/2000/svg" xmlns:xlink="http://www.w3.org/1999/xlink" xml:space="preserve"	x="0px" y="0px" width="400px" height="400px">	<g id="Layer%201118">		<path d="M 349.4429 39.6191 C 354.9653 39.6211 359.4399 44.1035 359.438 49.625 L 359.438 49.625 C 359.436 55.1484 354.9526 59.6211 349.4292 59.6191 L 50.4302 59.5801 C 44.9077 59.5732 40.436 55.0928 40.436 49.5713 L 40.436 49.5713 C 40.439 44.0488 44.9204 39.5742 50.4438 39.5781 L 349.4429 39.6191 Z" fill="#323232"/>		<path d="M 349.4429 339.6191 C 354.9653 339.6211 359.4399 344.1035 359.438 349.625 L 359.438 349.625 C 359.436 355.1484 354.9526 359.6211 349.4292 359.6191 L 50.4302 359.5801 C 44.9077 359.5732 40.436 355.0928 40.436 349.5713 L 40.436 349.5713 C 40.439 344.0488 44.9204 339.5742 50.4438 339.5781 L 349.4429 339.6191 Z" fill="#323232"/>		<path d="M 61.2129 329.3413 C 61.2129 336.1943 61.7144 342.9287 62.6646 349.5186 L 82.6978 349.5186 C 81.5903 342.957 81.0049 336.2178 81.0049 329.3413 C 81.0049 262.8643 134.8955 208.9741 201.3721 208.9741 C 267.8481 208.9741 321.7393 262.8643 321.7393 329.3413 C 321.7393 336.2178 321.1538 342.957 320.0464 349.5186 L 340.0781 349.5186 C 341.0288 342.9287 341.5303 336.1943 341.5303 329.3413 C 341.5303 270.2886 305.0078 219.7705 253.3203 199.1309 C 305.2734 178.6187 342.0303 127.96 342.0303 68.7163 C 342.0303 60.8867 341.3779 53.2104 340.1436 45.7305 L 320.0371 45.7305 C 321.4766 53.1719 322.2393 60.8545 322.2393 68.7163 C 322.2393 135.1924 268.3481 189.0835 201.8721 189.0835 C 135.3955 189.0835 81.5049 135.1924 81.5049 68.7163 C 81.5049 60.8545 82.2671 53.1719 83.7065 45.7305 L 63.5991 45.7305 C 62.3652 53.2104 61.7129 60.8867 61.7129 68.7163 C 61.7129 127.769 98.2363 178.2871 149.9238 198.9268 C 97.9707 219.439 61.2129 270.0977 61.2129 329.3413 Z" fill="#323232"/>	</g></svg>