<?xml version="1.0" standalone="no"?><!-- Generator: Adobe Fireworks CS6, Export SVG Extension by Aaron Beall (http://fireworks.abeall.com) . Version: 0.6.1  --><!DOCTYPE svg PUBLIC "-//W3C//DTD SVG 1.1//EN" "http://www.w3.org/Graphics/SVG/1.1/DTD/svg11.dtd"><svg id="Raichu-Icons.fw-heart" viewBox="0 0 400 400" style="background-color:#ffffff00" version="1.1"	xmlns="http://www.w3.org/2000/svg" xmlns:xlink="http://www.w3.org/1999/xlink" xml:space="preserve"	x="0px" y="0px" width="400px" height="400px">	<g id="Layer%20163">		<path d="M 332.6167 72.4409 C 314.5703 52.1108 292.6416 41.709 266.8306 41.2363 C 241.02 40.7632 218.6714 50.2197 199.7856 69.6045 C 180.8999 50.2197 158.5513 40.7632 132.7407 41.2363 C 106.9297 41.709 85.0015 52.1538 66.9546 72.4844 C 48.0688 93.7603 38.6255 119.2656 38.6255 148.7666 L 38.6265 148.7666 C 38.6265 178.2676 48.0693 203.6865 66.9556 224.9629 C 87.4907 247.9658 92.4009 253.3442 107.2495 269.9404 C 109.1733 272.7217 112.1841 274.5029 115.5703 274.5029 C 121.3799 274.5029 126.0894 269.228 126.0894 262.728 C 126.0894 258.5991 124.1875 254.9663 121.312 252.8657 L 81.4341 208.6094 C 66.3252 192.061 58.7705 172.0845 58.7705 148.6807 C 58.7705 125.2773 66.3252 105.3008 81.4341 88.7529 C 95.7031 72.6777 112.9102 64.4038 133.0552 63.9307 C 153.2002 63.458 170.8267 70.7861 185.936 85.916 L 199.7852 100.0996 L 213.6353 85.916 C 228.7437 70.7861 246.3706 63.458 266.5151 63.9307 C 286.6606 64.4033 303.8677 72.6772 318.1372 88.7529 C 333.2456 105.3008 340.8003 125.2764 340.8003 148.6797 C 340.8003 172.084 333.2456 192.0596 318.1372 208.6079 L 206.7104 332.7178 C 202.0933 338.3911 197.4771 338.3911 192.8608 332.7178 L 163.043 299.5063 C 163.0396 299.5107 163.0371 299.5156 163.0347 299.52 C 161.1401 296.5186 158.0313 294.5581 154.5132 294.5581 C 148.7427 294.5581 144.064 299.8286 144.064 306.3301 C 144.064 310.0396 145.5884 313.3467 147.9683 315.5039 C 168.0103 337.8364 178.1641 349.0293 178.3818 349.0293 C 184.2573 355.6489 191.3921 358.958 199.7861 358.958 C 208.1797 358.958 215.314 355.6489 221.1899 349.0293 C 294.6353 267.2349 331.7769 225.8647 332.6167 224.9194 C 351.5024 203.6431 360.9458 178.2305 360.9458 148.6797 C 360.9458 119.1299 351.5024 93.7168 332.6167 72.4409 Z" fill="#323232"/>		<path d="M 688 -9 " stroke="#000000" stroke-width="1" fill="none"/>	</g></svg>