<?xml version="1.0" standalone="no"?><!-- Generator: Adobe Fireworks CS6, Export SVG Extension by Aaron Beall (http://fireworks.abeall.com) . Version: 0.6.1  --><!DOCTYPE svg PUBLIC "-//W3C//DTD SVG 1.1//EN" "http://www.w3.org/Graphics/SVG/1.1/DTD/svg11.dtd"><svg id="Raichu-Icons.fw-leaders" viewBox="0 0 400 400" style="background-color:#ffffff00" version="1.1"	xmlns="http://www.w3.org/2000/svg" xmlns:xlink="http://www.w3.org/1999/xlink" xml:space="preserve"	x="0px" y="0px" width="400px" height="400px">	<g id="Layer%201112">		<path d="M 199.9795 60.1606 C 144.7939 60.1606 100.0576 104.897 100.0576 160.0825 C 100.0576 215.2681 144.7939 260.0044 199.9795 260.0044 C 255.165 260.0044 299.9014 215.2681 299.9014 160.0825 C 299.9014 104.897 255.165 60.1606 199.9795 60.1606 ZM 199.9795 280.0044 C 133.749 280.0044 80.0576 226.3135 80.0576 160.0825 C 80.0576 93.8516 133.749 40.1606 199.9795 40.1606 C 266.21 40.1606 319.9014 93.8516 319.9014 160.0825 C 319.9014 226.3135 266.21 280.0044 199.9795 280.0044 Z" fill="#323232"/>		<path d="M 117.7939 308.0293 C 115.9033 313.2041 110.1748 315.8657 104.999 313.9741 L 104.999 313.9741 C 99.8252 312.0825 97.1631 306.3535 99.0547 301.1787 L 119.7227 244.6406 C 121.6143 239.4658 127.3438 236.8042 132.5186 238.6958 L 132.5186 238.6958 C 137.6934 240.5879 140.3545 246.3164 138.4619 251.4912 L 117.7939 308.0293 Z" fill="#323232"/>		<path d="M 179.9219 349.5684 C 179.9092 355.0776 175.4336 359.5342 169.9229 359.5225 L 169.9229 359.5225 C 164.415 359.5103 159.957 355.0332 159.9697 349.5234 L 160.1025 276.3267 C 160.1143 270.8169 164.5928 266.3594 170.1035 266.3726 L 170.1035 266.3726 C 175.6123 266.3848 180.0693 270.8613 180.0576 276.3711 L 179.9219 349.5684 Z" fill="#323232"/>		<path d="M 284.0684 308.0293 C 285.96 313.2041 291.6885 315.8657 296.8643 313.9741 L 296.8643 313.9741 C 302.0381 312.0825 304.7002 306.3535 302.8086 301.1787 L 282.1406 244.6406 C 280.249 239.4658 274.5195 236.8042 269.3447 238.6958 L 269.3447 238.6958 C 264.1699 240.5879 261.5088 246.3164 263.4004 251.4912 L 284.0684 308.0293 Z" fill="#323232"/>		<path d="M 218.7539 349.5684 C 218.7666 355.0776 223.2422 359.5342 228.7529 359.5225 L 228.7529 359.5225 C 234.2607 359.5103 238.7188 355.0332 238.7061 349.5234 L 238.5732 276.3267 C 238.5605 270.8169 234.083 266.3594 228.5723 266.3726 L 228.5723 266.3726 C 223.0625 266.3848 218.6064 270.8613 218.6182 276.3711 L 218.7539 349.5684 Z" fill="#323232"/>		<path d="M 176.7207 342.4912 C 180.6162 346.3877 180.6162 352.7041 176.7207 356.6006 L 176.7207 356.6006 C 172.8242 360.4961 166.5078 360.4961 162.6113 356.6006 L 134.1875 328.1768 C 130.292 324.2803 130.292 317.9639 134.1875 314.0674 L 134.1875 314.0674 C 138.084 310.1719 144.4004 310.1719 148.2969 314.0674 L 176.7207 342.4912 Z" fill="#323232"/>		<path d="M 137.085 311.8594 C 142.2021 309.8164 148.0068 312.3076 150.0518 317.4238 L 150.0518 317.4238 C 152.0947 322.5405 149.6035 328.3452 144.4873 330.3896 L 107.1572 345.3003 C 102.04 347.3433 96.2354 344.8521 94.1914 339.7358 L 94.1914 339.7358 C 92.1475 334.6187 94.6396 328.814 99.7559 326.77 L 137.085 311.8594 Z" fill="#323232"/>		<path d="M 222.6299 342.3662 C 218.7344 346.2627 218.7344 352.5791 222.6299 356.4756 L 222.6299 356.4756 C 226.5264 360.3711 232.8428 360.3711 236.7393 356.4756 L 265.1631 328.0518 C 269.0586 324.1553 269.0586 317.8389 265.1631 313.9424 L 265.1631 313.9424 C 261.2666 310.0469 254.9502 310.0469 251.0537 313.9424 L 222.6299 342.3662 Z" fill="#323232"/>		<path d="M 262.2646 311.7344 C 257.1475 309.6914 251.3438 312.1826 249.2979 317.2988 L 249.2979 317.2988 C 247.2559 322.4155 249.7471 328.2202 254.8633 330.2646 L 292.1934 345.1753 C 297.3105 347.2183 303.1143 344.7271 305.1592 339.6108 L 305.1592 339.6108 C 307.2021 334.4937 304.71 328.689 299.5947 326.645 L 262.2646 311.7344 Z" fill="#323232"/>		<path d="M 182.4014 132.9424 C 178.8369 137.1436 172.542 137.6606 168.3389 134.0972 L 168.3389 134.0972 C 164.1377 130.5327 163.6211 124.2363 167.1846 120.0352 L 193.1865 89.3799 C 196.751 85.1782 203.0459 84.6616 207.248 88.2251 L 207.248 88.2251 C 211.4502 91.7896 211.9668 98.085 208.4033 102.2871 L 182.4014 132.9424 Z" fill="#323232"/>		<path d="M 147.793 143.7729 C 142.4531 145.1289 137.0234 141.9009 135.666 136.5605 L 135.666 136.5605 C 134.3105 131.2202 137.54 125.7905 142.8799 124.4341 L 172.1475 116.9985 C 177.4883 115.6421 182.916 118.8706 184.2734 124.2114 L 184.2734 124.2114 C 185.6289 129.5513 182.4004 134.98 177.0605 136.3374 L 147.793 143.7729 Z" fill="#323232"/>		<path d="M 182.0635 166.2554 C 183.5947 160.5479 180.5254 154.7598 175.2031 153.3311 L 175.2031 153.3311 C 169.8828 151.9014 164.3252 155.3721 162.793 161.0801 L 151.6045 202.7324 C 150.0713 208.4419 153.1416 214.229 158.4639 215.6587 L 158.4639 215.6587 C 163.7852 217.0869 169.3428 213.6177 170.875 207.9082 L 182.0635 166.2554 Z" fill="#323232"/>		<path d="M 165.3389 169.8584 C 169.1855 173.8008 175.502 173.8809 179.4463 170.0322 L 179.4463 170.0322 C 183.3906 166.1851 183.4688 159.8682 179.6221 155.9253 L 151.5537 127.1504 C 147.7061 123.2056 141.3906 123.127 137.4443 126.9746 L 137.4443 126.9746 C 133.502 130.8223 133.4229 137.1387 137.2705 141.083 L 165.3389 169.8584 Z" fill="#323232"/>		<path d="M 219.3643 132.9424 C 222.9287 137.1436 229.2236 137.6606 233.4268 134.0972 L 233.4268 134.0972 C 237.6279 130.5327 238.1445 124.2363 234.5811 120.0352 L 208.5791 89.3799 C 205.0146 85.1782 198.7197 84.6616 194.5176 88.2251 L 194.5176 88.2251 C 190.3154 91.7896 189.7979 98.085 193.3623 102.2871 L 219.3643 132.9424 Z" fill="#323232"/>		<path d="M 253.9727 143.7729 C 259.3125 145.1289 264.7422 141.9009 266.0996 136.5605 L 266.0996 136.5605 C 267.4551 131.2202 264.2256 125.7905 258.8857 124.4341 L 229.6182 116.9985 C 224.2773 115.6421 218.8496 118.8706 217.4922 124.2114 L 217.4922 124.2114 C 216.1367 129.5513 219.3643 134.98 224.7051 136.3374 L 253.9727 143.7729 Z" fill="#323232"/>		<path d="M 194.9697 193.8301 C 189.9834 191.0469 188.3447 184.7466 191.3164 179.7568 L 191.3164 179.7568 C 194.2861 174.7681 200.7412 172.979 205.7285 175.7617 L 245.2764 197.0562 C 250.2666 199.8398 251.9033 206.1396 248.9326 211.1294 L 248.9326 211.1294 C 245.9619 216.1182 239.5088 217.9072 234.5186 215.1245 L 194.9697 193.8301 Z" fill="#323232"/>		<path d="M 204.8701 193.0605 C 209.7354 190.2539 211.4531 184.1094 208.7002 179.3354 L 208.7002 179.3354 C 205.9482 174.5625 199.7686 172.9678 194.9033 175.7744 L 156.335 197.2822 C 151.4658 200.0889 149.751 206.2334 152.5029 211.0078 L 152.5029 211.0078 C 155.2549 215.7803 161.4326 217.375 166.3018 214.5684 L 204.8701 193.0605 Z" fill="#323232"/>		<path d="M 219.7021 166.2554 C 218.1709 160.5479 221.2402 154.7598 226.5625 153.3311 L 226.5625 153.3311 C 231.8828 151.9014 237.4404 155.3721 238.9727 161.0801 L 250.1611 202.7324 C 251.6943 208.4419 248.624 214.229 243.3018 215.6587 L 243.3018 215.6587 C 237.9805 217.0869 232.4229 213.6177 230.8906 207.9082 L 219.7021 166.2554 Z" fill="#323232"/>		<path d="M 236.4268 169.8584 C 232.5801 173.8008 226.2627 173.8809 222.3193 170.0322 L 222.3193 170.0322 C 218.375 166.1851 218.2969 159.8682 222.1436 155.9253 L 250.2119 127.1504 C 254.0596 123.2056 260.375 123.127 264.3203 126.9746 L 264.3203 126.9746 C 268.2627 130.8223 268.3428 137.1387 264.4951 141.083 L 236.4268 169.8584 Z" fill="#323232"/>	</g></svg>