<?xml version="1.0" standalone="no"?><!-- Generator: Adobe Fireworks CS6, Export SVG Extension by Aaron Beall (http://fireworks.abeall.com) . Version: 0.6.1  --><!DOCTYPE svg PUBLIC "-//W3C//DTD SVG 1.1//EN" "http://www.w3.org/Graphics/SVG/1.1/DTD/svg11.dtd"><svg id="Untitled-Page%201" viewBox="0 0 220 220" style="background-color:#ffffff00" version="1.1"	xmlns="http://www.w3.org/2000/svg" xmlns:xlink="http://www.w3.org/1999/xlink" xml:space="preserve"	x="0px" y="0px" width="220px" height="220px">	<path d="M 1.8862 125.1508 C 1.8862 126.5246 2.8961 130.9289 4.2567 136.0537 C 4.6397 137.4962 5.0516 138.9975 5.4752 140.5023 C 6.6155 144.5531 7.8489 148.6419 8.8899 151.7647 C 32.7023 202.1912 73.3236 219 109.7427 219 C 168.5736 219 219 172.7758 219 109.7427 C 219 69.296 197.1498 33.4827 163.0112 15.0504 C 147.2313 6.1056 128.9913 1 109.5569 1 C 49.6018 1 1 49.6018 1 109.5569 C 1 114.2788 1.3015 118.9292 1.8862 123.4921 L 1.8862 125.1508 ZM 62.1178 73.3236 L 27.0994 73.3236 C 35.5038 48.1104 66.32 24.2979 88.7317 21.4965 C 76.1251 35.5038 66.32 57.9156 62.1178 73.3236 ZM 118.1471 35.5038 C 126.5515 46.7097 133.5552 60.717 137.7574 73.3236 C 126.5515 76.1251 119.5479 92.9339 109.7427 102.7391 L 81.7281 73.3236 C 84.5295 63.5185 98.5368 27.0994 109.7427 27.0994 C 113.9449 27.0994 116.7464 32.7023 118.1471 35.5038 ZM 143.3604 137.7574 L 76.1251 137.7574 C 74.7244 132.1545 76.1251 99.9376 76.1251 94.3346 C 80.3273 98.5368 104.1398 125.1508 109.7427 125.1508 C 118.1471 125.1508 140.5589 94.3346 143.3604 91.5332 C 143.3604 104.1398 148.9633 119.5479 143.3604 137.7574 ZM 139.1582 155.967 C 134.9559 162.9707 120.9486 193.7868 109.7427 193.7868 C 99.9376 193.7868 81.7281 157.3677 81.7281 155.967 L 139.1582 155.967 ZM 85.5991 197.6564 C 62.9826 191.5211 43.8538 176.908 31.8346 157.4416 C 31.6439 156.9518 31.4664 156.4615 31.3016 155.967 L 62.1178 155.967 C 66.2868 169.8636 71.8337 183.7597 85.5991 197.6564 ZM 188.1698 155.9661 C 182.4067 165.7075 174.8856 174.2858 166.0419 181.2621 C 165.1444 181.9701 164.2324 182.6612 163.3081 183.3357 C 154.8163 189.5331 145.2152 194.2979 134.8573 197.2797 C 145.312 180.3992 152.0399 170.7697 158.7684 155.967 L 188.1698 155.9661 ZM 199.0521 91.532 C 200.2191 97.3587 200.8333 103.3869 200.8333 109.5569 C 200.8333 119.3987 199.2761 128.8786 196.3936 137.7596 L 162.9706 137.7574 C 162.9706 136.3567 164.3714 133.5552 164.3714 105.5405 C 164.3714 99.9376 162.9706 95.7354 161.5699 91.5332 L 199.0521 91.532 ZM 140.6795 23.7216 C 142.2789 24.3017 143.8553 24.9259 145.4117 25.5915 C 155.0337 29.8165 165.6279 36.9474 174.5936 45.5128 C 182.4489 53.4897 188.8465 62.9033 193.3584 73.3255 L 157.3677 73.3236 C 151.7647 57.9156 144.7611 35.5038 130.7537 21.4965 C 133.7519 21.7106 137.1113 22.4794 140.6795 23.7216 ZM 19.273 96.0471 C 19.4981 94.53 19.7585 93.0239 20.0573 91.532 L 56.5148 91.5332 C 56.5148 105.5405 55.1141 118.1471 56.5148 137.7574 L 22.8972 137.7574 C 21.4965 129.353 18.695 113.9449 18.695 109.7427 C 18.695 107.6012 19.513 101.3682 19.273 96.0471 ZM 4.2567 136.0537 C 4.6318 137.5485 5.039 139.0329 5.4752 140.5023 C 5.0516 138.9975 4.6397 137.4962 4.2567 136.0537 Z" fill="#ffffff"/></svg>