<?xml version="1.0" standalone="no"?><!-- Generator: Adobe Fireworks CS6, Export SVG Extension by Aaron Beall (http://fireworks.abeall.com) . Version: 0.6.1  --><!DOCTYPE svg PUBLIC "-//W3C//DTD SVG 1.1//EN" "http://www.w3.org/Graphics/SVG/1.1/DTD/svg11.dtd"><svg id="Raichu-Icons.fw-setting" viewBox="0 0 400 400" style="background-color:#ffffff00" version="1.1"	xmlns="http://www.w3.org/2000/svg" xmlns:xlink="http://www.w3.org/1999/xlink" xml:space="preserve"	x="0px" y="0px" width="400px" height="400px">	<g id="Layer%20198">		<path d="M 200 139 C 240 139 260 177.6667 260 199 C 260 220.3333 242 259 200 259 C 200 259 182.6667 259 174 252 C 165.3333 245 160 256 160 256 C 160 256 155.6667 264 163 269 C 170.3333 274 183 279 200 279 C 220.0111 279 280 265.3333 280 199 C 280 132.6667 220.3333 119 200 119 C 179.6667 119 120 137.3333 120 199 C 120 199 121 222 130 235 C 139 248 147 239 147 239 C 147 239 152.6667 233.6667 148 225 C 143.3333 216.3333 141.6667 207.6667 142 199 C 142.3333 190.3333 152.3333 139 200 139 Z" fill="#333333"/>		<path d="M 113 66 C 117 61.3333 131 55 140 51 C 149 47 157.3333 45 165 43 C 172.6667 41 182.3333 44 182 52 C 181.6667 60 180.6667 79 200 79 C 219.3333 79 219.3333 60.6667 220 53 C 220.6667 45.3333 226.3333 43.6667 230 43 C 233.6667 42.3333 253.3333 47.6667 260 50 C 266.6667 52.3333 284.6667 60.6667 289 65 C 293.3333 69.3333 297.6667 76 289 83 C 280.3333 90 275.6667 100.6667 286 113 C 296.3333 125.3333 312 114 316 109 C 320 104 327.6667 105.6667 331 108 C 334.3333 110.3333 345.3333 130.3333 347 134 C 348.6667 137.6667 356 157.3333 357 163 C 358 168.6667 359.3333 180.3333 347 179 C 334.6667 177.6667 320 182.6667 320 199 C 320 215.3333 337.3333 216.6667 346 217 C 354.6667 217.3333 358.3333 224.3333 357 230 C 355.6667 235.6667 350.6667 253.3333 348 259 C 345.3333 264.6667 337.6667 284.3333 333 289 C 328.3333 293.6667 322.6667 292.6667 317 287 C 311.3333 281.3333 297.6667 271.6667 286 284 C 274.3333 296.3333 286.6667 310 290 313 C 293.3333 316 297 325 291 330 C 285 335 278 338 264 345 C 250 352 231.3333 357.6667 224 354 C 216.6667 350.3333 220 339 220 339 C 220 339 219.3333 317.6667 200 319 C 180.6667 320.3333 182 339 182 339 C 182 339 184 346 180 351 C 176 356 164 354 164 354 C 137.6667 351 110 331.6667 108 325 C 106 318.3333 111 314 111 314 C 117.3333 311 119.3333 307.6667 120 299 C 120.6667 290.3333 129 289 129 289 C 129 289 139.6667 287 140 299 C 140.3333 311 133 321 133 321 C 141 327.3333 162 334 162 334 C 162 305 200 299 200 299 C 220.6667 299 237 315.6667 240 333 C 240 333 264 325.6667 269 319 C 269 319 250 291.6667 272 270 C 294 248.3333 322 264 322 264 C 322 264 332.3333 253.6667 334 237 C 334 237 302 231 302 199 C 302 167 334 159 334 159 C 334 159 326.6667 138.3333 322 132 C 322 132 291.6667 149.6667 271 129 C 250.3333 108.3333 263.3333 84.6667 268 77 C 268 77 252.3333 66.6667 240 65 C 240 65 232 99 200 99 C 168 99 162 65 162 65 C 162 65 144.6667 69 135 76 C 135 76 153 106.3333 130 128 C 107 149.6667 80 131 80 131 C 80 131 70.6667 144.3333 67 159 C 67 159 100 166.6667 100 199 C 100 231.3333 67 237 67 237 C 67 237 70 253.3333 77 265 C 77 265 91 257.6667 104 259 C 104 259 112 260.6667 111 270 C 110 279.3333 100 279 100 279 C 100 279 92 278.6667 89 282 C 86 285.3333 77.3333 295.3333 70 288 C 62.6667 280.6667 47 253.6667 44 229 C 44 229 46.3333 218.6667 54 219 C 61.6667 219.3333 80 215.6667 80 199 C 80 182.3333 68.3333 179 55 179 C 41.6667 179 45 159 45 159 C 45 159 52.3333 129.6667 69 110 C 69 110 77 103.3333 84 109 C 91 114.6667 103 126 116 114 C 129 102 116.3333 86 112 83 C 107.0668 79.5847 109 70.6667 113 66 Z" fill="#333333"/>		<path d="M 113 66 C 117 61.3333 131 55 140 51 C 149 47 157.3333 45 165 43 C 172.6667 41 182.3333 44 182 52 C 181.6667 60 180.6667 79 200 79 C 219.3333 79 219.3333 60.6667 220 53 C 220.6667 45.3333 226.3333 43.6667 230 43 C 233.6667 42.3333 253.3333 47.6667 260 50 C 266.6667 52.3333 284.6667 60.6667 289 65 C 293.3333 69.3333 297.6667 76 289 83 C 280.3333 90 275.6667 100.6667 286 113 C 296.3333 125.3333 312 114 316 109 C 320 104 327.6667 105.6667 331 108 C 334.3333 110.3333 345.3333 130.3333 347 134 C 348.6667 137.6667 356 157.3333 357 163 C 358 168.6667 359.3333 180.3333 347 179 C 334.6667 177.6667 320 182.6667 320 199 C 320 215.3333 337.3333 216.6667 346 217 C 354.6667 217.3333 358.3333 224.3333 357 230 C 355.6667 235.6667 350.6667 253.3333 348 259 C 345.3333 264.6667 337.6667 284.3333 333 289 C 328.3333 293.6667 322.6667 292.6667 317 287 C 311.3333 281.3333 297.6667 271.6667 286 284 C 274.3333 296.3333 286.6667 310 290 313 C 293.3333 316 297 325 291 330 C 285 335 278 338 264 345 C 250 352 231.3333 357.6667 224 354 C 216.6667 350.3333 220 339 220 339 C 220 339 219.3333 317.6667 200 319 C 180.6667 320.3333 182 339 182 339 C 182 339 184 346 180 351 C 176 356 164 354 164 354 C 137.6667 351 110 331.6667 108 325 C 106 318.3333 111 314 111 314 C 117.3333 311 119.3333 307.6667 120 299 C 120.6667 290.3333 129 289 129 289 C 129 289 139.6667 287 140 299 C 140.3333 311 133 321 133 321 C 141 327.3333 162 334 162 334 C 162 305 200 299 200 299 C 220.6667 299 237 315.6667 240 333 C 240 333 264 325.6667 269 319 C 269 319 250 291.6667 272 270 C 294 248.3333 322 264 322 264 C 322 264 332.3333 253.6667 334 237 C 334 237 302 231 302 199 C 302 167 334 159 334 159 C 334 159 326.6667 138.3333 322 132 C 322 132 291.6667 149.6667 271 129 C 250.3333 108.3333 263.3333 84.6667 268 77 C 268 77 252.3333 66.6667 240 65 C 240 65 232 99 200 99 C 168 99 162 65 162 65 C 162 65 144.6667 69 135 76 C 135 76 153 106.3333 130 128 C 107 149.6667 80 131 80 131 C 80 131 70.6667 144.3333 67 159 C 67 159 100 166.6667 100 199 C 100 231.3333 67 237 67 237 C 67 237 70 253.3333 77 265 C 77 265 91 257.6667 104 259 C 104 259 112 260.6667 111 270 C 110 279.3333 100 279 100 279 C 100 279 92 278.6667 89 282 C 86 285.3333 77.3333 295.3333 70 288 C 62.6667 280.6667 47 253.6667 44 229 C 44 229 46.3333 218.6667 54 219 C 61.6667 219.3333 80 215.6667 80 199 C 80 182.3333 68.3333 179 55 179 C 41.6667 179 45 159 45 159 C 45 159 52.3333 129.6667 69 110 C 69 110 77 103.3333 84 109 C 91 114.6667 103 126 116 114 C 129 102 116.3333 86 112 83 C 107.0668 79.5847 109 70.6667 113 66 Z" fill="#333333"/>	</g></svg>