<?xml version="1.0" standalone="no"?><!-- Generator: Adobe Fireworks CS6, Export SVG Extension by Aaron Beall (http://fireworks.abeall.com) . Version: 0.6.1  --><!DOCTYPE svg PUBLIC "-//W3C//DTD SVG 1.1//EN" "http://www.w3.org/Graphics/SVG/1.1/DTD/svg11.dtd"><svg id="Raichu-Icons.fw-camera" viewBox="0 0 400 400" style="background-color:#ffffff00" version="1.1"	xmlns="http://www.w3.org/2000/svg" xmlns:xlink="http://www.w3.org/1999/xlink" xml:space="preserve"	x="0px" y="0px" width="400px" height="400px">	<g id="Layer%20158">		<path d="M 199.4771 287.2915 C 160.4048 287.3506 128.4326 255.6274 128.3525 216.7197 C 128.2715 177.5771 160.0137 145.9463 199.4395 145.8813 C 238.5322 145.8174 270.3945 177.5356 270.4048 216.5259 C 270.415 255.458 238.5679 287.2324 199.4771 287.2915 ZM 148.1255 216.2861 C 148.0645 243.7368 170.3525 266.0571 197.9385 266.1699 C 225.8843 266.2842 248.5361 244.2739 248.6436 216.9023 C 248.752 189.2134 226.3882 166.9453 198.4351 166.9087 C 170.7012 166.8721 148.186 188.9697 148.1255 216.2861 Z" fill="#323232"/>		<path d="M 289.5205 338.6401 L 50.1704 338.6401 C 44.6709 338.6401 40.1709 334.1401 40.1709 328.6401 L 40.1709 328.6401 C 40.1709 323.1401 44.6709 318.6401 50.1704 318.6401 L 289.5205 318.6401 C 295.0205 318.6401 299.5205 323.1401 299.5205 328.6401 L 299.5205 328.6401 C 299.5205 334.1401 295.0205 338.6401 289.5205 338.6401 Z" fill="#323232"/>		<path d="M 59.7017 130.5913 L 59.7017 328.3901 C 59.7017 333.8901 55.2017 338.3901 49.7017 338.3901 L 49.7017 338.3901 C 44.2017 338.3901 39.7017 333.8901 39.7017 328.3901 L 39.7017 130.5913 C 39.7017 125.0913 44.2017 120.5913 49.7017 120.5913 L 49.7017 120.5913 C 55.2017 120.5913 59.7017 125.0913 59.7017 130.5913 Z" fill="#323232"/>		<path d="M 359.4102 129.6401 L 359.4102 327.4932 C 359.4102 332.9932 354.9102 337.4932 349.4102 337.4932 L 349.4102 337.4932 C 343.9102 337.4932 339.4102 332.9932 339.4102 327.4932 L 339.4102 129.6401 C 339.4102 124.1401 343.9102 119.6401 349.4102 119.6401 L 349.4102 119.6401 C 354.9102 119.6401 359.4102 124.1401 359.4102 129.6401 Z" fill="#323232"/>		<path d="M 289.5205 80.0566 L 109.6548 80.0566 C 104.1548 80.0566 99.6548 75.5566 99.6548 70.0566 L 99.6548 70.0566 C 99.6548 64.5566 104.1548 60.0566 109.6548 60.0566 L 289.5205 60.0566 C 295.0205 60.0566 299.5205 64.5566 299.5205 70.0566 L 299.5205 70.0566 C 299.5205 75.5566 295.0205 80.0566 289.5205 80.0566 Z" fill="#323232"/>		<path d="M 119.6733 69.8843 L 119.6733 129.0864 C 119.6733 134.4844 115.1733 138.9009 109.6733 138.9009 L 109.6733 138.9009 C 104.1733 138.9009 99.6733 134.4844 99.6733 129.0864 L 99.6733 69.8843 C 99.6733 64.4863 104.1733 60.0698 109.6733 60.0698 L 109.6733 60.0698 C 115.1733 60.0698 119.6733 64.4863 119.6733 69.8843 Z" fill="#323232"/>		<path d="M 299.6484 70.0581 L 299.6484 129.0615 C 299.6484 134.5132 295.1484 138.9736 289.6484 138.9736 L 289.6484 138.9736 C 284.1484 138.9736 279.6484 134.5132 279.6484 129.0615 L 279.6484 70.0581 C 279.6484 64.606 284.1484 60.1455 289.6484 60.1455 L 289.6484 60.1455 C 295.1484 60.1455 299.6484 64.606 299.6484 70.0581 Z" fill="#323232"/>		<path d="M 109.5986 138.9111 L 50.3906 138.9111 C 44.8906 138.9111 40.3906 134.4111 40.3906 128.9111 L 40.3906 128.9111 C 40.3906 123.4111 44.8906 118.9111 50.3906 118.9111 L 109.5986 118.9111 C 115.0986 118.9111 119.5986 123.4111 119.5986 128.9111 L 119.5986 128.9111 C 119.5986 134.4111 115.0986 138.9111 109.5986 138.9111 Z" fill="#323232"/>		<path d="M 349.249 138.9736 L 289.5361 138.9736 C 284.0361 138.9736 279.5361 134.4736 279.5361 128.9736 L 279.5361 128.9736 C 279.5361 123.4736 284.0361 118.9736 289.5361 118.9736 L 349.249 118.9736 C 354.749 118.9736 359.249 123.4736 359.249 128.9736 L 359.249 128.9736 C 359.249 134.4736 354.749 138.9736 349.249 138.9736 Z" fill="#323232"/>		<g>			<path d="M 187.3516 244.8218 C 186.2676 244.4121 185.2173 243.9341 184.1982 243.4038 C 185.1436 244.0513 186.209 244.5313 187.3516 244.8218 Z" fill="#323232"/>			<path d="M 227.6191 215.5776 C 227.6191 214.8857 227.5479 214.21 227.4131 213.5581 C 227.5098 214.4482 227.5654 215.3506 227.5845 216.2627 C 227.6001 216.0356 227.6191 215.8091 227.6191 215.5776 Z" fill="#323232"/>			<path d="M 207.7974 214.5483 C 207.7627 214.8867 207.7441 215.23 207.7441 215.5776 C 207.7441 216.4067 207.8569 217.208 208.0483 217.978 C 208.0811 217.6455 208.0986 217.3091 208.0986 216.9683 C 208.0986 216.1328 207.9868 215.3257 207.7974 214.5483 Z" fill="#323232"/>			<path d="M 227.5845 216.2627 C 227.5654 215.3506 227.5098 214.4482 227.4131 213.5581 C 226.4795 209.0381 222.4775 205.6401 217.6816 205.6401 C 212.541 205.6401 208.3125 209.5439 207.7974 214.5483 C 207.9868 215.3257 208.0986 216.1328 208.0986 216.9683 C 208.0986 217.3091 208.0811 217.6455 208.0483 217.978 C 207.5459 223.0938 203.2607 227.1133 198.0693 227.1216 C 196.8311 227.1235 195.6489 226.8857 194.5513 226.4692 C 194.1602 226.2563 193.7485 226.0786 193.3281 225.9189 C 192.2319 225.5029 191.0483 225.2651 189.8066 225.2651 C 184.3184 225.2651 179.8691 229.7144 179.8691 235.2026 C 179.8691 238.6094 181.585 241.6133 184.1982 243.4038 C 185.2173 243.9341 186.2676 244.4121 187.3516 244.8218 C 190.5381 246.0264 193.9844 246.6934 197.584 246.708 C 214.1274 246.7773 227.5371 233.5171 227.6006 217.0273 C 227.6016 216.771 227.5898 216.5176 227.5845 216.2627 Z" fill="#323232"/>		</g>	</g></svg>