<?xml version="1.0" standalone="no"?><!-- Generator: Adobe Fireworks CS6, Export SVG Extension by Aaron Beall (http://fireworks.abeall.com) . Version: 0.6.1  --><!DOCTYPE svg PUBLIC "-//W3C//DTD SVG 1.1//EN" "http://www.w3.org/Graphics/SVG/1.1/DTD/svg11.dtd"><svg id="Raichu-Icons.fw-check" viewBox="0 0 400 400" style="background-color:#ffffff00" version="1.1"	xmlns="http://www.w3.org/2000/svg" xmlns:xlink="http://www.w3.org/1999/xlink" xml:space="preserve"	x="0px" y="0px" width="400px" height="400px">	<g id="Layer%2018">		<path d="M 139.1 354.9 C 135.179 358.821 128.8664 358.8664 125 355 L 125 355 C 121.1336 351.1336 121.179 344.821 125.1 340.9 L 343.9 42.1 C 347.8213 38.1787 354.1336 38.1336 358 42 L 358 42 C 361.8664 45.8664 361.8213 52.1787 357.9 56.1 L 139.1 354.9 Z" fill="#333333"/>		<path d="M 43.0588 273.0588 C 39.1606 269.1606 39.1336 262.8664 43 259 L 43 259 C 46.8664 255.1336 53.1606 255.1606 57.0588 259.0588 L 137.9412 340.9412 C 141.8397 344.8397 141.8664 351.1336 138 355 L 138 355 C 134.1336 358.8664 127.8397 358.8397 123.9412 354.9412 L 43.0588 273.0588 Z" fill="#333333"/>	</g></svg>