<?xml version="1.0" standalone="no"?><!-- Generator: Adobe Fireworks CS6, Export SVG Extension by Aaron Beall (http://fireworks.abeall.com) . Version: 0.6.1  --><!DOCTYPE svg PUBLIC "-//W3C//DTD SVG 1.1//EN" "http://www.w3.org/Graphics/SVG/1.1/DTD/svg11.dtd"><svg id="Raichu-Icons.fw-trash" viewBox="0 0 400 400" style="background-color:#ffffff00" version="1.1"	xmlns="http://www.w3.org/2000/svg" xmlns:xlink="http://www.w3.org/1999/xlink" xml:space="preserve"	x="0px" y="0px" width="400px" height="400px">	<g id="Layer%201101">		<path d="M 298.2109 340.874 C 303.6377 341.897 308.8672 338.3257 309.8896 332.8989 L 343.2217 114.0117 C 344.2441 108.585 340.6729 103.3555 335.2461 102.333 L 335.2461 102.333 C 329.8193 101.3105 324.5898 104.8813 323.5674 110.3081 L 290.2363 329.1953 C 289.2129 334.6221 292.7842 339.8516 298.2109 340.874 L 298.2109 340.874 Z" fill="#323232"/>		<path d="M 101.9141 340.874 C 96.4873 341.897 91.2578 338.3257 90.2354 332.8989 L 56.9033 153.0117 C 55.8809 147.585 59.4521 142.3555 64.8789 141.333 L 64.8789 141.333 C 70.3057 140.3105 75.5352 143.8813 76.5576 149.3081 L 109.8887 329.1953 C 110.9121 334.6221 107.3408 339.8516 101.9141 340.874 L 101.9141 340.874 Z" fill="#323232"/>		<path d="M 170.9141 340.874 C 165.4873 341.897 160.2578 338.3257 159.2354 332.8989 L 125.9033 153.0117 C 124.8809 147.585 128.4521 142.3555 133.8789 141.333 L 133.8789 141.333 C 139.3057 140.3105 144.5352 143.8813 145.5576 149.3081 L 178.8887 329.1953 C 179.9121 334.6221 176.3408 339.8516 170.9141 340.874 L 170.9141 340.874 Z" fill="#323232"/>		<path d="M 223.3145 340.874 C 228.7412 341.897 233.9707 338.3257 234.9932 332.8989 L 268.3252 153.0117 C 269.3477 147.585 265.7764 142.3555 260.3496 141.333 L 260.3496 141.333 C 254.9229 140.3105 249.6934 143.8813 248.6709 149.3081 L 215.3398 329.1953 C 214.3164 334.6221 217.8877 339.8516 223.3145 340.874 L 223.3145 340.874 Z" fill="#323232"/>		<path d="M 310.1016 330.918 C 310.1016 336.4409 305.624 340.918 300.1016 340.918 L 100.1016 340.918 C 94.5791 340.918 90.1016 336.4409 90.1016 330.918 L 90.1016 330.918 C 90.1016 325.395 94.5791 320.918 100.1016 320.918 L 300.1016 320.918 C 305.624 320.918 310.1016 325.395 310.1016 330.918 L 310.1016 330.918 Z" fill="#323232"/>		<path d="M 266.4346 120.9556 C 260.9111 120.9556 256.4346 116.478 256.4346 110.9556 L 256.4346 70.9556 C 256.4346 65.4331 260.9111 60.9556 266.4346 60.9556 L 266.4346 60.9556 C 271.958 60.9556 276.4346 65.4331 276.4346 70.9556 L 276.4346 110.9556 C 276.4346 116.478 271.958 120.9556 266.4346 120.9556 L 266.4346 120.9556 Z" fill="#323232"/>		<path d="M 343.3516 111.001 C 343.3516 116.5239 338.874 121.001 333.3516 121.001 L 266.3516 121.001 C 260.8291 121.001 256.3516 116.5239 256.3516 111.001 L 256.3516 111.001 C 256.3516 105.478 260.8291 101.001 266.3516 101.001 L 333.3516 101.001 C 338.874 101.001 343.3516 105.478 343.3516 111.001 L 343.3516 111.001 Z" fill="#323232"/>		<path d="M 143.5186 111.001 C 143.5186 116.5239 139.041 121.001 133.5186 121.001 L 66.5186 121.001 C 60.9961 121.001 56.5186 116.5239 56.5186 111.001 L 56.5186 111.001 C 56.5186 105.478 60.9961 101.001 66.5186 101.001 L 133.5186 101.001 C 139.041 101.001 143.5186 105.478 143.5186 111.001 L 143.5186 111.001 Z" fill="#323232"/>		<path d="M 276.3516 70.8345 C 276.3516 76.3574 271.874 80.8345 266.3516 80.8345 L 133.3516 80.8345 C 127.8291 80.8345 123.3516 76.3574 123.3516 70.8345 L 123.3516 70.8345 C 123.3516 65.3115 127.8291 60.8345 133.3516 60.8345 L 266.3516 60.8345 C 271.874 60.8345 276.3516 65.3115 276.3516 70.8345 L 276.3516 70.8345 Z" fill="#323232"/>		<path d="M 133.4346 120.9556 C 127.9111 120.9556 123.4346 116.478 123.4346 110.9556 L 123.4346 70.9556 C 123.4346 65.4331 127.9111 60.9556 133.4346 60.9556 L 133.4346 60.9556 C 138.958 60.9556 143.4346 65.4331 143.4346 70.9556 L 143.4346 110.9556 C 143.4346 116.478 138.958 120.9556 133.4346 120.9556 L 133.4346 120.9556 Z" fill="#323232"/>	</g></svg>