<?xml version="1.0" standalone="no"?><!-- Generator: Adobe Fireworks CS6, Export SVG Extension by Aaron Beall (http://fireworks.abeall.com) . Version: 0.6.1  --><!DOCTYPE svg PUBLIC "-//W3C//DTD SVG 1.1//EN" "http://www.w3.org/Graphics/SVG/1.1/DTD/svg11.dtd"><svg id="Icon%20Empty%20Dashboard.fw-Page%201" viewBox="0 0 300 300" style="background-color:#ffffff00" version="1.1"	xmlns="http://www.w3.org/2000/svg" xmlns:xlink="http://www.w3.org/1999/xlink" xml:space="preserve"	x="0px" y="0px" width="300px" height="300px">	<path id="Ellipse" d="M 34.0624 27.5944 C 34.0624 32.8933 29.7952 37.1888 24.5312 37.1888 C 19.2672 37.1888 15 32.8933 15 27.5944 C 15 22.2954 19.2672 18 24.5312 18 C 29.7952 18 34.0624 22.2954 34.0624 27.5944 Z" fill="#006e8d"/>	<path id="Ellipse2" d="M 224.6861 27.5944 C 224.6861 22.2954 228.9533 18 234.2173 18 C 239.4814 18 243.7485 22.2954 243.7485 27.5944 C 243.7485 32.8933 239.4814 37.1888 234.2173 37.1888 C 228.9533 37.1888 224.6861 32.8933 224.6861 27.5944 Z" fill="#006e8d"/>	<path d="M 243.7485 26.635 L 243.7008 26.635 C 243.732 26.9505 243.7485 27.2707 243.7485 27.5944 L 243.7485 26.635 Z" fill="#006e8d"/>	<path d="M 235.1704 18.048 L 235.1704 18 L 234.2173 18 C 234.539 18 234.8569 18.0166 235.1704 18.048 Z" fill="#006e8d"/>	<path d="M 255.6564 35.6878 L 255.5405 34.7373 L 255.4956 34.7422 C 255.5646 35.0511 255.6172 35.3669 255.6564 35.6878 Z" fill="#006e8d"/>	<path d="M 246.0074 36.877 L 245.9995 36.8281 L 245.0553 36.9447 C 245.3739 36.9054 245.693 36.8843 246.0074 36.877 Z" fill="#006e8d"/>	<path d="M 234.2173 37.1888 L 23.5781 37.1888 L 23.5781 18 L 234.2173 18 L 234.2173 37.1888 Z" fill="#006e8d"/>	<path id="Ellipse3" d="M 243.7485 229.0767 C 243.7485 234.3756 239.4814 238.6711 234.2173 238.6711 C 228.9533 238.6711 224.6861 234.3756 224.6861 229.0767 C 224.6861 223.7777 228.9533 219.4823 234.2173 219.4823 C 239.4814 219.4823 243.7485 223.7777 243.7485 229.0767 Z" fill="#006e8d"/>	<path id="Ellipse4" d="M 223.733 229.0767 C 223.733 234.3756 219.4659 238.6711 214.2018 238.6711 C 208.9378 238.6711 204.6706 234.3756 204.6706 229.0767 C 204.6706 223.7777 208.9378 219.4823 214.2018 219.4823 C 219.4659 219.4823 223.733 223.7777 223.733 229.0767 Z" fill="#006e8d"/>	<path id="Ellipse5" d="M 157.9678 229.0767 C 157.9678 234.3756 153.7007 238.6711 148.4366 238.6711 C 143.1726 238.6711 138.9054 234.3756 138.9054 229.0767 C 138.9054 223.7777 143.1726 219.4823 148.4366 219.4823 C 153.7007 219.4823 157.9678 223.7777 157.9678 229.0767 Z" fill="#006e8d"/>	<path id="Ellipse6" d="M 15 229.0767 C 15 223.7777 19.2672 219.4823 24.5312 219.4823 C 29.7952 219.4823 34.0624 223.7777 34.0624 229.0767 C 34.0624 234.3756 29.7952 238.6711 24.5312 238.6711 C 19.2672 238.6711 15 234.3756 15 229.0767 Z" fill="#006e8d"/>	<path id="Ellipse7" d="M 34.0624 229.0767 C 34.0624 234.3756 29.7952 238.6711 24.5312 238.6711 C 19.2672 238.6711 15 234.3756 15 229.0767 C 15 223.7777 19.2672 219.4823 24.5312 219.4823 C 29.7952 219.4823 34.0624 223.7777 34.0624 229.0767 Z" fill="#006e8d"/>	<path id="Ellipse8" d="M 224.6861 229.0767 C 224.6861 223.7777 228.9533 219.4823 234.2173 219.4823 C 239.4814 219.4823 243.7485 223.7777 243.7485 229.0767 C 243.7485 234.3756 239.4814 238.6711 234.2173 238.6711 C 228.9533 238.6711 224.6861 234.3756 224.6861 229.0767 Z" fill="#006e8d"/>	<path d="M 234.2173 238.6711 L 215.1549 238.6711 L 215.1549 219.4823 L 234.2173 219.4823 L 234.2173 238.6711 Z" fill="#006e8d"/>	<path d="M 15 230.0361 L 15 26.635 L 34.0624 26.635 L 34.0624 230.0361 L 15 230.0361 Z" fill="#006e8d"/>	<path d="M 148.4366 238.6711 L 23.5781 238.6711 L 23.5781 219.4823 L 148.4366 219.4823 L 148.4366 238.6711 Z" fill="#006e8d"/>	<path d="M 224.6861 229.1158 L 224.6861 26.635 L 243.7485 26.635 L 243.7485 229.1158 L 224.6861 229.1158 Z" fill="#006e8d"/>	<path d="M 234.2173 238.6711 L 235.1704 238.6711 L 235.1704 238.6231 C 234.8569 238.6544 234.539 238.6711 234.2173 238.6711 Z" fill="#006e8d"/>	<path d="M 260.4329 40.5707 L 260.422 40.485 C 260.3829 40.1641 260.3302 39.8484 260.2613 39.5394 C 259.2706 35.1038 255.2883 31.9742 250.773 32.0799 C 250.4586 32.0871 250.1395 32.1081 249.821 32.1475 L 249.7865 32.1517 L 248.5141 32.3101 L 248.5141 99.9937 L 265.8846 242.4128 L 77.048 265.7513 L 74.3317 243.4683 L 55.1645 243.4683 L 59.32 277.5427 L 59.3261 277.5902 C 59.9664 282.8395 64.7126 286.572 69.9272 285.9277 L 277.6457 260.2523 C 277.9644 260.213 278.2782 260.1601 278.5851 260.0905 C 283.2981 259.024 286.5293 254.5093 285.9281 249.5809 L 260.4329 40.5707 Z" fill="#006e8d"/>	<path d="M 272.8801 255.4552 L 273.8244 255.3385 L 273.8195 255.2933 C 273.5126 255.3629 273.1988 255.4158 272.8801 255.4552 Z" fill="#006e8d"/>	<path d="M 94.3824 161.7968 C 93.4236 163.4358 91.3286 163.981 89.702 163.0147 L 89.702 163.0147 C 88.0764 162.0484 87.5355 159.9365 88.4943 158.2975 L 107.1896 128.996 C 108.1484 127.3571 110.2434 126.8119 111.8693 127.7781 L 111.8693 127.7781 C 113.4956 128.7444 114.0365 130.8564 113.0777 132.4953 L 94.3824 161.7968 Z" fill="#006e8d"/>	<path d="M 150.8207 137.4377 C 152.4466 138.4042 152.9875 140.5158 152.0287 142.155 L 152.0287 142.155 C 151.0703 143.7939 148.9749 144.3392 147.349 143.3727 L 122.047 127.2909 C 120.4214 126.3244 119.8804 124.2128 120.8393 122.574 L 120.8393 122.574 C 121.7978 120.9348 123.8931 120.3895 125.5189 121.3559 L 150.8207 137.4377 Z" fill="#006e8d"/>	<path d="M 162.6477 95.8045 C 162.9494 93.9265 164.7042 92.6504 166.5676 92.9542 L 166.5676 92.9542 C 168.4307 93.2582 169.6966 95.0272 169.3952 96.9053 L 160.4651 138.7431 C 160.1637 140.6211 158.4089 141.8974 156.5451 141.5932 L 156.5451 141.5932 C 154.6821 141.2894 153.4158 139.5205 153.7175 137.6424 L 162.6477 95.8045 Z" fill="#006e8d"/>	<path d="M 113.9951 114.1758 C 110.2718 114.1758 107.2532 117.2182 107.2532 120.9708 C 107.2532 124.7237 110.2718 127.766 113.9951 127.766 C 117.7179 127.766 120.7362 124.7237 120.7362 120.9708 C 120.7362 117.2182 117.7179 114.1758 113.9951 114.1758 ZM 113.9947 134.742 C 106.4496 134.742 100.3327 128.5763 100.3327 120.971 C 100.3327 113.3655 106.4496 107.1998 113.9947 107.1998 C 121.5405 107.1998 127.6571 113.3655 127.6571 120.971 C 127.6571 128.5763 121.5405 134.742 113.9947 134.742 Z" fill="#006e8d"/>	<path d="M 155.3174 141.6722 C 151.5945 141.6722 148.5762 144.7146 148.5762 148.4673 C 148.5762 152.2202 151.5945 155.2625 155.3174 155.2625 C 159.0402 155.2625 162.0589 152.2202 162.0589 148.4673 C 162.0589 144.7146 159.0402 141.6722 155.3174 141.6722 ZM 155.3174 162.2385 C 147.7722 162.2385 141.6553 156.0729 141.6553 148.4675 C 141.6553 140.8619 147.7722 134.6963 155.3174 134.6963 C 162.8632 134.6963 168.9797 140.8619 168.9797 148.4675 C 168.9797 156.0729 162.8632 162.2385 155.3174 162.2385 Z" fill="#006e8d"/>	<path d="M 92.717 156.835 C 92.9016 156.9245 93.0833 157.0191 93.2633 157.1165 C 93.0906 157.0072 92.9087 156.9123 92.717 156.835 Z" fill="#006e8d"/>	<path d="M 155.6806 89.1056 C 156.2095 90.6984 157.8245 91.7073 159.5156 91.4086 C 161.3791 91.0798 162.6253 89.2899 162.2991 87.4114 C 162.2763 87.2831 162.2462 87.1584 162.2107 87.0364 C 162.2191 87.0356 162.2238 87.0376 162.2335 87.0356 C 162.1054 83.691 164.5596 80.3617 167.9212 79.7682 C 171.5885 79.1208 175.0822 81.5926 175.7246 85.2889 C 176.3672 88.9855 173.915 92.5072 170.247 93.1548 C 169.2851 93.3246 168.2092 93.2872 167.319 93.0617 C 167.3033 93.0972 167.4144 93.1207 167.3986 93.1558 C 166.8172 92.9127 166.1638 92.8247 165.4974 92.9424 C 163.634 93.2714 162.3878 95.0608 162.7139 96.9392 C 162.9253 98.1538 163.7437 99.1052 164.7988 99.5388 C 164.9926 99.6034 165.1876 99.6651 165.385 99.7214 C 167.2963 100.2647 169.3551 100.3941 171.442 100.0261 C 178.8737 98.714 183.8438 91.5768 182.5417 84.0851 C 181.24 76.5938 174.1592 71.5847 166.7272 72.8968 C 159.6063 74.1545 154.7507 80.7579 155.5 87.8968 C 155.4926 88.1293 155.5087 88.3652 155.5502 88.6029 C 155.5796 88.7766 155.6268 88.943 155.6806 89.1056 ZM 162.1375 86.8167 C 162.1318 86.8009 162.1274 86.7842 162.121 86.7681 C 162.1419 86.7639 162.1425 86.7853 162.1375 86.8167 Z" fill="#006e8d"/>	<path d="M 100.4504 168.7346 C 100.1734 167.0789 98.7329 165.83 97.0159 165.861 C 95.1248 165.8942 93.6183 167.4682 93.6517 169.3746 C 93.6544 169.5046 93.6654 169.6322 93.6815 169.7589 C 93.6728 169.7587 93.6684 169.7553 93.6587 169.756 C 93.271 173.0798 90.3343 175.9859 86.9223 176.0468 C 83.2 176.1133 80.1282 173.1254 80.062 169.3734 C 79.996 165.6214 82.9602 162.5255 86.6827 162.4586 C 87.6599 162.4411 88.7171 162.6463 89.5618 163.0081 C 89.5829 162.9758 89.4762 162.9349 89.4976 162.9026 C 90.0346 163.2341 90.6668 163.4234 91.343 163.4109 C 93.2345 163.3771 94.7407 161.8036 94.7073 159.8967 C 94.6855 158.664 94.023 157.5966 93.0475 157.0032 C 92.8662 156.9088 92.6822 156.8177 92.4965 156.7312 C 90.692 155.8961 88.6773 155.4458 86.5593 155.4839 C 79.0154 155.6189 73.0083 161.8935 73.1425 169.4977 C 73.2766 177.1019 79.5013 183.1569 87.0453 183.0214 C 94.2733 182.8922 100.0857 177.1268 100.443 169.9568 C 100.4862 169.7287 100.507 169.4932 100.5027 169.2518 C 100.4993 169.075 100.4789 168.9039 100.4504 168.7346 ZM 93.72 169.9872 C 93.7233 170.004 93.725 170.0209 93.729 170.0374 C 93.7076 170.0388 93.7099 170.0177 93.72 169.9872 Z" fill="#006e8d"/></svg>