<?xml version="1.0" standalone="no"?><!-- Generator: Adobe Fireworks CS6, Export SVG Extension by Aaron Beall (http://fireworks.abeall.com) . Version: 0.6.1  --><!DOCTYPE svg PUBLIC "-//W3C//DTD SVG 1.1//EN" "http://www.w3.org/Graphics/SVG/1.1/DTD/svg11.dtd"><svg id="Raichu-Icons.fw-pencil" viewBox="0 0 400 400" style="background-color:#ffffff00" version="1.1"	xmlns="http://www.w3.org/2000/svg" xmlns:xlink="http://www.w3.org/1999/xlink" xml:space="preserve"	x="0px" y="0px" width="400px" height="400px">	<g id="Layer%201100">		<path d="M 249.2568 85.7422 L 57.2949 269.7041 C 53.4063 273.5928 47.0415 273.5928 43.1533 269.7036 L 43.1533 269.7036 C 39.2642 265.8145 39.2642 259.4502 43.1523 255.562 L 235.1143 71.6001 C 239.0039 67.7109 245.3672 67.7109 249.2563 71.6001 L 249.2563 71.6001 C 253.1455 75.4893 253.146 81.853 249.2568 85.7422 Z" fill="#323232"/>		<path d="M 249.3511 71.6494 L 303.0249 126.3232 C 306.9136 130.2119 306.9136 136.5762 303.0249 140.4648 L 303.0249 140.4648 C 299.1357 144.354 292.7715 144.354 288.8828 140.4653 L 235.209 85.7915 C 231.3198 81.9023 231.3198 75.5386 235.209 71.6494 L 235.209 71.6494 C 239.0981 67.7603 245.4619 67.7603 249.3511 71.6494 Z" fill="#323232"/>		<path d="M 357.8354 85.1648 C 345.3213 50.2994 306.684 32.2127 271.7795 44.8838 C 270.1756 45.4652 268.6216 46.1207 267.0918 46.81 C 267.098 46.8169 267.1042 46.8234 267.1104 46.8303 C 267.2673 46.7626 267.4196 46.6851 267.5826 46.6258 C 267.7708 46.5577 267.9605 46.5087 268.1484 46.4533 C 263.0662 48.3908 260.4428 54.0511 262.2866 59.1929 C 264.1198 64.3041 269.6773 66.9829 274.7993 65.2919 C 274.8048 65.3365 274.8118 65.3816 274.8173 65.4256 C 275.9821 64.8958 277.1712 64.3972 278.3968 63.9559 C 282.4321 62.5053 286.5247 61.6425 290.5885 61.3062 C 290.5833 61.3251 290.58 61.3442 290.5757 61.3627 C 291.851 61.2663 293.1382 61.2072 294.4398 61.2149 C 320.6645 61.3792 341.5078 82.6647 341.2337 109.0017 C 341.1041 121.5709 336.0379 132.9137 327.8946 141.2704 C 327.6099 141.4913 327.3327 141.726 327.0684 141.9819 L 127.2323 341.9815 C 123.2751 345.8058 123.1561 352.1732 126.9683 356.1314 C 130.7801 360.0895 137.1375 360.1986 141.0947 356.3744 L 337.9301 159.2742 C 350.0059 148.9877 358.4403 134.5607 360.9318 118.2087 C 360.9523 118.0781 360.9709 117.947 360.9908 117.8173 C 361.0412 117.4736 361.0925 117.1304 361.137 116.7852 C 362.558 106.4374 361.59 95.6283 357.8354 85.1648 Z" fill="#323232"/>		<path d="M 130.687 359.9731 L 50.3369 359.9731 C 44.8374 359.9731 40.3374 355.4731 40.3374 349.9731 L 40.3374 349.9731 C 40.3374 344.4731 44.8374 339.9731 50.3369 339.9731 L 130.687 339.9731 C 136.187 339.9731 140.687 344.4731 140.687 349.9731 L 140.687 349.9731 C 140.687 355.4731 136.187 359.9731 130.687 359.9731 Z" fill="#323232"/>		<path d="M 60.1787 266.6318 L 60.1787 346.9819 C 60.1787 352.4814 55.6787 356.9814 50.1787 356.9814 L 50.1787 356.9814 C 44.6787 356.9814 40.1787 352.4814 40.1787 346.9819 L 40.1787 266.6318 C 40.1787 261.1318 44.6787 256.6318 50.1787 256.6318 L 50.1787 256.6318 C 55.6787 256.6318 60.1787 261.1318 60.1787 266.6318 Z" fill="#323232"/>	</g></svg>