<?xml version="1.0" standalone="no"?><!-- Generator: Adobe Fireworks CS6, Export SVG Extension by Aaron Beall (http://fireworks.abeall.com) . Version: 0.6.1  --><!DOCTYPE svg PUBLIC "-//W3C//DTD SVG 1.1//EN" "http://www.w3.org/Graphics/SVG/1.1/DTD/svg11.dtd"><svg id="Raichu-Icons.fw-chevron-right" viewBox="0 0 400 400" style="background-color:#ffffff00" version="1.1"	xmlns="http://www.w3.org/2000/svg" xmlns:xlink="http://www.w3.org/1999/xlink" xml:space="preserve"	x="0px" y="0px" width="400px" height="400px">	<g id="Layer%20117">		<path d="M 352.6909 152.2412 C 326.2876 67.9116 236.522 20.9551 152.1938 47.3594 C 67.8638 73.7617 20.9058 163.5264 47.3091 247.8569 C 48.3018 251.0264 49.3999 254.1328 50.5698 257.1943 C 50.5703 257.1968 50.5708 257.1987 50.5718 257.2012 C 50.6353 257.4019 50.7144 257.5928 50.7876 257.7871 C 50.8423 257.9287 50.897 258.0713 50.9512 258.2129 C 52.9653 262.8374 58.1792 265.2969 63.1021 263.7559 C 68.3755 262.106 71.3081 256.4956 69.6577 251.2241 C 69.5532 250.8882 69.4312 250.562 69.2944 250.2451 C 68.2446 247.5068 67.2749 244.7207 66.3853 241.8838 C 43.2808 168.0903 84.3726 89.5391 158.1646 66.4346 C 231.9585 43.3301 310.5093 84.4199 333.6147 158.2144 C 356.7202 232.0093 315.6274 310.5596 241.8345 333.6636 C 190.7544 349.6567 137.3989 334.8853 101.728 299.8037 C 101.4683 299.5479 101.2095 299.29 100.9512 299.0322 C 98.4126 296.7681 94.7886 295.8477 91.3062 296.938 C 86.0352 298.5884 83.1011 304.1987 84.7505 309.4688 C 85.3052 311.2417 86.3159 312.7417 87.603 313.9014 C 87.6021 313.8994 87.6011 313.8984 87.5991 313.8975 C 87.5923 313.9033 87.5874 313.9102 87.5815 313.917 C 128.3442 354.0977 189.3745 371.0361 247.8071 352.7397 C 332.1372 326.3369 379.0942 236.5718 352.6909 152.2412 Z" fill="#333333"/>		<g>			<path d="M 257.1496 195.6814 C 260.9436 199.3589 260.9501 205.2924 257.1694 208.9152 L 257.1694 208.9152 C 253.4025 212.5248 247.3094 212.4628 243.5548 208.7955 L 162.728 129.849 C 159.1495 126.3538 159.0821 120.5544 162.582 116.8773 L 162.582 116.8773 C 166.0944 113.1872 171.8756 113.0213 175.4904 116.5253 L 257.1496 195.6814 Z" fill="#333333"/>		</g>		<g>			<path d="M 242.3704 198.0728 C 246.046 194.2876 251.9763 194.281 255.5972 198.0531 L 255.5972 198.0531 C 259.2049 201.8114 259.1429 207.8905 255.4776 211.6365 L 176.573 292.2783 C 173.0796 295.8486 167.2833 295.9158 163.6082 292.4239 L 163.6082 292.4239 C 159.92 288.9195 159.7542 283.1516 163.2563 279.5451 L 242.3704 198.0728 Z" fill="#333333"/>		</g>	</g></svg>