<?xml version="1.0" standalone="no"?><!-- Generator: Adobe Fireworks CS6, Export SVG Extension by Aaron Beall (http://fireworks.abeall.com) . Version: 0.6.1  --><!DOCTYPE svg PUBLIC "-//W3C//DTD SVG 1.1//EN" "http://www.w3.org/Graphics/SVG/1.1/DTD/svg11.dtd"><svg id="Raichu-Icons.fw-student%20Copy" viewBox="0 0 400 400" style="background-color:#ffffff00" version="1.1"	xmlns="http://www.w3.org/2000/svg" xmlns:xlink="http://www.w3.org/1999/xlink" xml:space="preserve"	x="0px" y="0px" width="400px" height="400px">	<g id="Layer%20148">		<path d="M 201.8936 204.8721 C 245.3672 204.1597 280.3984 168.7183 280.3984 125.0718 C 280.3984 80.9805 244.6543 45.2383 200.5645 45.2383 C 156.4736 45.2383 120.7314 80.9805 120.7314 125.0718 C 120.7314 168.5918 155.5586 203.9517 198.8594 204.8623 C 122.0615 205.4766 59.9902 267.9121 59.9902 344.8589 L 60.0469 344.8589 C 60.0469 350.3823 64.5254 354.8589 70.0469 354.8589 C 75.5703 354.8589 80.0469 350.3823 80.0469 344.8589 C 80.0469 344.5503 80.0293 344.2476 80.002 343.9468 C 80.4932 278.0854 134.0264 224.8481 200 224.8481 C 266.2803 224.8481 320.0117 278.5776 320.0117 344.8589 C 320.0117 350.3823 324.4893 354.8589 330.0117 354.8589 C 335.5332 354.8589 340.0117 350.3823 340.0117 344.8589 C 340.0117 268.1636 278.3457 205.8867 201.8936 204.8721 ZM 140.6846 125.0718 C 140.6846 92.0005 167.4941 65.1914 200.5645 65.1914 C 233.6348 65.1914 260.4453 92.0005 260.4453 125.0718 C 260.4453 158.144 233.6348 184.9526 200.5645 184.9526 C 167.4941 184.9526 140.6846 158.144 140.6846 125.0718 Z" fill="#333333"/>		<path d="M 250 314.035 C 249.9444 315.2017 250 316 250 316 L 250 314.035 Z" fill="#333333"/>		<path d="M 223.15 330.23 C 222.4574 330.0782 221.7381 330 221 330 C 215.4771 330 211 334.4771 211 340 L 211 350 C 211 354.5 213.1667 360 220 360 C 226.8333 360 240 348 240 348 C 240 348 252.3333 359 260 359 C 267.6667 359 269 351 269 351 L 269 317 C 278.6667 307.1667 280 291 280 291 C 280 252.6667 240 251 240 251 C 222.1667 251 200 266 200 291 C 200 316 222.5 326.8333 226 328 C 229.5 329.1667 236.1667 331.1667 240 323 C 243.8333 314.8333 234 310 234 310 C 234 310 220 303.8333 220 291 C 220 278.1667 231.8333 271 240 271 C 248.1667 271 255.6667 274.8333 259 285 C 262.3333 295.1667 256.5 303.1667 253 306 C 250.6667 307.8889 250.1111 311.7017 250 314.035 L 250 316 L 250 336 C 250 336 246 330 240 330 C 234.5589 330 230.7651 334.9357 230.105 335.855 C 228.817 333.0319 226.2523 330.9099 223.15 330.23 Z" fill="#333333"/>	</g></svg>