<?xml version="1.0" standalone="no"?><!-- Generator: Adobe Fireworks CS6, Export SVG Extension by Aaron Beall (http://fireworks.abeall.com) . Version: 0.6.1  --><!DOCTYPE svg PUBLIC "-//W3C//DTD SVG 1.1//EN" "http://www.w3.org/Graphics/SVG/1.1/DTD/svg11.dtd"><svg id="Untitled-Page%201" viewBox="0 0 300 300" style="background-color:#ffffff00" version="1.1"	xmlns="http://www.w3.org/2000/svg" xmlns:xlink="http://www.w3.org/1999/xlink" xml:space="preserve"	x="0px" y="0px" width="300px" height="300px">	<path d="M 284.3484 282.4758 L 220.3295 218.168 C 216.8179 214.6411 211.143 214.6198 207.6015 218.0987 C 189.3304 232.1114 166.5117 240.4463 141.7499 240.4463 C 81.7534 240.4463 33.1154 191.5906 33.1154 131.3217 C 33.1154 71.0528 81.7534 22.1972 141.7499 22.1972 C 201.7463 22.1972 250.3842 71.0528 250.3842 131.3217 C 250.3842 146.6927 247.2139 161.3176 241.5046 174.5817 C 241.5215 174.5879 241.5435 174.5865 241.5612 174.5937 C 240.8204 175.9119 240.3925 177.4315 240.3925 179.0535 C 240.3925 184.0759 244.445 188.1472 249.4453 188.1472 C 253.5395 188.1472 256.9944 185.4164 258.1136 181.6702 C 258.1348 181.6777 258.164 181.6755 258.1835 181.6843 C 264.8158 166.2375 268.4997 149.2139 268.4997 131.3217 C 268.4997 61.0026 211.7513 4 141.7499 4 C 71.7484 4 15 61.0026 15 131.3217 C 15 201.6413 71.7484 258.643 141.7499 258.643 C 168.1941 258.643 192.7411 250.4995 213.0589 236.585 L 271.5444 295.3353 C 275.0815 298.8885 280.813 298.888 284.3492 295.3353 C 287.8837 291.7849 287.8837 286.0267 284.3484 282.4758 Z" fill="#333333"/>	<path d="M 147.5202 84.5717 C 147.5202 84.5717 162.0047 85.1779 162.0047 99.1216 C 162.0047 99.1216 161.5219 105.0022 158.0215 108.5791 L 158.0215 128.2215 C 158.0215 128.2215 157.5386 131.1315 154.7624 131.1315 C 151.9863 131.1315 147.5202 127.1303 147.5202 127.1303 C 147.5202 127.1303 142.7523 131.4953 140.2779 131.4953 C 137.8034 131.4953 137.0188 129.4946 137.0188 127.8578 C 137.0188 126.2209 137.0188 116.9453 137.0188 116.9453 C 137.0188 116.9453 137.5016 114.0353 140.2779 114.0353 C 143.0541 114.0353 143.899 116.0359 143.899 117.3091 C 143.899 118.5822 143.899 122.7653 143.899 122.7653 C 143.899 122.7653 145.3474 120.5828 147.5202 120.5828 C 149.6929 120.5828 151.1413 122.7653 151.1413 122.7653 L 151.1413 113.3078 L 151.1413 108.2154 C 151.1413 108.2154 150.9603 105.6085 152.2276 104.5779 C 153.495 103.5472 155.6074 100.6372 154.4003 96.9392 C 153.1933 93.241 150.4774 91.8467 147.5202 91.8467 C 144.5629 91.8467 140.2779 94.4535 140.2779 99.1216 C 140.2779 103.7898 145.3474 106.0329 145.3474 106.0329 C 145.3474 106.0329 148.9083 107.791 147.5202 110.7616 C 146.1321 113.7322 143.7179 113.0047 142.4506 112.5803 C 141.1832 112.1559 133.0356 108.2154 133.0356 99.1216 C 133.0356 90.0279 141.0624 84.5717 147.5202 84.5717 Z" fill="#333333"/>	<path d="M 158.8664 143.1534 L 158.8664 143.1352 L 158.5043 143.1352 C 158.6265 143.1352 158.7473 143.1415 158.8664 143.1534 ZM 158.8664 150.392 C 160.6963 150.2095 162.1254 148.6589 162.1254 146.7727 C 162.1254 144.8865 160.6963 143.3359 158.8664 143.1534 C 158.7473 143.1415 158.6265 143.1352 158.5043 143.1352 L 122.1721 143.1352 C 120.1722 143.1352 118.551 144.7637 118.551 146.7727 C 118.551 148.7816 120.1722 150.4102 122.1721 150.4102 L 158.5043 150.4102 C 158.6265 150.4102 158.7473 150.4039 158.8664 150.392 ZM 158.8664 150.4102 L 158.8664 150.392 C 158.7473 150.4039 158.6265 150.4102 158.5043 150.4102 L 158.8664 150.4102 Z" fill="#333333"/>	<path d="M 158.8664 157.3396 L 158.8664 157.3214 L 158.5043 157.3214 C 158.6265 157.3214 158.7473 157.3277 158.8664 157.3396 ZM 158.8664 164.5781 C 160.6963 164.3957 162.1254 162.845 162.1254 160.9589 C 162.1254 159.0727 160.6963 157.5221 158.8664 157.3396 C 158.7473 157.3277 158.6265 157.3214 158.5043 157.3214 L 122.1721 157.3214 C 120.1722 157.3214 118.551 158.9499 118.551 160.9589 C 118.551 162.9678 120.1722 164.5963 122.1721 164.5963 L 158.5043 164.5963 C 158.6265 164.5963 158.7473 164.59 158.8664 164.5781 ZM 158.8664 164.5963 L 158.8664 164.5781 C 158.7473 164.59 158.6265 164.5963 158.5043 164.5963 L 158.8664 164.5963 Z" fill="#333333"/>	<path d="M 96.8241 182.7838 L 96.8241 183.1476 L 96.8422 183.1476 C 96.8304 183.0279 96.8241 182.9065 96.8241 182.7838 ZM 100.4453 70.0218 L 100.0831 70.0218 L 100.0831 70.04 C 100.2022 70.0281 100.323 70.0218 100.4453 70.0218 ZM 180.4726 70.04 L 180.4726 70.0218 L 180.1105 70.0218 C 180.2327 70.0218 180.3535 70.0281 180.4726 70.04 ZM 176.5075 183.1476 C 176.6891 184.9857 178.2327 186.4213 180.1105 186.4213 C 181.9229 186.4213 183.4244 185.0845 183.6899 183.3385 L 183.7506 183.3623 L 205.0964 133.6777 L 204.9968 133.6377 C 205.2908 133.1119 205.4585 132.5051 205.4585 131.859 C 205.4585 129.85 203.8373 128.2215 201.8374 128.2215 C 201.4589 128.2215 201.094 128.2807 200.751 128.3888 L 200.751 128.2215 L 190.9739 128.2215 C 188.974 128.2215 187.3527 129.85 187.3527 131.859 C 187.3527 133.868 188.974 135.4965 190.9739 135.4965 L 196.1648 135.4965 L 183.7316 164.4346 L 183.7316 73.6593 C 183.7316 71.7731 182.3025 70.2225 180.4726 70.04 C 180.3535 70.0281 180.2327 70.0218 180.1105 70.0218 L 100.4453 70.0218 C 100.323 70.0218 100.2022 70.0281 100.0831 70.04 C 98.2532 70.2225 96.8241 71.7731 96.8241 73.6593 L 96.8241 182.7838 C 96.8241 182.9065 96.8304 183.0279 96.8422 183.1476 C 97.0239 184.9857 98.5676 186.4213 100.4453 186.4213 L 158.3836 186.4213 C 160.3835 186.4213 162.0047 184.7928 162.0047 182.7838 C 162.0047 180.7749 160.3835 179.1463 158.3836 179.1463 L 104.0664 179.1463 L 104.0664 77.2967 L 176.4893 77.2967 L 176.4893 182.7838 C 176.4893 182.9065 176.4957 183.0279 176.5075 183.1476 ZM 176.4893 183.1476 L 176.5075 183.1476 C 176.4957 183.0279 176.4893 182.9065 176.4893 182.7838 L 176.4893 183.1476 Z" fill="#333333"/></svg>