<?xml version="1.0" standalone="no"?><!-- Generator: Adobe Fireworks CS6, Export SVG Extension by Aaron Beall (http://fireworks.abeall.com) . Version: 0.6.1  --><!DOCTYPE svg PUBLIC "-//W3C//DTD SVG 1.1//EN" "http://www.w3.org/Graphics/SVG/1.1/DTD/svg11.dtd"><svg id="Raichu-Icons.fw-home" viewBox="0 0 400 400" style="background-color:#ffffff00" version="1.1"	xmlns="http://www.w3.org/2000/svg" xmlns:xlink="http://www.w3.org/1999/xlink" xml:space="preserve"	x="0px" y="0px" width="400px" height="400px">	<g id="Layer%201107">		<path d="M 940 -165 " stroke="#000000" stroke-width="1" fill="none"/>		<path d="M 239.855 279.775 L 239.855 348.865 L 239.856 349.833 C 239.856 355.3165 244.3316 359.8062 249.8091 359.833 L 249.856 359.833 L 308.8091 359.833 C 314.3091 359.833 318.8091 355.333 318.8091 349.833 C 318.8091 344.333 314.3091 339.833 308.8091 339.833 L 259.855 339.835 L 259.856 269.833 C 259.856 264.3491 255.383 259.8612 249.905 259.835 C 249.5534 259.7971 249.1957 259.7759 248.8345 259.7759 L 149.8345 259.7759 C 147.9241 259.7759 146.1324 260.3208 144.61 261.26 C 141.6976 263.013 139.7407 266.2043 139.7407 269.833 L 139.74 339.835 L 59.935 339.835 L 59.935 194.675 L 200.04 63.015 L 339.225 193.81 L 339.2246 329.4009 C 339.2246 334.9009 343.7246 339.4009 349.2246 339.4009 C 354.7246 339.4009 359.2246 334.9009 359.2246 329.4009 L 359.225 191.905 C 359.9378 188.6752 359.0444 185.1531 356.5454 182.6538 L 207.2661 42.375 C 205.2822 40.391 202.6549 39.4198 200.04 39.46 C 197.4251 39.4198 194.7965 40.391 192.8125 42.375 L 43.5332 182.6538 C 43.3797 182.8074 43.2314 182.9641 43.09 183.125 C 41.1495 184.952 39.9341 187.5417 39.9341 190.4009 L 39.9341 349.4009 C 39.9341 352.9796 41.8388 356.1372 44.685 357.905 C 46.3396 359.1176 48.3771 359.833 50.5737 359.833 L 149.5737 359.833 L 149.7407 359.833 C 155.2407 359.833 159.7407 355.333 159.7407 349.833 L 159.74 279.775 L 239.855 279.775 ZM 239.8091 349.833 C 239.8091 355.333 244.3091 359.833 249.8091 359.833 C 244.3316 359.8062 239.856 355.3165 239.856 349.833 L 239.855 348.865 C 239.824 349.1838 239.8091 349.5064 239.8091 349.833 Z" fill="#323232"/>	</g></svg>