<?xml version="1.0" standalone="no"?><!-- Generator: Adobe Fireworks CS6, Export SVG Extension by Aaron Beall (http://fireworks.abeall.com) . Version: 0.6.1  --><!DOCTYPE svg PUBLIC "-//W3C//DTD SVG 1.1//EN" "http://www.w3.org/Graphics/SVG/1.1/DTD/svg11.dtd"><svg id="Raichu-Icons.fw-notification" viewBox="0 0 400 400" style="background-color:#ffffff00" version="1.1"	xmlns="http://www.w3.org/2000/svg" xmlns:xlink="http://www.w3.org/1999/xlink" xml:space="preserve"	x="0px" y="0px" width="400px" height="400px">	<g id="Layer%20197">		<path d="M 129.5 319 L 160 319.0723 L 160 322 L 160.35 322 C 161.7756 331.296 168.6528 359 200 359 C 230.3916 359 237.7792 332.3102 239.5 322 L 240 322 L 240 319.2618 L 340.5 319.5 C 348.6667 319.5 356.3333 311 358 306 C 359.6667 301 362 290.3333 350 282 C 338 273.6667 327 272.6667 306 241 C 285 209.3333 298 159 298 159 C 298 159 306.6667 112 280 79 C 253.3333 46 220 42 220 42 C 220 18.6667 200 19 200 19 C 181.6667 19.3333 181 41 181 41 C 159.6667 43.3333 137.3333 58 120 79 C 102.6667 100 97 133.6667 103 159 C 109 184.3333 106.3333 212.6667 95 239 C 83.6667 265.3333 53.6667 279.6667 47 284 C 40.3333 288.3333 39.3333 299 42 308 C 44.6667 317 56.6667 319 64 319 C 71.3333 319 75.6667 317.6667 78 313 C 80.3333 308.3333 78.5 303 75.75 301.25 C 71.1376 298.3148 66 299 66 299 C 66 299 89.6667 296 115 248 C 140.3333 200 123 155 123 155 C 123 155 110.6667 116.6667 140 87 C 169.3333 57.3333 200 59 200 59 C 200 59 228.3333 55.3333 260 87 C 291.6667 118.6667 272 168 272 168 C 272 168 262.5 216 285 250 C 309.1126 286.4369 334.5 299.5 334.5 299.5 L 270.5 299.345 L 270.5 299 L 240 299.0726 L 228 299 C 228 299 220 300.9512 220 309.7317 L 220 313 L 220 318 C 220 318 218.6667 339 200 339 C 181.3333 339 180 316 180 316 L 180 313 L 180 310 C 180 301 172 299 172 299 L 160 299.0744 L 129.5 299 L 129.5 299.5 C 129.5 299.5 120 299 120 309 C 120 319 129.5 319.5 129.5 319.5 L 129.5 319 Z" fill="#333333"/>	</g></svg>