<?xml version="1.0" standalone="no"?><!-- Generator: Adobe Fireworks CS6, Export SVG Extension by Aaron Beall (http://fireworks.abeall.com) . Version: 0.6.1  --><!DOCTYPE svg PUBLIC "-//W3C//DTD SVG 1.1//EN" "http://www.w3.org/Graphics/SVG/1.1/DTD/svg11.dtd"><svg id="Raichu-Icons.fw-exclamation-bold" viewBox="0 0 400 400" style="background-color:#ffffff00" version="1.1"	xmlns="http://www.w3.org/2000/svg" xmlns:xlink="http://www.w3.org/1999/xlink" xml:space="preserve"	x="0px" y="0px" width="400px" height="400px">	<g id="Layer%2012">		<path d="M 200.2307 39.4996 C 111.8652 39.4996 40.2307 111.1339 40.2307 199.4996 C 40.2307 223.6944 45.6113 246.6295 55.2246 267.1886 C 55.4436 267.6554 55.6563 268.1251 55.8789 268.5895 C 59.1758 275.1056 65.917 279.5831 73.7188 279.5831 C 84.7646 279.5831 93.7188 270.629 93.7188 259.5831 C 93.7188 256.378 92.9463 253.36 91.6057 250.6744 L 91.6064 250.6759 C 91.6184 250.6744 91.6279 250.6695 91.6406 250.669 C 84.3125 235.1451 80.2014 217.8048 80.2014 199.4996 C 80.2014 133.2096 133.9404 79.4708 200.2307 79.4708 C 266.5205 79.4708 320.26 133.2096 320.26 199.4996 C 320.26 265.7897 266.5205 319.5284 200.2307 319.5284 C 181.9063 319.5284 164.5459 315.4156 149.01 308.0738 C 148.7324 307.9425 148.4514 307.8165 148.1748 307.6832 C 145.8086 306.6979 143.2148 306.149 140.4922 306.149 C 129.4475 306.149 120.4922 315.1036 120.4922 326.149 C 120.4922 334.4542 125.5559 341.5738 132.7627 344.5973 C 132.7607 344.6007 132.7588 344.6031 132.7578 344.6061 C 153.2607 354.1568 176.1201 359.4996 200.2307 359.4996 C 288.5957 359.4996 360.2307 287.8653 360.2307 199.4996 C 360.2307 111.1339 288.5957 39.4996 200.2307 39.4996 Z" fill="#333333"/>		<path d="M 200.2307 239.4048 C 189.1858 239.4048 180.2307 230.4507 180.2307 219.4048 L 180.2307 120.8003 C 180.2307 109.7544 189.1858 100.8003 200.2307 100.8003 L 200.2307 100.8003 C 211.2776 100.8003 220.2307 109.7544 220.2307 120.8003 L 220.2307 219.4048 C 220.2307 230.4507 211.2776 239.4048 200.2307 239.4048 L 200.2307 239.4048 Z" fill="#333333"/>		<path d="M 220.3196 279.0601 C 220.3196 290.155 211.3254 299.1492 200.2307 299.1492 C 189.1357 299.1492 180.1416 290.155 180.1416 279.0601 C 180.1416 267.9652 189.1357 258.971 200.2307 258.971 C 211.3254 258.971 220.3196 267.9652 220.3196 279.0601 Z" fill="#333333"/>	</g></svg>