<?xml version="1.0" standalone="no"?><!-- Generator: Adobe Fireworks CS6, Export SVG Extension by Aaron Beall (http://fireworks.abeall.com) . Version: 0.6.1  --><!DOCTYPE svg PUBLIC "-//W3C//DTD SVG 1.1//EN" "http://www.w3.org/Graphics/SVG/1.1/DTD/svg11.dtd"><svg id="Untitled-Page%201" viewBox="0 0 320 320" style="background-color:#ffffff00" version="1.1"	xmlns="http://www.w3.org/2000/svg" xmlns:xlink="http://www.w3.org/1999/xlink" xml:space="preserve"	x="0px" y="0px" width="320px" height="320px">	<path d="M 61.7676 258.2847 C 58.9688 263.0313 52.8535 264.6104 48.1055 261.812 L 48.1055 261.812 C 43.3604 259.0137 41.7813 252.8975 44.5801 248.1509 L 99.1523 163.2949 C 101.9512 158.5488 108.0664 156.9697 112.8125 159.7681 L 112.8125 159.7681 C 117.5596 162.5664 119.1387 168.6826 116.3398 173.4287 L 61.7676 258.2847 Z" fill="#ffffff"/>	<path d="M 226.5127 187.7417 C 231.2588 190.5405 232.8379 196.6558 230.0391 201.4028 L 230.0391 201.4028 C 227.2412 206.1489 221.125 207.728 216.3789 204.9292 L 142.5215 158.3569 C 137.7764 155.5581 136.1973 149.4429 138.9961 144.6968 L 138.9961 144.6968 C 141.7939 139.9497 147.9102 138.3706 152.6563 141.1694 L 226.5127 187.7417 Z" fill="#ffffff"/>	<path d="M 261.0361 67.1733 C 261.917 61.7349 267.0391 58.0391 272.4785 58.9189 L 272.4785 58.9189 C 277.917 59.7993 281.6123 64.9224 280.7324 70.3613 L 254.665 191.522 C 253.7852 196.9609 248.6631 200.6567 243.2227 199.7759 L 243.2227 199.7759 C 237.7842 198.896 234.0879 193.7734 234.9688 188.3345 L 261.0361 67.1733 Z" fill="#ffffff"/>	<path d="M 119.0176 120.376 C 108.1494 120.376 99.3379 129.1865 99.3379 140.0542 C 99.3379 150.9224 108.1494 159.7329 119.0176 159.7329 C 129.8848 159.7329 138.6953 150.9224 138.6953 140.0542 C 138.6953 129.1865 129.8848 120.376 119.0176 120.376 ZM 119.0166 179.9351 C 96.9922 179.9351 79.1367 162.0796 79.1367 140.0547 C 79.1367 118.0293 96.9922 100.1738 119.0166 100.1738 C 141.043 100.1738 158.8975 118.0293 158.8975 140.0547 C 158.8975 162.0796 141.043 179.9351 119.0166 179.9351 Z" fill="#ffffff"/>	<path d="M 239.6387 200.0049 C 228.7715 200.0049 219.9609 208.8154 219.9609 219.6831 C 219.9609 230.5513 228.7715 239.3618 239.6387 239.3618 C 250.5059 239.3618 259.3174 230.5513 259.3174 219.6831 C 259.3174 208.8154 250.5059 200.0049 239.6387 200.0049 ZM 239.6387 259.564 C 217.6143 259.564 199.7588 241.7085 199.7588 219.6836 C 199.7588 197.6582 217.6143 179.8027 239.6387 179.8027 C 261.665 179.8027 279.5195 197.6582 279.5195 219.6836 C 279.5195 241.7085 261.665 259.564 239.6387 259.564 Z" fill="#ffffff"/>	<path d="M 56.9063 243.9155 C 57.4453 244.1748 57.9756 244.4487 58.501 244.731 C 57.9971 244.4146 57.4658 244.1396 56.9063 243.9155 Z" fill="#ffffff"/>	<path d="M 240.6992 47.7734 C 242.2432 52.3862 246.957 55.3081 251.8936 54.4429 C 257.333 53.4907 260.9707 48.3071 260.0186 42.8672 C 259.9521 42.4956 259.8643 42.1343 259.7607 41.7813 C 259.7852 41.7788 259.7988 41.7847 259.8271 41.7788 C 259.4531 32.0933 266.6172 22.4517 276.4297 20.7329 C 287.1348 18.8579 297.333 26.0161 299.208 36.7207 C 301.084 47.4258 293.9258 57.6245 283.2188 59.5 C 280.4111 59.9917 277.2705 59.8833 274.6719 59.2305 C 274.626 59.333 274.9502 59.4009 274.9043 59.5029 C 273.207 58.7988 271.2998 58.5439 269.3545 58.8848 C 263.915 59.8374 260.2773 65.0195 261.2295 70.4595 C 261.8467 73.9771 264.2354 76.7319 267.3154 77.9878 C 267.8809 78.1748 268.4502 78.3535 269.0264 78.5166 C 274.6055 80.0898 280.6152 80.4648 286.707 79.3989 C 308.4004 75.5991 322.9082 54.9302 319.1074 33.2344 C 315.3076 11.54 294.6387 -2.9663 272.9443 0.8335 C 252.1582 4.4756 237.9844 23.5991 240.1719 44.2729 C 240.1504 44.9463 240.1973 45.6294 240.3184 46.3179 C 240.4043 46.8208 240.542 47.3027 240.6992 47.7734 ZM 259.5469 41.145 C 259.5303 41.0991 259.5176 41.0508 259.499 41.0044 C 259.5596 40.9922 259.5615 41.0542 259.5469 41.145 Z" fill="#ffffff"/>	<path d="M 79.4805 278.3765 C 78.6719 273.5815 74.4668 269.9648 69.4551 270.0547 C 63.9346 270.1509 59.5371 274.709 59.6348 280.23 C 59.6426 280.6064 59.6748 280.9761 59.7217 281.3428 C 59.6963 281.3423 59.6836 281.3325 59.6553 281.3345 C 58.5234 290.96 49.9512 299.376 39.9912 299.5522 C 29.126 299.7451 20.1592 291.0923 19.9658 280.2266 C 19.7734 269.3608 28.4258 260.395 39.292 260.2012 C 42.1445 260.1509 45.2305 260.7451 47.6963 261.793 C 47.7578 261.6992 47.4463 261.5811 47.5088 261.4873 C 49.0762 262.4473 50.9219 262.9956 52.8955 262.9595 C 58.417 262.8613 62.8135 258.3047 62.7158 252.7822 C 62.6523 249.2124 60.7188 246.1211 57.8711 244.4028 C 57.3418 244.1294 56.8047 243.8657 56.2627 243.6152 C 50.9951 241.1968 45.1143 239.8926 38.9316 240.0029 C 16.9111 240.394 -0.624 258.5649 -0.2324 280.5864 C 0.1592 302.6079 18.3291 320.1431 40.3506 319.7505 C 61.4492 319.3765 78.416 302.6802 79.459 281.916 C 79.585 281.2554 79.6455 280.5732 79.6328 279.8745 C 79.623 279.3623 79.5635 278.8667 79.4805 278.3765 ZM 59.834 282.0039 C 59.8438 282.0527 59.8486 282.1016 59.8604 282.1494 C 59.7979 282.1533 59.8047 282.0923 59.834 282.0039 Z" fill="#ffffff"/></svg>