<?xml version="1.0" standalone="no"?><!-- Generator: Adobe Fireworks CS6, Export SVG Extension by Aaron Beall (http://fireworks.abeall.com) . Version: 0.6.1  --><!DOCTYPE svg PUBLIC "-//W3C//DTD SVG 1.1//EN" "http://www.w3.org/Graphics/SVG/1.1/DTD/svg11.dtd"><svg id="Raichu-Icons.fw-idea" viewBox="0 0 400 400" style="background-color:#ffffff00" version="1.1"	xmlns="http://www.w3.org/2000/svg" xmlns:xlink="http://www.w3.org/1999/xlink" xml:space="preserve"	x="0px" y="0px" width="400px" height="400px">	<g id="Layer%20164">		<path d="M 267.4053 116.5889 C 266.3027 114.5498 264.9141 112.6313 263.8018 111.1582 C 260.2598 106.4712 255.9883 102.2656 251.498 98.4912 C 242.7715 91.1548 232.248 85.5483 221.2373 82.5488 C 219.6143 82.1064 201.6035 79.1963 201.6035 79.7896 C 201.6035 79.8506 201.6045 79.9121 201.6045 79.9741 C 196.374 80.2988 192.2305 84.6309 192.2305 89.9424 C 192.2305 95.0288 196.0303 99.2188 200.9453 99.8506 C 200.9404 99.9263 200.9336 100.0015 200.9277 100.0771 C 217.4033 100.3325 232.8818 107.3804 244.0439 119.418 C 248.4785 124.1992 251.6924 132.6089 259.2979 132.6089 C 264.8213 132.6089 269.2979 128.1318 269.2979 122.6079 C 269.2979 120.4785 268.4014 118.4316 267.4053 116.5889 Z" fill="#323232"/>		<path d="M 199.9805 40.4458 C 133.7578 40.4458 80.0742 94.1289 80.0742 160.3521 C 80.0742 190.5913 91.2725 218.2119 109.7422 239.3047 C 113.6992 243.8228 117.9902 248.0386 122.5752 251.9189 C 122.6602 252.0146 122.7227 252.0869 122.7383 252.106 C 126.8164 257.1494 131.0127 262.0273 134.3076 267.709 C 136.1143 270.8247 138.0859 273.9922 139.2861 277.4038 C 139.998 279.4263 140.3398 281.5391 140.4795 283.6733 C 140.582 285.2559 140.5742 286.8218 140.5156 288.3813 C 140.4912 289.0298 140.459 289.6772 140.4199 290.3242 C 140.6621 295.7705 145.1406 300.1143 150.6465 300.1143 L 159.4951 300.1143 L 188.4404 300.1143 C 194.1016 300.1143 198.6904 295.5254 198.6904 289.8643 C 198.6904 284.2031 194.1016 279.6143 188.4404 279.6143 L 162.7578 279.6143 C 162.832 278.7788 162.876 277.9375 162.876 277.0874 C 162.876 276.1709 162.834 275.2651 162.7734 274.3643 C 162.3604 268.2256 160.5645 262.4697 157.6914 257.3999 C 153.6475 250.2646 146.9609 245.4468 140.4463 240.606 C 138.7852 239.1187 137.0332 237.7314 135.2129 236.4351 C 113.7031 218.1069 100.0586 190.8247 100.0586 160.3521 C 100.0586 105.1665 144.7949 60.4302 199.9805 60.4302 C 255.166 60.4302 299.9023 105.1665 299.9023 160.3521 C 299.9023 175.6084 296.4668 190.5444 289.6758 204.1816 C 286.373 210.8145 282.5762 217.3008 277.9688 223.1182 C 271.5293 231.249 262.8418 237.1035 255.082 243.854 C 254.4287 244.4224 253.7822 244.9971 253.1436 245.5815 C 249.0781 249.2988 244.6543 252.8271 241.8691 257.6748 C 238.9199 262.8047 237.1699 268.6187 236.7334 274.5146 C 236.6602 275.5024 236.6104 276.4971 236.6104 277.5039 C 236.6104 284.1914 239.2383 290.5596 239.8652 297.1587 C 240.4385 303.1963 239.1953 309.7988 236.9336 315.4014 C 235.5498 318.8276 233.5107 322.1055 231.2119 324.9946 C 223.8193 334.2871 213.1396 339.4258 202.1504 340.0693 C 192.6348 340.6274 182.8857 337.8159 174.8389 331.4141 C 171.3135 328.6094 168.293 325.1948 165.877 321.397 C 165.543 320.8716 165.2227 320.3379 164.9121 319.7979 C 163.0908 317.3354 160.1748 315.7314 156.876 315.7314 C 151.3525 315.7314 146.876 320.2085 146.876 325.7314 C 146.876 327.0303 147.1309 328.2671 147.582 329.4053 C 148.1025 330.3325 148.6426 331.251 149.2148 332.1538 C 152.6953 337.6401 157.1309 342.6504 162.501 346.9233 C 188.4063 367.5317 226.1123 363.2378 246.7207 337.333 C 249.2334 334.1738 251.3496 330.8311 253.1396 327.3823 C 253.2461 327.1763 254.0752 325.9023 254.71 324.458 C 254.9814 323.8408 255.2383 323.1997 255.4707 322.5947 C 256.8232 319.5034 257.9404 316.4131 258.7813 313.3096 C 260.5742 306.6919 260.5957 299.2661 260.3398 292.4717 C 260.1475 287.3613 259.6592 282.0688 261.5117 277.1787 C 264.625 268.96 270.1592 261.063 275.9102 254.4873 C 276.208 254.1465 280.3955 250.0151 280.1387 249.5273 C 282.8076 247.1284 286.168 243.9214 289.8477 239.7563 C 293.2969 235.8511 297.0273 231.104 300.7393 225.3618 C 312.8496 206.6318 319.8867 184.3154 319.8867 160.3521 C 319.8867 94.1289 266.2031 40.4458 199.9805 40.4458 Z" fill="#323232"/>	</g></svg>