<?xml version="1.0" encoding="utf-8"?>
<!-- Generator: Adobe Illustrator 19.1.0, SVG Export Plug-In . SVG Version: 6.00 Build 0)  -->
<svg version="1.1" id="Raichu-Icons.fw-location_x25_20Copy"
	 xmlns="http://www.w3.org/2000/svg" xmlns:xlink="http://www.w3.org/1999/xlink" x="0px" y="0px" viewBox="-279 81 400 400"
	 style="enable-background:new -279 81 400 400;" xml:space="preserve">
<style type="text/css">
	.st0{fill:none;}
	.st1{fill:#E54500;}
</style>
<path class="st0" d="z"/>
<path class="st0" d="z"/>
<path class="st1" d="M-236.7,302.3c0,2,1.5,8.5,3.5,16.1c0.6,2.1,1.2,4.4,1.8,6.6c1.7,6,3.5,12,5,16.6c34.9,74.5,94.6,99.4,148,99.4
	C7.9,441,82,372.7,82,279.5c0-59.8-32.1-112.7-82.2-140c-23.2-13.2-49.9-20.8-78.5-20.8c-88,0-159.3,71.9-159.3,160.5
	c0,7,0.4,13.9,1.3,20.6V302.3z M-148.3,225.6h-51.4c12.3-37.3,57.6-72.5,90.5-76.6C-127.7,169.7-142.1,202.9-148.3,225.6z
	 M-66.1,169.7c12.3,16.6,22.6,37.3,28.8,55.9c-16.4,4.1-26.7,29-41.1,43.5l-41.1-43.5c4.1-14.5,24.7-68.3,41.1-68.3
	C-72.2,157.3-68.1,165.6-66.1,169.7z M-29.1,320.9h-98.7c-2.1-8.3,0-55.9,0-64.2c6.2,6.2,41.1,45.6,49.3,45.6
	c12.3,0,45.2-45.6,49.3-49.7C-29.1,271.2-20.8,294-29.1,320.9z M-35.2,347.8c-6.2,10.4-26.7,55.9-43.2,55.9
	c-14.4,0-41.1-53.8-41.1-55.9H-35.2z M-113.8,409.4c-33.2-9.1-61.3-30.7-78.9-59.5c-0.3-0.7-0.5-1.4-0.8-2.2h45.2
	C-142.2,368.4-134,388.9-113.8,409.4z M36.7,347.8c-8.5,14.4-19.5,27.1-32.5,37.4c-1.3,1-2.7,2.1-4,3.1
	c-12.5,9.2-26.6,16.2-41.8,20.6c15.3-25,25.2-39.2,35.1-61.1L36.7,347.8z M52.7,252.6c1.7,8.6,2.6,17.5,2.6,26.6
	c0,14.5-2.3,28.6-6.5,41.7l-49.1,0c0-2.1,2.1-6.2,2.1-47.6c0-8.3-2.1-14.5-4.1-20.7L52.7,252.6z M-33,152.3c2.3,0.9,4.7,1.8,6.9,2.8
	c14.1,6.2,29.7,16.8,42.8,29.5c11.5,11.8,20.9,25.7,27.5,41.1l-52.8,0c-8.2-22.8-18.5-55.9-39.1-76.6
	C-43.2,149.3-38.2,150.5-33,152.3z M-211.2,259.2c0.3-2.2,0.7-4.5,1.2-6.7l53.5,0c0,20.7-2.1,39.3,0,68.3h-49.3
	c-2.1-12.4-6.2-35.2-6.2-41.4C-212,276.3-210.8,267.1-211.2,259.2z M-233.2,318.4c0.6,2.2,1.1,4.4,1.8,6.6
	C-232.1,322.7-232.7,320.5-233.2,318.4z"/>
</svg>
