<?xml version="1.0" standalone="no"?><!-- Generator: Adobe Fireworks CS6, Export SVG Extension by Aaron Beall (http://fireworks.abeall.com) . Version: 0.6.1  --><!DOCTYPE svg PUBLIC "-//W3C//DTD SVG 1.1//EN" "http://www.w3.org/Graphics/SVG/1.1/DTD/svg11.dtd"><svg id="Raichu-Icons.fw-tool" viewBox="0 0 400 400" style="background-color:#ffffff00" version="1.1"	xmlns="http://www.w3.org/2000/svg" xmlns:xlink="http://www.w3.org/1999/xlink" xml:space="preserve"	x="0px" y="0px" width="400px" height="400px">	<g id="Layer%201114">		<path d="M 144.2544 402.9756 L 144.2544 402.9756 Z" fill="#323232"/>		<path d="M 136.1084 405.2266 L 136.1084 405.2266 Z" fill="#323232"/>		<path d="M 179.9907 140.0356 L 180.0952 289.3833 C 180.0996 294.8652 175.6172 299.354 170.1362 299.3574 L 170.1362 299.3574 C 164.6563 299.3623 160.1646 294.8818 160.1636 289.3984 L 160.0576 140.0508 C 160.0547 134.5674 164.5356 130.0811 170.0166 130.0757 L 170.0166 130.0757 C 175.4985 130.0723 179.9863 134.5547 179.9907 140.0356 Z" fill="#323232"/>		<path d="M 239.7686 110.0957 L 239.8721 259.4409 C 239.8765 264.9238 235.394 269.4116 229.9121 269.416 L 229.9121 269.416 C 224.4321 269.4199 219.9434 264.9404 219.9404 259.46 L 219.8345 110.1094 C 219.8315 104.6274 224.3135 100.1421 229.7944 100.1357 L 229.7944 100.1357 C 235.2759 100.1313 239.7642 104.6143 239.7686 110.0957 Z" fill="#323232"/>		<path d="M 179.8765 70.2988 C 179.8809 75.7695 175.4512 80.2041 169.9819 80.207 C 164.5142 80.2114 160.0791 75.7832 160.0762 70.314 C 160.0708 64.8457 164.501 60.4102 169.9702 60.4067 C 175.436 60.4023 179.873 64.832 179.8765 70.2988 Z" fill="#323232"/>		<path d="M 239.6748 70.2588 C 239.6792 75.7261 235.25 80.1621 229.7798 80.1641 C 224.3125 80.1694 219.8765 75.7402 219.8726 70.2729 C 219.8701 64.8047 224.2974 60.3691 229.7666 60.3647 C 235.2349 60.3604 239.6704 64.79 239.6748 70.2588 Z" fill="#323232"/>		<path d="M 210.1206 110.0967 C 210.1235 115.5625 205.6943 119.998 200.2251 120.0029 C 194.7593 120.0059 190.3223 115.5776 190.3188 110.1084 C 190.3149 104.6406 194.7451 100.207 200.2124 100.2002 C 205.6802 100.1982 210.1152 104.6274 210.1206 110.0967 Z" fill="#323232"/>		<path d="M 229.6353 40.4678 C 229.146 40.4697 228.6641 40.4902 228.1782 40.5073 C 228.1802 40.5361 228.1782 40.5645 228.1792 40.5938 C 228.6543 40.5205 229.1406 40.4707 229.6353 40.4678 Z" fill="#323232"/>		<path d="M 229.6641 40.4663 C 229.6533 40.4678 229.645 40.4688 229.6353 40.4678 C 229.6479 40.4688 229.6611 40.4678 229.6738 40.4663 C 229.6719 40.4678 229.6675 40.4663 229.6641 40.4663 Z" fill="#323232"/>		<path d="M 229.6934 40.4663 C 229.687 40.4678 229.6792 40.4688 229.6738 40.4663 C 229.6611 40.4678 229.6479 40.4688 229.6353 40.4678 C 224.1802 40.4883 219.7666 44.916 219.772 50.375 C 219.7754 55.8105 224.1606 60.2158 229.5845 60.2637 C 229.5845 60.3086 229.5854 60.354 229.5845 60.3994 C 229.6274 60.3994 229.6675 60.3926 229.7075 60.3936 C 240.6577 60.3843 249.541 69.2559 249.5498 80.2051 C 249.5562 91.1543 240.6855 100.0386 229.7354 100.0459 C 229.6265 100.0469 229.522 100.0322 229.4131 100.0303 C 229.4141 100.0723 229.4141 100.1152 229.4131 100.1563 C 224.1079 100.3643 219.8306 104.7568 219.8345 110.1094 L 219.8413 118.7344 C 223.0083 119.5449 226.3286 119.9736 229.7505 119.9727 C 233.2129 119.9692 236.5713 119.522 239.7739 118.688 C 256.8716 114.2314 269.4878 98.6826 269.4751 80.1919 C 269.459 58.2373 251.6479 40.4512 229.6934 40.4663 Z" fill="#323232"/>		<path d="M 169.9854 40.5088 C 169.9897 40.5088 169.9985 40.5088 170.0049 40.5098 C 170.0166 40.5098 170.0308 40.5107 170.0444 40.5107 C 175.4985 40.5225 179.916 44.9453 179.9214 50.4004 C 179.9238 55.8374 175.5454 60.2505 170.1211 60.3047 C 170.1221 60.3506 170.1211 60.396 170.1211 60.4424 C 170.0781 60.4404 170.0391 60.4346 169.9985 60.4346 C 159.0488 60.4434 150.1777 69.3257 150.1851 80.2764 C 150.1938 91.2256 159.0771 100.0957 170.0264 100.0869 C 170.1343 100.0879 170.2397 100.0732 170.3477 100.0723 C 170.3496 100.1143 170.3486 100.1563 170.3496 100.1982 C 175.6538 100.3965 179.9365 104.7837 179.9409 110.1387 L 179.9473 118.7622 C 176.7803 119.5762 173.4619 120.0127 170.0405 120.0146 C 166.5757 120.0166 163.2173 119.5737 160.0146 118.7432 C 142.9106 114.3115 130.2729 98.7798 130.2598 80.2891 C 130.2437 58.3359 148.0317 40.5225 169.9854 40.5088 Z" fill="#323232"/>		<path d="M 239.6748 70.2588 L 219.7842 70.2729 L 219.772 50.375 L 239.6606 50.3604 L 239.6748 70.2588 Z" fill="#323232"/>		<path d="M 179.9194 70.2988 L 160.0298 70.314 L 160.0166 50.4146 L 179.9053 50.4023 L 179.9194 70.2988 Z" fill="#323232"/>		<path d="M 170.0024 80.251 L 169.9878 60.3623 L 230.3818 60.3203 L 230.397 80.209 L 170.0024 80.251 Z" fill="#323232"/>		<path d="M 170.0283 120.0674 L 170.0156 100.1787 L 200.2124 100.1572 L 200.2251 120.0459 L 170.0283 120.0674 Z" fill="#323232"/>		<path d="M 189.582 289.4639 C 189.5757 283.9961 194.0049 279.5615 199.4751 279.5566 C 204.9434 279.5527 209.377 283.9844 209.3813 289.4502 C 209.3877 294.9194 204.9561 299.354 199.4893 299.3584 C 194.022 299.3623 189.5854 294.9336 189.582 289.4639 Z" fill="#323232"/>		<path d="M 229.6729 279.4922 L 229.687 299.3799 L 199.4902 299.4033 L 199.4751 279.5137 L 229.6729 279.4922 Z" fill="#323232"/>		<path d="M 220.0254 329.3135 C 220.021 323.8477 224.4536 319.4121 229.9194 319.4053 C 235.3867 319.4063 239.8237 323.8335 239.8276 329.3008 C 239.8311 334.7686 235.4009 339.2056 229.9336 339.207 C 224.4663 339.2109 220.0288 334.7827 220.0254 329.3135 Z" fill="#323232"/>		<path d="M 160.2271 329.3564 C 160.2236 323.8887 164.6528 319.4541 170.1191 319.4482 C 175.5894 319.4473 180.0249 323.877 180.0293 329.3438 C 180.0327 334.812 175.6035 339.2466 170.1353 339.2529 C 164.667 339.2529 160.23 334.8252 160.2271 329.3564 Z" fill="#323232"/>		<path d="M 169.5112 329.3506 C 169.5068 323.8809 173.937 319.4473 179.4043 319.4434 C 184.8716 319.4375 189.3091 323.8672 189.3105 329.3374 C 189.3169 334.8057 184.8862 339.2422 179.4214 339.2422 C 173.9492 339.2476 169.5142 334.8193 169.5112 329.3506 Z" fill="#323232"/>		<path d="M 170.2656 359.145 C 170.7539 359.145 171.2388 359.127 171.7217 359.1094 C 171.7227 359.0781 171.7227 359.0513 171.7227 359.0234 C 171.2461 359.0942 170.7637 359.145 170.2656 359.145 Z" fill="#323232"/>		<path d="M 170.2378 359.1494 C 170.2461 359.1494 170.2549 359.1504 170.2656 359.145 C 170.2505 359.1484 170.2397 359.146 170.228 359.146 C 170.2319 359.1484 170.2319 359.1484 170.2378 359.1494 Z" fill="#323232"/>		<path d="M 170.2114 359.1484 C 170.2129 359.1504 170.2202 359.1484 170.228 359.146 C 170.2397 359.146 170.2505 359.1484 170.2656 359.145 C 175.7207 359.1289 180.1338 354.6992 180.1294 349.2422 C 180.1255 343.8052 175.7393 339.4004 170.3174 339.3535 C 170.3164 339.3091 170.3149 339.2646 170.3164 339.2178 C 170.2739 339.2178 170.2354 339.2217 170.1914 339.2236 C 159.2407 339.2314 150.3574 330.3604 150.3501 319.4097 C 150.3447 308.458 159.2148 299.5762 170.1655 299.5693 C 170.2739 299.5703 170.3774 299.5825 170.4888 299.585 C 170.4878 299.5439 170.4878 299.5029 170.4878 299.4609 C 175.792 299.252 180.0684 294.8604 180.0659 289.5039 L 180.0596 280.8804 C 176.8931 280.0698 173.5718 279.6411 170.1514 279.6455 C 166.689 279.6455 163.3296 280.0928 160.1279 280.9268 C 143.0303 285.3828 130.415 300.9336 130.4258 319.4229 C 130.4419 341.377 148.2539 359.1655 170.2114 359.1484 Z" fill="#323232"/>		<path d="M 229.9165 359.1074 C 229.9111 359.1074 229.9048 359.104 229.897 359.105 C 229.8853 359.105 229.8711 359.1074 229.8569 359.105 C 224.4038 359.0933 219.9844 354.6704 219.978 349.2139 C 219.978 343.7764 224.3535 339.3672 229.7798 339.3091 C 229.7817 339.2646 229.7827 339.2207 229.7827 339.1743 C 229.8228 339.1743 229.8604 339.1831 229.9033 339.1797 C 240.8506 339.1743 249.7222 330.291 249.7168 319.3389 C 249.707 308.3906 240.8228 299.5186 229.8745 299.5273 C 229.7676 299.5273 229.6621 299.5415 229.5532 299.5415 C 229.5542 299.5005 229.5522 299.46 229.5552 299.4165 C 224.2456 299.2183 219.9629 294.8291 219.9595 289.4756 L 219.9531 280.8535 C 223.1206 280.0366 226.4409 279.6035 229.8613 279.6025 C 233.3252 279.5957 236.6831 280.041 239.8872 280.8696 C 256.9912 285.3018 269.6304 300.8369 269.6421 319.3267 C 269.6582 341.2783 251.8701 359.0918 229.9165 359.1074 Z" fill="#323232"/>		<path d="M 160.2271 329.3564 L 180.1157 329.3447 L 180.1294 349.2422 L 160.2388 349.2549 L 160.2271 329.3564 Z" fill="#323232"/>		<path d="M 219.9814 329.3154 L 239.8711 329.3008 L 239.8838 349.1968 L 219.9966 349.2139 L 219.9814 329.3154 Z" fill="#323232"/>		<path d="M 229.9014 319.3652 L 229.9131 339.2539 L 169.521 339.2974 L 169.5059 319.4072 L 229.9014 319.3652 Z" fill="#323232"/>	</g></svg>