<?xml version="1.0" standalone="no"?><!-- Generator: Adobe Fireworks CS6, Export SVG Extension by Aaron Beall (http://fireworks.abeall.com) . Version: 0.6.1  --><!DOCTYPE svg PUBLIC "-//W3C//DTD SVG 1.1//EN" "http://www.w3.org/Graphics/SVG/1.1/DTD/svg11.dtd"><svg id="Raichu-Icons.fw-circle-search" viewBox="0 0 400 400" style="background-color:#ffffff00" version="1.1"	xmlns="http://www.w3.org/2000/svg" xmlns:xlink="http://www.w3.org/1999/xlink" xml:space="preserve"	x="0px" y="0px" width="400px" height="400px">	<g id="Layer%20130">		<path d="M 276.8081 267.4575 L 241.6519 232.2998 C 239.7686 230.418 237.2656 229.3813 234.604 229.3813 C 232.103 229.3813 229.7354 230.2998 227.895 231.9756 C 218.3467 239.1992 206.9653 243.0161 194.9653 243.0161 C 164.8271 243.0161 140.3081 218.4971 140.3081 188.3594 C 140.3081 158.2217 164.8271 133.7026 194.9653 133.7026 C 225.103 133.7026 249.6216 158.2217 249.6216 188.3594 C 249.6216 195.8813 248.1191 203.1709 245.1558 210.0244 C 245.1206 210.1055 245.0879 210.1865 245.0576 210.269 C 244.4517 211.5781 244.1343 213.0098 244.1343 214.4531 C 244.1343 219.9517 248.6074 224.4248 254.106 224.4248 C 258.1797 224.4248 261.8706 221.8823 263.3672 218.146 C 263.4126 218.0562 263.4556 217.9648 263.4956 217.8721 C 267.5259 208.5283 269.5693 198.5991 269.5693 188.3594 C 269.5693 147.2222 236.1021 113.7549 194.9653 113.7549 C 153.8281 113.7549 120.3604 147.2222 120.3604 188.3594 C 120.3604 229.4966 153.8281 262.9644 194.9653 262.9644 C 208.6245 262.9644 221.8379 259.2852 233.4346 252.2871 L 262.7065 281.5596 C 264.5903 283.4424 267.0942 284.4795 269.7573 284.4795 C 269.7573 284.4795 269.7573 284.4795 269.7578 284.4795 C 272.4204 284.4795 274.9243 283.4429 276.8096 281.5586 C 278.6924 279.6753 279.729 277.1709 279.729 274.5073 C 279.7285 271.8433 278.6909 269.3394 276.8081 267.4575 Z" fill="#323232"/>		<path d="M 352.7358 151.3096 C 326.3325 66.98 236.5669 20.0234 152.2388 46.4277 C 67.9087 72.8301 20.9507 162.5947 47.354 246.9253 C 48.3462 250.0947 49.4448 253.2012 50.6147 256.2627 C 50.6157 256.2651 50.6157 256.2671 50.6167 256.2695 C 50.6797 256.4702 50.7593 256.6611 50.8325 256.8555 C 50.8872 256.9971 50.9419 257.1396 50.9966 257.2813 C 53.0103 261.9058 58.2241 264.3652 63.147 262.8242 C 68.4204 261.1743 71.353 255.564 69.7026 250.2925 C 69.5981 249.9565 69.4761 249.6304 69.3394 249.3135 C 68.2896 246.5752 67.3198 243.7891 66.4297 240.9521 C 43.3257 167.1587 84.4175 88.6074 158.2095 65.5029 C 232.0034 42.3984 310.5542 83.4883 333.6597 157.2827 C 356.7651 231.0776 315.6724 309.6279 241.8794 332.7319 C 190.7993 348.7251 137.4438 333.9536 101.7729 298.8721 C 101.5132 298.6162 101.2544 298.3584 100.9966 298.1006 C 98.4575 295.8364 94.8335 294.916 91.3511 296.0063 C 86.0806 297.6567 83.146 303.2671 84.7954 308.5371 C 85.3501 310.3101 86.3608 311.8101 87.6479 312.9697 C 87.647 312.9678 87.646 312.9668 87.644 312.9658 C 87.6372 312.9717 87.6323 312.9785 87.6265 312.9854 C 128.3887 353.166 189.4194 370.1045 247.8521 351.8081 C 332.1821 325.4053 379.1392 235.6401 352.7358 151.3096 Z" fill="#323232"/>	</g></svg>