<?xml version="1.0" standalone="no"?><!-- Generator: Adobe Fireworks CS6, Export SVG Extension by Aaron Beall (http://fireworks.abeall.com) . Version: 0.6.1  --><!DOCTYPE svg PUBLIC "-//W3C//DTD SVG 1.1//EN" "http://www.w3.org/Graphics/SVG/1.1/DTD/svg11.dtd"><svg id="Raichu-Icons.fw-help-bold" viewBox="0 0 400 400" style="background-color:#ffffff00" version="1.1"	xmlns="http://www.w3.org/2000/svg" xmlns:xlink="http://www.w3.org/1999/xlink" xml:space="preserve"	x="0px" y="0px" width="400px" height="400px">	<g id="Layer%20136">		<path visibility="hidden" d="M 352.8779 152.2412 C 326.4746 67.9116 236.709 20.9551 152.3809 47.3594 C 68.0508 73.7617 21.0928 163.5264 47.4961 247.8569 C 48.4883 251.0264 49.5869 254.1328 50.7568 257.1943 C 50.7578 257.1968 50.7578 257.1987 50.7588 257.2012 C 50.8223 257.4019 50.9014 257.5928 50.9746 257.7871 C 51.0293 257.9287 51.084 258.0713 51.1387 258.2129 C 53.1523 262.8374 58.3662 265.2969 63.2891 263.7559 C 68.5625 262.106 71.4951 256.4956 69.8447 251.2241 C 69.7402 250.8882 69.6182 250.562 69.4814 250.2451 C 68.4316 247.5068 67.4619 244.7207 66.5723 241.8838 C 43.4678 168.0903 84.5596 89.5391 158.3516 66.4346 C 232.1455 43.3301 310.6963 84.4199 333.8018 158.2144 C 356.9072 232.0093 315.8145 310.5596 242.0215 333.6636 C 190.9414 349.6567 137.5859 334.8853 101.915 299.8037 C 101.6553 299.5479 101.3965 299.29 101.1387 299.0322 C 98.5996 296.7681 94.9756 295.8477 91.4932 296.938 C 86.2227 298.5884 83.2881 304.1987 84.9375 309.4688 C 85.4922 311.2417 86.5029 312.7417 87.79 313.9014 C 87.7891 313.8994 87.7881 313.8984 87.7861 313.8975 C 87.7793 313.9033 87.7744 313.9102 87.7686 313.917 C 128.5313 354.0977 189.5615 371.0361 247.9941 352.7397 C 332.3242 326.3369 379.2813 236.5718 352.8779 152.2412 Z" fill="#333333"/>		<path visibility="hidden" d="M 320 160 C 320 226.2758 266.4975 280 200.5 280 C 134.5025 280 81 226.2758 81 160 C 81 93.7247 134.5025 40 200.5 40 C 266.4975 40 320 93.7247 320 160 ZM 300 160 C 300 215.2298 255.4519 260 200.5 260 C 145.5481 260 101 215.2298 101 160 C 101 104.7706 145.5481 60 200.5 60 C 255.4519 60 300 104.7706 300 160 Z" fill="#000000"/>		<path d="M 200 320 C 189.2303 320 180.5 328.7306 180.5 339.5 C 180.5 350.2694 189.2303 359 200 359 C 210.7697 359 219.5 350.2694 219.5 339.5 C 219.5 328.7306 210.7697 320 200 320 Z" fill="#333333"/>		<path d="M 303.5 132.5 C 303.5 228 220 210.6667 220 254.6667 L 218.5 276.5 C 218.5 289.6667 212.6667 298.5 200.5 298.5 C 188 298.5 181.5 290.3333 181.5 276.5 L 181.5 259.5 C 181.5 253.8228 182.6667 235.3333 189.6667 222.6667 C 195.7251 211.7038 207.445 200 220 194.3333 C 235.121 187.5085 265.5 172.3333 265.5 133.5 C 265.5 99.5 238 78 207 78 C 192.3333 78 179.364 82.4005 169.5 91 C 151.6075 106.599 147.5 136.5 147.5 136.5 C 146.5 148.5 137.5 156.5 128.5 156.5 C 125.5 156.5 110.5 156 110.5 133.5 C 110.5 133.5 108.291 105.9222 127 80 C 144.6402 55.5587 170.5 40.5 206.5 40.5 C 260.5 40.5 303.5 78.5 303.5 132.5 Z" fill="#333333"/>	</g></svg>