<?xml version="1.0" standalone="no"?><!-- Generator: Adobe Fireworks CS6, Export SVG Extension by Aaron Beall (http://fireworks.abeall.com) . Version: 0.6.1  --><!DOCTYPE svg PUBLIC "-//W3C//DTD SVG 1.1//EN" "http://www.w3.org/Graphics/SVG/1.1/DTD/svg11.dtd"><svg id="Raichu-Icons.fw-circle-help" viewBox="0 0 400 400" style="background-color:#ffffff00" version="1.1"	xmlns="http://www.w3.org/2000/svg" xmlns:xlink="http://www.w3.org/1999/xlink" xml:space="preserve"	x="0px" y="0px" width="400px" height="400px">	<g id="Layer%20134">		<path visibility="hidden" d="M 352.8779 152.2412 C 326.4746 67.9116 236.709 20.9551 152.3809 47.3594 C 68.0508 73.7617 21.0928 163.5264 47.4961 247.8569 C 48.4883 251.0264 49.5869 254.1328 50.7568 257.1943 C 50.7578 257.1968 50.7578 257.1987 50.7588 257.2012 C 50.8223 257.4019 50.9014 257.5928 50.9746 257.7871 C 51.0293 257.9287 51.084 258.0713 51.1387 258.2129 C 53.1523 262.8374 58.3662 265.2969 63.2891 263.7559 C 68.5625 262.106 71.4951 256.4956 69.8447 251.2241 C 69.7402 250.8882 69.6182 250.562 69.4814 250.2451 C 68.4316 247.5068 67.4619 244.7207 66.5723 241.8838 C 43.4678 168.0903 84.5596 89.5391 158.3516 66.4346 C 232.1455 43.3301 310.6963 84.4199 333.8018 158.2144 C 356.9072 232.0093 315.8145 310.5596 242.0215 333.6636 C 190.9414 349.6567 137.5859 334.8853 101.915 299.8037 C 101.6553 299.5479 101.3965 299.29 101.1387 299.0322 C 98.5996 296.7681 94.9756 295.8477 91.4932 296.938 C 86.2227 298.5884 83.2881 304.1987 84.9375 309.4688 C 85.4922 311.2417 86.5029 312.7417 87.79 313.9014 C 87.7891 313.8994 87.7881 313.8984 87.7861 313.8975 C 87.7793 313.9033 87.7744 313.9102 87.7686 313.917 C 128.5313 354.0977 189.5615 371.0361 247.9941 352.7397 C 332.3242 326.3369 379.2813 236.5718 352.8779 152.2412 Z" fill="#333333"/>		<path visibility="hidden" d="M 320 160 C 320 226.2758 266.4975 280 200.5 280 C 134.5025 280 81 226.2758 81 160 C 81 93.7247 134.5025 40 200.5 40 C 266.4975 40 320 93.7247 320 160 ZM 300 160 C 300 215.2298 255.4519 260 200.5 260 C 145.5481 260 101 215.2298 101 160 C 101 104.7706 145.5481 60 200.5 60 C 255.4519 60 300 104.7706 300 160 Z" fill="#000000"/>		<path d="M 352.2358 152.1924 C 325.8325 67.8633 236.0669 20.9063 151.7388 47.3105 C 67.4087 73.7129 20.4507 163.4775 46.854 247.8086 C 47.8462 250.9775 48.9448 254.084 50.1147 257.1455 C 50.1157 257.1484 50.1157 257.1504 50.1167 257.1523 C 50.1802 257.3535 50.2593 257.5439 50.3325 257.7383 C 50.3872 257.8799 50.4419 258.0225 50.4966 258.1641 C 52.5103 262.7891 57.7241 265.248 62.647 263.707 C 67.9204 262.0576 70.853 256.4473 69.2026 251.1758 C 69.0981 250.8398 68.9761 250.5137 68.8394 250.1963 C 67.7896 247.458 66.8198 244.6719 65.9302 241.835 C 42.8257 168.042 83.9175 89.4902 157.7095 66.3857 C 231.5034 43.2813 310.0542 84.3711 333.1597 158.166 C 356.2651 231.9609 315.1724 310.5107 241.3794 333.6152 C 190.2993 349.6084 136.9438 334.8369 101.2729 299.7549 C 101.0132 299.499 100.7544 299.2412 100.4966 298.9834 C 97.9575 296.7197 94.3335 295.7988 90.8511 296.8896 C 85.5806 298.54 82.646 304.1504 84.2954 309.4199 C 84.8501 311.1934 85.8608 312.6934 87.1479 313.8525 C 87.147 313.8506 87.146 313.8496 87.144 313.8486 C 87.1372 313.8545 87.1323 313.8613 87.1265 313.8682 C 127.8892 354.0488 188.9194 370.9873 247.3521 352.6914 C 331.6821 326.2881 378.6392 236.5234 352.2358 152.1924 Z" fill="#323232"/>		<g>			<g>				<path d="M 265.4966 157.999 C 265.4009 156.7695 265.3354 155.5459 265.27 154.3291 C 265.1245 151.6338 264.9746 148.8447 264.5083 146.0723 C 259.4136 115.7705 231 92.0342 199.8218 92.0342 C 196.0508 92.0342 192.2739 92.3857 188.5952 93.0801 C 158.3774 98.7852 137.416 121.2334 133.8921 151.665 C 133.3892 156.0098 133.5547 160.3262 133.9585 165.4697 C 134.3677 170.6729 138.8457 174.5586 144.1533 174.2051 C 149.3574 173.8584 153.1201 169.6074 153.1006 164.0957 C 153.0972 163.1035 153.0483 162.1367 152.9966 161.1133 C 152.3237 147.8203 156.8535 135.3447 165.752 125.9854 C 174.5874 116.6914 186.6055 111.5723 199.5928 111.5723 C 202.0181 111.5723 204.4868 111.7568 206.9302 112.1191 C 221.4639 114.2764 233.8315 123.124 240.8618 136.3936 C 247.9116 149.6992 248.2842 164.9473 241.8853 178.2275 C 237.2549 187.8369 229.6621 195.2725 218.6729 200.959 C 202.3569 209.4014 191.2241 222.5176 185.5835 239.9443 C 182.1875 250.4375 181.5474 261.2197 183.6797 271.9922 C 184.6084 276.6826 188.4204 279.958 192.9502 279.958 C 193.2744 279.958 193.6011 279.9414 193.9312 279.9063 C 199.2852 279.3418 202.7764 275.2139 202.6191 269.6348 C 202.5444 266.9541 202.4014 264.2832 202.3691 261.6016 C 202.3218 257.5811 202.2769 253.7832 202.9932 250.2207 C 205.8945 235.7969 214.5884 224.9346 229.5723 217.0137 C 252.9023 204.6807 264.9922 184.9395 265.5068 158.3389 L 265.5098 158.1689 L 265.4966 157.999 Z" fill="#323232"/>			</g>			<path d="M 206.333 297.9658 C 206.333 303.4893 201.856 307.9658 196.333 307.9658 C 190.8101 307.9658 186.333 303.4893 186.333 297.9658 C 186.333 292.4434 190.8101 287.9658 196.333 287.9658 C 201.856 287.9658 206.333 292.4434 206.333 297.9658 Z" fill="#323232"/>		</g>	</g></svg>