<?xml version="1.0" standalone="no"?><!-- Generator: Adobe Fireworks CS6, Export SVG Extension by Aaron Beall (http://fireworks.abeall.com) . Version: 0.6.1  --><!DOCTYPE svg PUBLIC "-//W3C//DTD SVG 1.1//EN" "http://www.w3.org/Graphics/SVG/1.1/DTD/svg11.dtd"><svg id="Raichu-Icons.fw-two-circles" viewBox="0 0 400 400" style="background-color:#ffffff" version="1.1"	xmlns="http://www.w3.org/2000/svg" xmlns:xlink="http://www.w3.org/1999/xlink" xml:space="preserve"	x="0px" y="0px" width="400px" height="400px">	<g id="Layer%20193">		<path id="Ellipse23" d="M 93.3333 199 C 93.3333 140.0912 141.0885 92.3333 200 92.3333 C 258.9116 92.3333 306.6667 140.0912 306.6667 199 C 306.6667 257.9089 258.9116 305.6667 200 305.6667 C 141.0885 305.6667 93.3333 257.9089 93.3333 199 Z" fill="#333333"/>		<path d="M 59.2 199 C 59.2 121.2373 122.2373 58.2 200 58.2 C 277.7627 58.2 340.8 121.2373 340.8 199 C 340.8 276.7627 277.7627 339.8 200 339.8 C 122.2373 339.8 59.2 276.7627 59.2 199 ZM 40 199 C 40 287.3667 111.6333 359 200 359 C 288.3667 359 360 287.3667 360 199 C 360 110.6333 288.3667 39 200 39 C 111.6333 39 40 110.6333 40 199 Z" fill="#333333"/>	</g></svg>