<?xml version="1.0" standalone="no"?><!-- Generator: Adobe Fireworks CS6, Export SVG Extension by Aaron Beall (http://fireworks.abeall.com) . Version: 0.6.1  --><!DOCTYPE svg PUBLIC "-//W3C//DTD SVG 1.1//EN" "http://www.w3.org/Graphics/SVG/1.1/DTD/svg11.dtd"><svg id="Raichu-Icons.fw-telephone" viewBox="0 0 400 400" style="background-color:#ffffff00" version="1.1"	xmlns="http://www.w3.org/2000/svg" xmlns:xlink="http://www.w3.org/1999/xlink" xml:space="preserve"	x="0px" y="0px" width="400px" height="400px">	<g id="Layer%2017">		<path d="M 353.0166 152.2412 C 326.6133 67.9111 236.8477 20.9546 152.5195 47.3589 C 68.1895 73.7617 21.2314 163.5259 47.6348 247.8564 C 48.6274 251.0264 49.7256 254.1323 50.8975 257.2007 C 50.9609 257.4014 51.04 257.5923 51.1133 257.7866 C 51.168 257.9282 51.2227 258.0708 51.2773 258.2124 C 53.291 262.8369 58.5049 265.2964 63.4277 263.7554 C 68.7012 262.1055 71.6338 256.4951 69.9834 251.2236 C 69.8789 250.8877 69.7568 250.5615 69.6201 250.2446 C 68.5703 247.5063 67.6006 244.7202 66.7109 241.8833 C 43.6064 168.0898 84.6982 89.5386 158.4902 66.4341 C 232.2842 43.3296 310.835 84.4199 333.9404 158.2139 C 357.0459 232.0088 315.9531 310.5591 242.1602 333.6631 C 233.5439 336.3608 224.6709 338.2378 215.6973 339.2368 C 206.9409 340.2114 198.0938 340.3511 189.3115 339.6519 C 180.6787 338.9644 172.1113 337.4678 163.7544 335.1938 C 155.4639 332.938 147.3828 329.9185 139.6421 326.1895 C 135.6724 324.2769 131.7969 322.1709 128.0215 319.8979 C 124.4072 317.7222 120.5054 315.5078 117.2578 312.8013 C 114.4961 310.8408 112.5361 307.8164 112.5361 304.354 C 112.5361 301.5225 113.7183 298.9707 115.6094 297.1514 L 130.4854 281.0005 C 136.2422 285.4033 142.7915 287.7256 149.5049 287.7256 C 157.2788 287.7256 164.1646 283.9951 169.8286 278.9116 C 181.873 268.1006 192.7227 253.2485 186.4229 236.437 C 183.7236 229.2339 178.1768 223.7061 172.3086 218.959 C 169.4238 216.625 166.3179 214.5498 163.4673 212.1782 C 160.6348 209.8218 160.4541 206.9551 160.4541 203.4922 L 160.543 202.9829 C 160.7686 201.6768 160.9814 200.4434 161.3701 199.3188 C 168.9717 177.3013 183.0459 160.2988 203.2002 148.7847 C 204.7832 147.8804 206.6396 147.3257 208.6045 146.7388 L 209.3662 146.5098 C 211.8213 145.7651 213.7061 146.1792 215.6514 147.9106 C 220.4072 152.1396 225.2891 156.1079 230.2881 160.1392 C 235.7295 164.5249 242.5361 166.9399 249.457 166.9399 C 265.3589 166.9399 277.6533 153.502 284.7764 140.5713 C 291.6201 128.1484 288.2266 112.1069 277.4658 103.0283 C 275.7227 101.5576 273.9521 100.1187 272.1807 98.6797 C 269.2588 96.3062 266.2373 93.8516 263.4229 91.3037 C 255.3496 83.998 245.249 80.8247 233.2695 81.8472 C 220.0166 82.9766 206.9336 87.7285 193.2725 96.374 C 155.8594 120.0493 127.7373 153.1211 109.6875 194.6709 C 103.3154 209.3379 100.4131 223.0483 100.8164 236.5854 C 101.2173 250.0762 105.5884 260.2061 114.1221 267.4717 C 113.8145 267.7598 113.5171 268.0615 113.2422 268.3945 L 88.2344 298.6763 C 86.7734 299.9043 85.6802 301.5464 85.1084 303.4165 C 85.0518 303.5928 85.002 303.7705 84.9551 303.9497 C 84.9365 304.0254 84.916 304.0996 84.8989 304.1753 C 84.4956 305.8691 84.5186 307.6865 85.0762 309.4683 C 85.6309 311.2412 86.6416 312.7412 87.9072 313.9165 C 128.6699 354.0972 189.7002 371.0356 248.1328 352.7393 C 332.4629 326.3364 379.4199 236.5713 353.0166 152.2412 ZM 121.3428 212.1743 C 126.9009 193.9004 136.8828 175.7734 151.8579 156.7583 C 167.6055 136.7627 184.4326 121.564 203.3027 110.2939 C 213.0146 104.4937 221.5127 101.0352 230.0469 99.4111 C 232.5767 98.9292 234.873 98.6953 237.0664 98.6953 C 241.4834 98.6953 245.833 99.7783 249.5815 102.1533 C 254.8428 105.4868 259.2119 109.8384 264.0981 113.6416 C 265.6831 114.8755 266.8232 116.3545 268.1367 117.8403 C 269.9263 119.8652 270.9922 122.2134 271.3042 124.6504 C 271.7119 126.2559 271.9521 127.9287 271.9521 129.6611 C 271.9521 144.3936 254.2222 155.5938 241.3389 147.2378 C 239.9702 146.3501 238.6924 145.3271 237.4609 144.2603 C 233.7549 141.0488 230.0073 137.8809 226.334 134.626 C 220.9395 129.8452 214.376 128.1641 206.6592 129.6226 C 198.9819 131.0713 191.6895 134.6323 183.71 140.8296 C 165.4512 155.0083 153.1045 171.3911 145.9648 190.9146 C 143.3887 197.958 142.5488 204.3706 143.3965 210.5176 C 144.2437 216.6602 148.251 221.5532 152.7412 225.5522 C 156.9106 229.2661 161.8535 231.9961 165.9727 235.7715 C 170.0127 239.4746 172.2861 244.8423 172.2861 250.3276 C 172.2861 261.5459 163.1914 270.6401 151.9736 270.6401 C 151.208 270.6401 150.4556 270.5894 149.7124 270.5073 C 149.6147 270.5098 149.5181 270.5249 149.4199 270.5249 C 146.2861 270.5249 143.1357 269.2886 140.3105 266.9492 C 140.2842 266.9277 140.2588 266.9058 140.2334 266.8848 C 139.2837 266.21 138.3862 265.4678 137.5674 264.6436 C 136.9521 264.124 136.3325 263.6094 135.7178 263.0889 C 132.6904 260.5239 129.5596 257.8716 126.3486 255.396 C 121.752 251.8525 119.0771 246.9946 118.1729 240.5444 C 116.7822 230.627 118.8809 221.0259 121.3428 212.1743 Z" fill="#323232"/>	</g></svg>