<?xml version="1.0" standalone="no"?><!-- Generator: Adobe Fireworks CS6, Export SVG Extension by Aaron Beall (http://fireworks.abeall.com) . Version: 0.6.1  --><!DOCTYPE svg PUBLIC "-//W3C//DTD SVG 1.1//EN" "http://www.w3.org/Graphics/SVG/1.1/DTD/svg11.dtd"><svg id="Raichu-Icons.fw-controllers" viewBox="0 0 400 400" style="background-color:#ffffff00" version="1.1"	xmlns="http://www.w3.org/2000/svg" xmlns:xlink="http://www.w3.org/1999/xlink" xml:space="preserve"	x="0px" y="0px" width="400px" height="400px">	<g id="Layer%20199">		<path d="M 210.95 130 L 211 130 L 211 129 C 211 129.3375 210.9827 129.6711 210.95 130 ZM 191.05 130 C 191.5517 135.0534 195.8146 139 201 139 C 206.1854 139 210.4483 135.0534 210.95 130 C 210.9827 129.6711 211 129.3375 211 129 L 211 48 C 211 42.4771 206.5229 38 201 38 C 195.4771 38 191 42.4771 191 48 L 191 129 C 191 129.3375 191.0173 129.6711 191.05 130 ZM 191 130 L 191.05 130 C 191.0173 129.6711 191 129.3375 191 129 L 191 130 Z" fill="#333333"/>		<path d="M 211 268 C 211 262.4771 206.5229 258 201 258 C 195.4771 258 191 262.4771 191 268 L 191 349 C 191 354.5229 195.4771 359 201 359 C 206.5229 359 211 354.5229 211 349 L 211 268 Z" fill="#333333"/>		<path d="M 300 188 C 300 182.4771 295.5229 178 290 178 C 284.4771 178 280 182.4771 280 188 L 280 349 C 280 354.5229 284.4771 359 290 359 C 295.5229 359 300 354.5229 300 349 L 300 188 Z" fill="#333333"/>		<path d="M 171 199 C 171 182.4312 184.4312 169 201 169 C 217.5688 169 231 182.4312 231 199 C 231 215.5688 217.5688 229 201 229 C 184.4312 229 171 215.5688 171 199 ZM 151 199 C 151 226.6146 173.3854 249 201 249 C 228.6146 249 251 226.6146 251 199 C 251 171.3854 228.6146 149 201 149 C 173.3854 149 151 171.3854 151 199 Z" fill="#333333"/>		<path d="M 119.95 350 L 120 350 L 120 349 C 120 349.3375 119.9827 349.6711 119.95 350 ZM 100.05 350 C 100.5517 355.0534 104.8146 359 110 359 C 115.1854 359 119.4483 355.0534 119.95 350 C 119.9827 349.6711 120 349.3375 120 349 L 120 350 C 120 344.4771 115.5229 340 110 340 C 104.4771 340 100 344.4771 100 350 L 100 349 C 100 349.3375 100.0173 349.6711 100.05 350 ZM 100 350 L 100.05 350 C 100.0173 349.6711 100 349.3375 100 349 L 100 350 Z" fill="#333333"/>		<path d="M 299.95 50 L 300 50 L 300 49 C 300 49.3375 299.9827 49.6711 299.95 50 ZM 280.05 50 C 280.5517 55.0534 284.8146 59 290 59 C 295.1854 59 299.4483 55.0534 299.95 50 C 299.9827 49.6711 300 49.3375 300 49 L 300 50 C 300 44.4771 295.5229 40 290 40 C 284.4771 40 280 44.4771 280 50 L 280 49 C 280 49.3375 280.0173 49.6711 280.05 50 ZM 280 50 L 280.05 50 C 280.0173 49.6711 280 49.3375 280 49 L 280 50 Z" fill="#333333"/>		<path d="M 120 48 C 120 42.4771 115.5229 38 110 38 C 104.4771 38 100 42.4771 100 48 L 100 209 C 100 214.5229 104.4771 219 110 219 C 115.5229 219 120 214.5229 120 209 L 120 48 Z" fill="#333333"/>		<path d="M 80 281 C 80 264.4312 93.4312 251 110 251 C 126.5688 251 140 264.4312 140 281 C 140 297.5688 126.5688 311 110 311 C 93.4312 311 80 297.5688 80 281 ZM 60 281 C 60 308.6146 82.3854 331 110 331 C 137.6146 331 160 308.6146 160 281 C 160 253.3854 137.6146 231 110 231 C 82.3854 231 60 253.3854 60 281 Z" fill="#333333"/>		<path d="M 261 119 C 261 102.4312 274.4312 89 291 89 C 307.5688 89 321 102.4312 321 119 C 321 135.5688 307.5688 149 291 149 C 274.4312 149 261 135.5688 261 119 ZM 241 119 C 241 146.6146 263.3854 169 291 169 C 318.6146 169 341 146.6146 341 119 C 341 91.3854 318.6146 69 291 69 C 263.3854 69 241 91.3854 241 119 Z" fill="#333333"/>	</g></svg>