<?xml version="1.0" standalone="no"?><!-- Generator: Adobe Fireworks CS6, Export SVG Extension by Aaron Beall (http://fireworks.abeall.com) . Version: 0.6.1  --><!DOCTYPE svg PUBLIC "-//W3C//DTD SVG 1.1//EN" "http://www.w3.org/Graphics/SVG/1.1/DTD/svg11.dtd"><svg id="Raichu-Icons.fw-leave" viewBox="0 0 400 400" style="background-color:#ffffff00" version="1.1"	xmlns="http://www.w3.org/2000/svg" xmlns:xlink="http://www.w3.org/1999/xlink" xml:space="preserve"	x="0px" y="0px" width="400px" height="400px">	<g id="Layer%201106">		<path d="M 113.6396 248.9038 L 74.1411 209.348 L 190 209.348 C 195.5234 209.348 200.001 204.8659 200 199.3334 C 200 193.8028 195.5234 189.3187 190 189.3187 L 73.4751 189.3187 L 113.6396 149.096 C 117.5439 145.185 117.5449 138.8438 113.6396 134.9327 C 109.7344 131.0218 103.4023 131.0227 99.4971 134.9337 L 42.9287 191.5847 C 40.8901 193.6258 39.9258 196.329 40.0161 199.0038 C 40.0127 199.0948 40.0034 199.1838 40.0029 199.2737 C 40.0029 199.2943 40 199.3138 40 199.3334 C 40 199.3442 40.0015 199.3539 40.0015 199.3647 C 40.0024 199.6845 40.0186 200.0023 40.0498 200.3212 C 40.0645 200.4708 40.0928 200.6165 40.1138 200.7642 C 40.1387 200.9402 40.1597 201.1163 40.1938 201.2913 C 40.2271 201.4576 40.2725 201.618 40.3135 201.7823 C 40.3525 201.9348 40.3857 202.0894 40.4316 202.2419 C 40.4795 202.4004 40.5391 202.5529 40.5942 202.7075 C 40.6494 202.862 40.7002 203.0165 40.7627 203.1681 C 40.8213 203.3089 40.8901 203.4439 40.9546 203.5818 C 41.0293 203.7412 41.1001 203.9016 41.1836 204.0571 C 41.252 204.1852 41.3301 204.3055 41.4033 204.4307 C 41.4961 204.5871 41.585 204.7456 41.687 204.8981 C 41.7749 205.0292 41.873 205.1524 41.9668 205.2786 C 42.0674 205.4145 42.1616 205.5534 42.27 205.6845 C 42.4385 205.8898 42.6191 206.0845 42.8032 206.2752 C 42.8467 206.3211 42.8843 206.37 42.9287 206.415 L 99.498 263.066 C 103.4033 266.978 109.7344 266.978 113.6396 263.066 C 117.5449 259.155 117.5449 252.8147 113.6396 248.9038 Z" fill="#333333"/>		<path d="M 120.05 350 C 120.5517 355.0534 124.8146 359 130 359 L 350 359 C 355.5229 359 360 354.5229 360 349 L 360 49 C 360 43.4771 355.5229 39 350 39 L 130 39 C 124.4771 39 120 43.4771 120 49 L 120 89.3333 C 120 94.8563 124.4771 99.3333 130 99.3333 C 135.5229 99.3333 140 94.8563 140 89.3333 L 140 59 L 340 59 L 340 339 L 140 339 L 140 309.3333 L 139.95 309.3333 C 139.9827 309.0044 140 308.6708 140 308.3333 C 140 302.8104 135.5229 298.3333 130 298.3333 C 124.4771 298.3333 120 302.8104 120 308.3333 C 120 308.6708 120.0173 309.0044 120.05 309.3333 L 120 309.3333 L 120 349 C 120 349.3375 120.0173 349.6711 120.05 350 ZM 120 350 L 120.05 350 C 120.0173 349.6711 120 349.3375 120 349 L 120 350 Z" fill="#333333"/>	</g></svg>