<?xml version="1.0" standalone="no"?><!-- Generator: Adobe Fireworks CS6, Export SVG Extension by Aaron Beall (http://fireworks.abeall.com) . Version: 0.6.1  --><!DOCTYPE svg PUBLIC "-//W3C//DTD SVG 1.1//EN" "http://www.w3.org/Graphics/SVG/1.1/DTD/svg11.dtd"><svg id="Raichu-Icons.fw-raichu" viewBox="0 0 400 400" style="background-color:#ffffff00" version="1.1"	xmlns="http://www.w3.org/2000/svg" xmlns:xlink="http://www.w3.org/1999/xlink" xml:space="preserve"	x="0px" y="0px" width="400px" height="400px">	<g id="Layer%20174">		<path d="M 174.5142 195.2349 C 163.3765 187.2437 152.3086 179.2881 141.2251 171.3545 C 128.4951 162.2422 115.793 153.0908 102.9907 144.082 C 98.7861 141.124 97.0708 137.3628 98.4497 132.4644 C 99.7871 127.7144 103.5444 125.4834 109.2036 125.3638 C 166.3115 124.1567 223.4199 122.915 280.5273 121.6924 C 282.5225 121.6494 284.5391 121.5195 286.5127 121.7354 C 295.0693 122.6724 298.707 129.6821 294.6152 137.2319 C 281.2109 161.9692 267.7969 186.7021 254.3926 211.4395 C 253.5322 213.0273 252.7207 214.6416 251.6504 216.6973 C 261.0205 220.6602 270.2041 224.1309 278.957 228.4707 C 282.0195 229.9893 284.8906 233.2598 286.2979 236.4199 C 288.2607 240.8281 285.9883 244.5977 281.3008 246.9082 C 246.7949 263.9199 212.2695 280.8906 177.7627 297.8984 C 164.4688 304.4512 151.0752 310.8164 137.9614 317.7148 C 118.894 327.7441 98.9409 324.5469 84.3936 308.6553 C 16.3135 234.2852 29.9766 120.9165 113.7661 64.9429 C 185.2266 17.2051 285.0664 37.3311 333.418 109.2212 C 383.8584 184.2148 363.209 285.1846 287.002 333.79 C 250.0596 357.3516 209.6943 364.1963 166.7534 355.1221 C 159.8213 353.6572 156.6543 349.0801 157.9746 343.04 C 159.1738 337.5547 164.1055 334.665 170.7974 336.0322 C 201.6255 342.3301 231.6865 339.8994 260.0176 326.1074 C 306.6143 303.4248 334.3438 266.0908 340.0645 214.4414 C 348.0332 142.5161 302.8672 79.5093 232.7529 62.4268 C 155.0239 43.4883 74.7808 97.0552 62.7705 176.0293 C 55.8154 221.7637 68.1836 261.6973 99.4824 295.7344 C 106.0088 302.832 110.4502 302.3965 115.4478 294.1152 C 134.8013 262.0459 154.0552 229.916 173.3335 197.8008 C 173.751 197.106 174.0195 196.3218 174.5142 195.2349 ZM 253.9766 238.7607 C 247.3818 236.0039 242.0713 233.6553 236.6641 231.5527 C 228.1992 228.2617 226.1006 222.749 230.4883 214.6895 C 240.6719 195.9829 250.8857 177.2925 261.0742 158.5879 C 263.9893 153.2354 266.8574 147.8574 270.2266 141.5991 C 225.7354 142.5117 182.2813 143.4028 138.8271 144.2939 C 139.7998 146.2935 141.0337 147.2827 142.3252 148.1904 C 158.9404 159.8662 175.5776 171.5107 192.1772 183.209 C 197.3105 186.8267 198.8525 193.1484 195.8701 198.1016 C 177.4155 228.7559 158.9385 259.3945 140.4746 290.043 C 139.395 291.8359 138.3643 293.6582 137.311 295.4668 C 137.5337 295.7148 137.7563 295.9619 137.979 296.21 C 176.3101 277.2256 214.6416 258.2412 253.9766 238.7607 Z" fill="#333333"/>	</g></svg>