<?xml version="1.0" standalone="no"?><!-- Generator: Adobe Fireworks CS6, Export SVG Extension by Aaron Beall (http://fireworks.abeall.com) . Version: 0.6.1  --><!DOCTYPE svg PUBLIC "-//W3C//DTD SVG 1.1//EN" "http://www.w3.org/Graphics/SVG/1.1/DTD/svg11.dtd"><svg id="Raichu-Icons.fw-padlock" viewBox="0 0 400 400" style="background-color:#ffffff00" version="1.1"	xmlns="http://www.w3.org/2000/svg" xmlns:xlink="http://www.w3.org/1999/xlink" xml:space="preserve"	x="0px" y="0px" width="400px" height="400px">	<g id="Layer%201102">		<path d="M 319.5391 230.27 L 319.832 190.5356 C 319.832 189.9961 319.7773 189.4702 319.6948 188.9531 C 319.2002 183.9067 314.9155 179.9287 309.7446 179.9287 L 99.3208 179.9287 C 99.3208 179.8862 99.3208 179.8462 99.3208 179.8037 C 99.5356 124.5073 144.8022 80.041 200.6479 80.2725 C 244.9595 80.4556 282.416 109.6343 295.3467 149.877 C 295.8887 154.8887 300.1299 158.7905 305.2852 158.7905 C 310.8081 158.7905 315.2852 154.3135 315.2852 148.7905 C 315.2852 146.9883 314.8018 145.3018 313.9678 143.8418 C 299.2979 94.0635 253.8921 59.8418 199.5112 59.9243 C 133.5464 60.0254 79.8062 114.3589 79.8228 180.9336 C 79.8237 183.5825 79.9155 186.21 80.085 188.8164 L 80.166 188.8154 L 80.166 239.3418 C 80.1655 239.5337 80.1563 239.7236 80.1567 239.916 C 80.1572 240.127 80.1646 240.3359 80.166 240.5469 L 80.166 246.5356 C 80.166 247.4443 80.2979 248.3203 80.5249 249.1567 C 80.6035 250.168 80.6943 251.1758 80.7979 252.1802 C 87.0518 312.9878 138.3457 360.6875 200.1768 360.5928 C 266.1411 360.4917 319.8818 306.1582 319.8647 239.5835 C 319.8638 236.3198 319.7554 233.2441 319.5391 230.27 ZM 199.04 340.2446 C 148.3149 340.0347 107.3262 302.1382 101.0762 252.833 C 100.8257 250.856 100.4692 248.7964 100.1567 246.7168 C 100.1582 246.6558 100.166 246.5967 100.166 246.5356 L 100.166 199.9287 L 299.9077 199.9287 L 300.2686 244.6235 C 297.9927 298.0898 253.5625 340.4707 199.04 340.2446 Z" fill="#323232"/>		<path d="M 198.793 227.708 C 181.7188 227.7363 167.9717 241.5303 168.0063 258.5996 C 168.0342 272.1357 176.8569 283.6694 189.0146 287.7705 L 189.0146 299.8281 C 189.0146 305.3276 193.5146 309.8276 199.0146 309.8276 C 204.5146 309.8276 209.0146 305.3276 209.0146 299.8281 L 209.0146 287.6016 C 220.9473 283.3496 229.5303 271.9063 229.5273 258.5146 C 229.5225 241.5117 215.7236 227.6797 198.793 227.708 ZM 199.2148 269.0801 C 193.2949 269.0552 188.5098 264.2139 188.5234 258.2598 C 188.5361 252.3345 193.3691 247.5415 199.3223 247.5493 C 205.3223 247.5571 210.123 252.3872 210.0996 258.3936 C 210.0762 264.3306 205.2139 269.1045 199.2148 269.0801 Z" fill="#323232"/>	</g></svg>