<?xml version="1.0" standalone="no"?><!-- Generator: Adobe Fireworks CS6, Export SVG Extension by Aaron Beall (http://fireworks.abeall.com) . Version: 0.6.1  --><!DOCTYPE svg PUBLIC "-//W3C//DTD SVG 1.1//EN" "http://www.w3.org/Graphics/SVG/1.1/DTD/svg11.dtd"><svg id="Raichu-Icons.fw-book-faculty" viewBox="0 0 400 400" style="background-color:#ffffff00" version="1.1"	xmlns="http://www.w3.org/2000/svg" xmlns:xlink="http://www.w3.org/1999/xlink" xml:space="preserve"	x="0px" y="0px" width="400px" height="400px">	<g id="Layer%20187">		<path d="M 200 163 C 200 163 234.6667 139 280 139 C 325.3333 139 349.3333 157.6667 354 161 C 358.6667 164.3333 360.6667 167.3333 360 171 C 359.3333 174.6667 360 328 360 328 C 360 328 359.3333 339 348 339 C 336.6667 339 220 339 220 339 C 220 339 218.6667 359 200 359 C 181.3333 359 180 339 180 339 L 51 339 C 51 339 40 340.3333 40 328 C 40 315.6667 40 179 40 179 C 40 179 37.3333 164.3333 48 159 C 58.6667 153.6667 84 139 120 139 C 156 139 185 154.3333 200 163 ZM 189 183 C 189 183 159.3333 159 120 159 C 80.6667 159 60 177 60 177 L 60 311 C 60 311 87 299 120 299 C 153 299 179.6667 309.6667 189 317 L 189 183 ZM 211 183 C 211 183 240.6667 159 280 159 C 319.3333 159 340 177 340 177 L 340 311 C 340 311 313 299 280 299 C 247 299 220.3333 309.6667 211 317 L 211 183 Z" stroke="#ffffff00" stroke-width="1" fill="#333333"/>		<path d="M 200 41 C 204 41 211 44 211 44 L 351 109 C 351 109 361.6667 114 356 123 C 350.3333 132 344 126.3333 340 124 C 336 121.6667 200 59 200 59 C 200 59 61.6667 123.3333 55 127 C 48.3333 130.6667 42 126.3333 40 122 C 38 117.6667 42.6667 111.6667 46 110 C 49.3333 108.3333 190 44 190 44 C 190 44 193.6667 41 200 41 Z" fill="#333333"/>	</g></svg>