<?xml version="1.0" standalone="no"?><!-- Generator: Adobe Fireworks CS6, Export SVG Extension by Aaron Beall (http://fireworks.abeall.com) . Version: 0.6.1  --><!DOCTYPE svg PUBLIC "-//W3C//DTD SVG 1.1//EN" "http://www.w3.org/Graphics/SVG/1.1/DTD/svg11.dtd"><svg id="Raichu-Icons.fw-edit" viewBox="0 0 400 400" style="background-color:#ffffff00" version="1.1"	xmlns="http://www.w3.org/2000/svg" xmlns:xlink="http://www.w3.org/1999/xlink" xml:space="preserve"	x="0px" y="0px" width="400px" height="400px">	<g id="Layer%20127">		<path d="M 229.2568 157.7422 L 132.2949 239.7041 C 128.4063 243.5928 122.0415 243.5928 118.1533 239.7036 L 118.1533 239.7036 C 114.2642 235.8145 114.2642 229.4502 118.1523 225.562 L 215.1143 143.6001 C 219.0039 139.7109 225.3672 139.7109 229.2563 143.6001 L 229.2563 143.6001 C 233.1455 147.4893 233.146 153.853 229.2568 157.7422 Z" fill="#323232"/>		<path d="M 231.7448 173.7448 L 216.2549 158.2549 C 212.2648 154.2648 212.15 147.85 216 144 L 216 144 C 219.85 140.15 226.2648 140.2648 230.2549 144.2549 L 245.7448 159.7448 C 249.7352 163.7352 249.85 170.15 246 174 L 246 174 C 242.15 177.85 235.7352 177.7352 231.7448 173.7448 Z" fill="#323232"/>		<path d="M 295.2568 180.7422 L 172.2949 285.7041 C 168.4063 289.5928 162.0415 289.5928 158.1533 285.7036 L 158.1533 285.7036 C 154.2642 281.8145 154.2642 275.4502 158.1523 271.562 L 281.1143 166.6001 C 285.0039 162.7109 291.3672 162.7109 295.2563 166.6001 L 295.2563 166.6001 C 299.1455 170.4893 299.146 176.853 295.2568 180.7422 Z" fill="#323232"/>		<path d="M 163.687 288.9731 L 122.3369 288.9731 C 116.8374 288.9731 112.3374 284.4731 112.3374 278.9731 L 112.3374 278.9731 C 112.3374 273.4731 116.8374 268.9731 122.3369 268.9731 L 163.687 268.9731 C 169.187 268.9731 173.687 273.4731 173.687 278.9731 L 173.687 278.9731 C 173.687 284.4731 169.187 288.9731 163.687 288.9731 Z" fill="#323232"/>		<path d="M 132.1787 235.6318 L 132.1787 275.9819 C 132.1787 281.4814 127.6787 285.9814 122.1787 285.9814 L 122.1787 285.9814 C 116.6787 285.9814 112.1787 281.4814 112.1787 275.9819 L 112.1787 235.6318 C 112.1787 230.1318 116.6787 225.6318 122.1787 225.6318 L 122.1787 225.6318 C 127.6787 225.6318 132.1787 230.1318 132.1787 235.6318 Z" fill="#323232"/>		<path d="M 352.3623 151.9907 C 325.959 67.6611 236.1934 20.7046 151.8652 47.1089 C 67.5352 73.5112 20.5762 163.2759 46.9805 247.6064 C 47.9727 250.7759 49.0713 253.8823 50.2412 256.9438 C 50.2422 256.9463 50.2422 256.9482 50.2422 256.9507 C 50.3066 257.1514 50.3857 257.3423 50.459 257.5366 C 50.5137 257.6782 50.5684 257.8208 50.623 257.9624 C 52.6367 262.5869 57.8506 265.0464 62.7734 263.5054 C 68.0469 261.8555 70.9795 256.2451 69.3291 250.9736 C 69.2246 250.6377 69.1025 250.3115 68.9658 249.9946 C 67.916 247.2563 66.9463 244.4702 66.0566 241.6333 C 42.9521 167.8398 84.043 89.2886 157.8359 66.1841 C 231.6299 43.0796 310.1807 84.1694 333.2861 157.9639 C 356.3916 231.7588 315.2988 310.3091 241.5059 333.4131 C 190.4258 349.4063 137.0703 334.6348 101.4004 299.5532 C 101.1396 299.2974 100.8809 299.0396 100.623 298.7817 C 98.084 296.5176 94.459 295.5972 90.9766 296.6875 C 85.707 298.3379 82.7725 303.9482 84.4219 309.2183 C 84.9766 310.9912 85.9873 312.4912 87.2754 313.6509 C 87.2734 313.6489 87.2725 313.6479 87.2705 313.647 C 87.2637 313.6528 87.2588 313.6597 87.2529 313.6665 C 128.0156 353.8472 189.0459 370.7856 247.4785 352.4893 C 331.8086 326.0864 378.7656 236.3213 352.3623 151.9907 Z" fill="#323232"/>		<path visibility="hidden" d="M 226 171 C 226 154.4312 239.4312 141 256 141 C 272.5688 141 286 154.4312 286 171 C 286 187.5688 272.5688 201 256 201 C 239.4312 201 226 187.5688 226 171 ZM 206 171 C 206 195.1082 223.0627 215.2285 245.77 219.95 L 305.87 167.365 C 304.0074 141.448 282.3918 121 256 121 C 228.3854 121 206 143.3854 206 171 Z" fill="#323232"/>		<path id="Ellipse" d="M 236 130.5 C 236 124.7009 240.7009 120 246.5 120 C 252.299 120 257 124.7009 257 130.5 C 257 136.2991 252.299 141 246.5 141 C 240.7009 141 236 136.2991 236 130.5 Z" fill="#323232"/>		<path d="M 286 153 C 286 160.5801 281.7808 167.1777 275.565 170.57 L 290 185.005 C 299.7148 177.7072 306 166.0867 306 153 C 306 130.9083 288.0917 113 266 113 C 256.1638 113 247.1561 116.551 240.19 122.44 C 241.7477 121.5253 243.563 121 245.5 121 C 251.299 121 256 125.7009 256 131.5 C 256 133.292 255.5514 134.979 254.76 136.455 C 257.9633 134.2744 261.8326 133 266 133 C 277.0458 133 286 141.9542 286 153 Z" fill="#323232"/>	</g></svg>