<?xml version="1.0" standalone="no"?><!-- Generator: Adobe Fireworks CS6, Export SVG Extension by Aaron Beall (http://fireworks.abeall.com) . Version: 0.6.1  --><!DOCTYPE svg PUBLIC "-//W3C//DTD SVG 1.1//EN" "http://www.w3.org/Graphics/SVG/1.1/DTD/svg11.dtd"><svg id="Raichu-Icons.fw-reading" viewBox="0 0 400 400" style="background-color:#ffffff00" version="1.1"	xmlns="http://www.w3.org/2000/svg" xmlns:xlink="http://www.w3.org/1999/xlink" xml:space="preserve"	x="0px" y="0px" width="400px" height="400px">	<g id="Layer%20195">		<path d="M 61 270.5 C 61 243.1616 83.1616 221 110.5 221 C 137.8384 221 160 243.1616 160 270.5 C 160 297.8385 137.8384 320 110.5 320 C 83.1616 320 61 297.8385 61 270.5 ZM 41 270.5 C 41 232.1157 72.1157 201 110.5 201 C 148.8843 201 180 232.1157 180 270.5 C 180 308.8843 148.8843 340 110.5 340 C 72.1157 340 41 308.8843 41 270.5 Z" fill="#323232"/>		<path d="M 152.98 266.495 C 152.9931 266.0646 152.9983 265.6331 153 265.2 L 152.935 265.345 C 152.9551 265.7264 152.9686 266.1113 152.98 266.495 ZM 153 268 C 153 267.4966 152.9949 266.9948 152.98 266.495 C 152.9686 266.1113 152.9551 265.7264 152.935 265.345 C 152.7765 262.3395 152.3468 259.4075 151.675 256.565 C 149.5753 253.793 146.2457 252 142.5 252 C 136.8117 252 132.1743 254.7001 131.25 260.125 C 131.6804 261.879 131.8691 265.1231 131.965 266.985 C 131.3627 278.934 123.5291 289.015 112.68 293.08 C 110.9128 293.2909 109.2723 293.9179 107.865 294.865 C 104.9294 296.8402 103 300.1956 103 304 C 103 309.151 106.5399 313.4736 111.32 314.67 C 114.5722 314.3004 117.7311 313.6263 120.765 312.675 C 121.434 312.1527 122.043 311.5557 122.575 310.895 C 139.4664 303.6423 151.5667 287.5153 152.88 268.455 L 153 268.2 L 153 268 Z" fill="#323232"/>		<path d="M 332.98 266.495 C 332.9931 266.0646 332.9983 265.6331 333 265.2 L 332.935 265.345 C 332.9551 265.7264 332.9686 266.1113 332.98 266.495 ZM 333 268 C 333 267.4966 332.9949 266.9948 332.98 266.495 C 332.9686 266.1113 332.9551 265.7264 332.935 265.345 C 332.7765 262.3395 332.3468 259.4075 331.675 256.565 C 329.5753 253.793 326.2457 252 322.5 252 C 316.8117 252 312.1743 254.7001 311.25 260.125 C 311.6804 261.879 311.8691 265.1231 311.965 266.985 C 311.3627 278.934 303.5291 289.015 292.68 293.08 C 290.9128 293.2909 289.2723 293.9179 287.865 294.865 C 284.9294 296.8402 283 300.1956 283 304 C 283 309.151 286.5399 313.4736 291.32 314.67 C 294.5722 314.3004 297.7311 313.6263 300.765 312.675 C 301.434 312.1527 302.043 311.5557 302.575 310.895 C 319.4664 303.6423 331.5667 287.5153 332.88 268.455 L 333 268.2 L 333 268 Z" fill="#323232"/>		<path d="M 94.2849 90.7391 C 95.023 89.27 95.7359 87.8302 95.6665 86.9677 C 95.8955 74.9782 103.2427 64.5674 113.7157 60.0591 C 115.4351 59.7767 117.0184 59.0826 118.3642 58.0774 C 121.1718 55.981 122.9551 52.5433 122.8408 48.7337 C 122.6859 43.5758 119.099 39.3901 114.3947 38.385 C 111.2298 38.8863 108.1651 39.6888 105.2309 40.7638 C 104.5932 41.3138 102.5034 42.2015 102.0037 42.8846 C 88.0395 49.6996 78.8308 62.7178 76.0464 78.3635 C 75.6924 79.1092 75.4247 79.9081 75.2634 80.7524 L 41.3285 258.3416 C 40.2873 263.7905 43.9743 269.014 49.5637 270.0088 C 55.1532 271.0035 60.5283 267.3928 61.5695 261.9438 L 94.2849 90.7391 Z" fill="#323232"/>		<path d="M 306.7136 90.7391 C 305.9755 89.27 305.2626 87.8302 305.332 86.9677 C 305.103 74.9782 297.7558 64.5674 287.2829 60.0591 C 285.5634 59.7767 283.9802 59.0826 282.6343 58.0774 C 279.8267 55.981 278.0434 52.5433 278.1578 48.7337 C 278.3126 43.5758 281.8995 39.3901 286.6038 38.385 C 289.7687 38.8863 292.8334 39.6888 295.7676 40.7638 C 296.4053 41.3138 298.4951 42.2015 298.9948 42.8846 C 312.959 49.6996 322.1677 62.7178 324.9521 78.3635 C 325.3062 79.1092 325.5739 79.9081 325.7352 80.7524 L 359.67 258.3416 C 360.7112 263.7905 357.0243 269.014 351.4348 270.0088 C 345.8453 271.0035 340.4702 267.3928 339.429 261.9438 L 306.7136 90.7391 Z" fill="#323232"/>		<path d="M 173.0383 246.9212 C 172.6739 247.1508 172.3129 247.3876 171.9526 247.6281 L 172.1093 247.6004 C 172.4145 247.3709 172.7264 247.1449 173.0383 246.9212 ZM 174.2759 246.0643 C 173.8582 246.3455 173.4447 246.6299 173.0383 246.9212 C 172.7264 247.1449 172.4145 247.3709 172.1093 247.6004 C 169.7043 249.4089 167.5121 251.3987 165.5298 253.537 C 164.4055 256.8069 164.7824 260.5385 166.88 263.61 C 170.0654 268.2744 174.9028 270.5692 179.9217 268.2973 C 181.136 266.9648 183.7221 264.9983 185.2133 263.8799 C 195.4652 257.7005 208.2167 258.494 217.6651 265.12 C 218.6322 266.2256 219.7892 267.0975 221.055 267.72 C 221.0188 268.6416 221 269.5696 221 270.5 C 221 274.7499 221.3795 278.9106 222.11 282.95 C 227.9774 315.393 256.3657 340 290.5 340 C 328.8843 340 360 308.8843 360 270.5 C 360 232.1157 328.8843 201 290.5 201 C 276.4888 201 264.4144 203.9305 253.5 211.0625 C 251.011 212.6891 248.3789 214.139 246.125 216.0625 C 245.2286 217.6549 244 221.0424 244 223 C 244 229.0752 248.1748 233.8125 254.25 233.8125 C 255.0517 233.8125 257.247 233.5378 258 233.375 C 260.2602 231.3341 262.0459 229.8703 264.655 228.27 C 272.1775 223.657 281.029 221 290.5 221 C 317.8384 221 340 243.1616 340 270.5 C 340 297.8385 317.8384 320 290.5 320 C 263.2782 320 241.813 297.3026 241.625 270.125 L 241 270.5 C 241 267.5842 240.829 264.215 241.3125 261.4375 C 240.2113 255.1601 236.1897 250.5025 230.25 248.235 L 228.75 247.4375 C 227.942 247.1806 226.9712 246.3798 226.125 246.3125 C 210.6479 236.5121 191.2712 236.3407 174.7206 245.9086 L 174.4418 245.9526 L 174.2759 246.0643 Z" fill="#323232"/>		<path d="M 252.53 212.28 C 249.4734 212.9808 246.9013 214.9561 245.405 217.615 C 247.6589 215.6915 250.041 213.9066 252.53 212.28 Z" fill="#323232"/>		<path d="M 242 265 C 242 263.9604 241.9089 262.9414 241.735 261.95 C 241.2515 264.7274 241 267.5842 241 270.5 L 241 270.85 C 241.6474 269.016 242 267.0477 242 265 Z" fill="#323232"/>	</g></svg>