<?xml version="1.0" standalone="no"?><!-- Generator: Adobe Fireworks CS6, Export SVG Extension by Aaron Beall (http://fireworks.abeall.com) . Version: 0.6.1  --><!DOCTYPE svg PUBLIC "-//W3C//DTD SVG 1.1//EN" "http://www.w3.org/Graphics/SVG/1.1/DTD/svg11.dtd"><svg id="Raichu-Icons.fw-check-bold" viewBox="0 0 400 400" style="background-color:#ffffff00" version="1.1"	xmlns="http://www.w3.org/2000/svg" xmlns:xlink="http://www.w3.org/1999/xlink" xml:space="preserve"	x="0px" y="0px" width="400px" height="400px">	<g id="Layer%2019">		<path d="M 126 330.5 C 118.2679 322.4918 118.3314 309.6686 126.1419 301.8581 L 326.8581 66.1419 C 334.6686 58.3314 347.2679 58.4918 355 66.5 L 355 66.5 C 362.7321 74.5082 362.6686 87.3314 354.8581 95.1419 L 154.1419 330.8581 C 146.3314 338.6686 133.7321 338.5082 126 330.5 L 126 330.5 Z" fill="#333333"/>		<g>			<path d="M 69.7301 244.1897 C 76.988 237.1398 88.9679 238.0005 97.1147 246.157 L 153.2159 302.3247 C 161.3627 310.4812 162.054 322.3069 154.7961 329.3567 L 152.2699 331.8104 C 145.012 338.8601 133.0321 337.9995 124.8853 329.843 L 68.7841 273.6753 C 60.6373 265.5188 59.946 253.6931 67.2039 246.6433 L 69.7301 244.1897 Z" fill="#333333"/>		</g>	</g></svg>