<?xml version="1.0" standalone="no"?><!-- Generator: Adobe Fireworks CS6, Export SVG Extension by Aaron Beall (http://fireworks.abeall.com) . Version: 0.6.1  --><!DOCTYPE svg PUBLIC "-//W3C//DTD SVG 1.1//EN" "http://www.w3.org/Graphics/SVG/1.1/DTD/svg11.dtd"><svg id="Raichu-Icons.fw-news" viewBox="0 0 400 400" style="background-color:#ffffff00" version="1.1"	xmlns="http://www.w3.org/2000/svg" xmlns:xlink="http://www.w3.org/1999/xlink" xml:space="preserve"	x="0px" y="0px" width="400px" height="400px">	<g id="Layer%20192">		<path id="Ellipse9" d="M 301 280 C 301 285.5229 296.5229 290 291 290 C 285.4771 290 281 285.5229 281 280 C 281 274.4771 285.4771 270 291 270 C 296.5229 270 301 274.4771 301 280 Z" fill="#333333"/>		<path id="Ellipse10" d="M 280 280 C 280 285.5229 275.5229 290 270 290 C 264.4771 290 260 285.5229 260 280 C 260 274.4771 264.4771 270 270 270 C 275.5229 270 280 274.4771 280 280 Z" fill="#333333"/>		<path id="Ellipse11" d="M 211 280 C 211 285.5229 206.5229 290 201 290 C 195.4771 290 191 285.5229 191 280 C 191 274.4771 195.4771 270 201 270 C 206.5229 270 211 274.4771 211 280 Z" fill="#333333"/>		<path id="Ellipse12" d="M 103 126 C 103 120.4771 107.4771 116 113 116 C 118.5229 116 123 120.4771 123 126 C 123 131.5229 118.5229 136 113 136 C 107.4771 136 103 131.5229 103 126 Z" fill="#333333"/>		<path id="Ellipse13" d="M 104 165 C 104 159.4771 108.4771 155 114 155 C 119.5229 155 124 159.4771 124 165 C 124 170.5229 119.5229 175 114 175 C 108.4771 175 104 170.5229 104 165 Z" fill="#333333"/>		<path id="Ellipse14" d="M 103 205 C 103 199.4771 107.4771 195 113 195 C 118.5229 195 123 199.4771 123 205 C 123 210.5229 118.5229 215 113 215 C 107.4771 215 103 210.5229 103 205 Z" fill="#333333"/>		<path id="Ellipse15" d="M 61 280 C 61 274.4771 65.4771 270 71 270 C 76.5229 270 81 274.4771 81 280 C 81 285.5229 76.5229 290 71 290 C 65.4771 290 61 285.5229 61 280 Z" fill="#333333"/>		<path id="Ellipse16" d="M 81 280 C 81 285.5229 76.5229 290 71 290 C 65.4771 290 61 285.5229 61 280 C 61 274.4771 65.4771 270 71 270 C 76.5229 270 81 274.4771 81 280 Z" fill="#333333"/>		<path id="Ellipse17" d="M 81 70 C 81 75.5229 76.5229 80 71 80 C 65.4771 80 61 75.5229 61 70 C 61 64.4771 65.4771 60 71 60 C 76.5229 60 81 64.4771 81 70 Z" fill="#333333"/>		<path id="Ellipse18" d="M 233 126 C 233 120.4771 237.4771 116 243 116 C 248.5229 116 253 120.4771 253 126 C 253 131.5229 248.5229 136 243 136 C 237.4771 136 233 131.5229 233 126 Z" fill="#333333"/>		<path id="Ellipse19" d="M 233 165 C 233 159.4771 237.4771 155 243 155 C 248.5229 155 253 159.4771 253 165 C 253 170.5229 248.5229 175 243 175 C 237.4771 175 233 170.5229 233 165 Z" fill="#333333"/>		<path id="Ellipse20" d="M 233 205 C 233 199.4771 237.4771 195 243 195 C 248.5229 195 253 199.4771 253 205 C 253 210.5229 248.5229 215 243 215 C 237.4771 215 233 210.5229 233 205 Z" fill="#333333"/>		<path id="Ellipse21" d="M 281 280 C 281 274.4771 285.4771 270 291 270 C 296.5229 270 301 274.4771 301 280 C 301 285.5229 296.5229 290 291 290 C 285.4771 290 281 285.5229 281 280 Z" fill="#333333"/>		<path id="Ellipse22" d="M 281 70 C 281 64.4771 285.4771 60 291 60 C 296.5229 60 301 64.4771 301 70 C 301 75.5229 296.5229 80 291 80 C 285.4771 80 281 75.5229 281 70 Z" fill="#333333"/>		<path d="M 291 290 L 271 290 L 271 270 L 291 270 L 291 290 Z" fill="#333333"/>		<path d="M 291 80 L 70 80 L 70 60 L 291 60 L 291 80 Z" fill="#333333"/>		<path d="M 61 281 L 61 69 L 81 69 L 81 281 L 61 281 Z" fill="#333333"/>		<path d="M 201 290 L 70 290 L 70 270 L 201 270 L 201 290 Z" fill="#333333"/>		<path d="M 113 116 L 244 116 L 244 136 L 113 136 L 113 116 Z" fill="#333333"/>		<path d="M 113 155 L 244 155 L 244 175 L 113 175 L 113 155 Z" fill="#333333"/>		<path d="M 113 195 L 244 195 L 244 215 L 113 215 L 113 195 Z" fill="#333333"/>		<path d="M 281 280.0407 L 281 69 L 301 69 L 301 280.0407 L 281 280.0407 Z" fill="#333333"/>		<path d="M 301 69 L 300.95 69 C 300.9827 69.3289 301 69.6626 301 70 L 301 69 Z" fill="#333333"/>		<path d="M 292 60.05 L 292 60 L 291 60 C 291.3375 60 291.6711 60.0173 292 60.05 Z" fill="#333333"/>		<path d="M 291 290 L 292 290 L 292 289.95 C 291.6711 289.9827 291.3375 290 291 290 Z" fill="#333333"/>		<path d="M 318.505 83.5249 L 318.4936 83.4355 C 318.4525 83.1011 318.3973 82.772 318.325 82.45 C 317.2856 77.8269 313.1074 74.5649 308.37 74.675 C 308.0402 74.6826 307.7054 74.7046 307.3711 74.7456 L 307.335 74.75 L 306 74.915 L 306 145.46 L 324.225 293.8999 L 126.1 318.2251 L 123.25 295 L 103.14 295 L 107.5 330.5149 L 107.5064 330.5645 C 108.1782 336.0356 113.1578 339.926 118.629 339.2544 L 336.5645 312.4937 C 336.8988 312.4526 337.2281 312.3975 337.55 312.325 C 342.4949 311.2134 345.885 306.5078 345.2543 301.3711 L 318.505 83.5249 Z" fill="#333333"/>		<path d="M 313.4936 78.4355 L 313.3719 77.4448 L 313.325 77.45 C 313.3973 77.772 313.4525 78.1011 313.4936 78.4355 Z" fill="#333333"/>		<path d="M 303.37 79.675 L 303.3617 79.624 L 302.3711 79.7456 C 302.7054 79.7046 303.0402 79.6826 303.37 79.675 Z" fill="#333333"/>		<path d="M 331.5645 307.4937 L 332.5552 307.3721 L 332.55 307.325 C 332.2281 307.3975 331.8988 307.4526 331.5645 307.4937 Z" fill="#333333"/>	</g></svg>