<?xml version="1.0" standalone="no"?><!-- Generator: Adobe Fireworks CS6, Export SVG Extension by Aaron Beall (http://fireworks.abeall.com) . Version: 0.6.1  --><!DOCTYPE svg PUBLIC "-//W3C//DTD SVG 1.1//EN" "http://www.w3.org/Graphics/SVG/1.1/DTD/svg11.dtd"><svg id="Raichu-Icons.fw-enter" viewBox="0 0 400 400" style="background-color:#ffffff00" version="1.1"	xmlns="http://www.w3.org/2000/svg" xmlns:xlink="http://www.w3.org/1999/xlink" xml:space="preserve"	x="0px" y="0px" width="400px" height="400px">	<g id="Layer%201105">		<path d="M 126.3604 149.0963 L 165.8589 188.652 L 50 188.652 C 44.4766 188.652 39.999 193.1341 40 198.6666 C 40 204.1972 44.4766 208.6813 50 208.6813 L 166.5249 208.6813 L 126.3604 248.904 C 122.4561 252.815 122.4551 259.1563 126.3604 263.0673 C 130.2656 266.9782 136.5977 266.9773 140.5029 263.0663 L 197.0713 206.4153 C 199.1099 204.3742 200.0742 201.671 199.9839 198.9962 C 199.9873 198.9052 199.9966 198.8163 199.9971 198.7263 C 199.9971 198.7057 200 198.6862 200 198.6666 C 200 198.6559 199.9985 198.6461 199.9985 198.6353 C 199.9976 198.3155 199.9814 197.9977 199.9502 197.6789 C 199.9355 197.5292 199.9072 197.3835 199.8862 197.2358 C 199.8613 197.0598 199.8403 196.8837 199.8062 196.7087 C 199.7729 196.5424 199.7275 196.382 199.6865 196.2177 C 199.6475 196.0652 199.6143 195.9106 199.5684 195.7581 C 199.5205 195.5996 199.4609 195.4471 199.4058 195.2926 C 199.3506 195.138 199.2998 194.9835 199.2373 194.8319 C 199.1787 194.6911 199.1099 194.5561 199.0454 194.4182 C 198.9707 194.2588 198.8999 194.0984 198.8164 193.9429 C 198.748 193.8148 198.6699 193.6945 198.5967 193.5693 C 198.5039 193.4129 198.415 193.2544 198.313 193.1019 C 198.2251 192.9708 198.127 192.8476 198.0332 192.7214 C 197.9326 192.5855 197.8384 192.4466 197.73 192.3156 C 197.5615 192.1102 197.3809 191.9156 197.1968 191.7249 C 197.1533 191.6789 197.1157 191.63 197.0713 191.585 L 140.502 134.934 C 136.5967 131.022 130.2656 131.022 126.3604 134.934 C 122.4551 138.845 122.4551 145.1853 126.3604 149.0963 Z" fill="#333333"/>		<path d="M 120.05 350 C 120.5517 355.0534 124.8146 359 130 359 L 350 359 C 355.5229 359 360 354.5229 360 349 L 360 49 C 360 43.4771 355.5229 39 350 39 L 130 39 C 124.4771 39 120 43.4771 120 49 L 120 89.3333 C 120 94.8563 124.4771 99.3333 130 99.3333 C 135.5229 99.3333 140 94.8563 140 89.3333 L 140 59 L 340 59 L 340 339 L 140 339 L 140 309.3333 L 139.95 309.3333 C 139.9827 309.0044 140 308.6708 140 308.3333 C 140 302.8104 135.5229 298.3333 130 298.3333 C 124.4771 298.3333 120 302.8104 120 308.3333 C 120 308.6708 120.0173 309.0044 120.05 309.3333 L 120 309.3333 L 120 349 C 120 349.3375 120.0173 349.6711 120.05 350 ZM 120 350 L 120.05 350 C 120.0173 349.6711 120 349.3375 120 349 L 120 350 Z" fill="#333333"/>	</g></svg>