<?xml version="1.0" standalone="no"?><!-- Generator: Adobe Fireworks CS6, Export SVG Extension by Aaron Beall (http://fireworks.abeall.com) . Version: 0.6.1  --><!DOCTYPE svg PUBLIC "-//W3C//DTD SVG 1.1//EN" "http://www.w3.org/Graphics/SVG/1.1/DTD/svg11.dtd"><svg id="Raichu-Icons.fw-laureate-id" viewBox="0 0 400 400" style="background-color:#ffffff00" version="1.1"	xmlns="http://www.w3.org/2000/svg" xmlns:xlink="http://www.w3.org/1999/xlink" xml:space="preserve"	x="0px" y="0px" width="400px" height="400px">	<g id="Layer%20190">		<path d="M 194.4126 79.8918 C 194.2069 74.4454 189.7304 70.0491 184.4243 70.0689 C 181.336 70.0804 178.6459 71.5856 176.98 73.915 C 172.1287 78.467 147.662 103.0889 137.1239 145.8144 C 123.6445 200.4655 141.8993 232.8573 141.8993 232.8573 C 141.8993 232.8573 142.3785 233.6792 143.27 235.035 C 144.4449 236.8216 146.3359 239.5334 148.79 242.495 C 150.4541 243.4522 152.3709 243.9993 154.3973 244 C 160.4787 244.0019 165.2272 239.0643 164.9916 232.9751 C 164.9711 232.4451 164.9121 231.9247 164.82 231.415 C 162.8193 229.1708 160.8573 226.5327 159.15 223.475 C 158.6624 222.6018 158.1975 221.6923 157.7568 220.75 C 150.5069 205.25 150.2798 183.6116 155.3613 152.8639 C 160.6592 120.8059 184.1343 94.6149 190.305 88.195 C 192.8979 86.4389 194.5442 83.3748 194.4126 79.8918 ZM 211.2475 316.7242 C 211.0417 311.2778 206.5652 306.8815 201.2591 306.9013 C 195.9646 306.921 191.8418 311.3319 192.0404 316.7568 C 192.239 322.1854 196.6895 326.5899 201.9913 326.5917 C 207.3046 326.5934 211.4533 322.1741 211.2475 316.7242 ZM 252.2475 163.7242 C 252.0417 158.2778 247.5652 153.8815 242.2591 153.9013 C 236.9646 153.921 232.8418 158.3319 233.0404 163.7568 C 233.239 169.1854 237.6895 173.5899 242.9913 173.5917 C 248.3046 173.5934 252.4533 169.1741 252.2475 163.7242 ZM 189.9924 149.9774 C 189.7783 144.4454 185.1205 139.98 179.5994 140.0001 C 174.0903 140.0201 169.8006 144.5003 170.0072 150.0105 C 170.2139 155.5244 174.8447 159.9982 180.3612 160 C 185.8898 160.0017 190.2066 155.513 189.9924 149.9774 ZM 180.3258 189.0545 C 180.12 183.6082 175.6436 179.2119 170.3374 179.2316 C 165.0429 179.2513 160.9202 183.6622 161.1187 189.0872 C 161.1274 189.3242 161.1454 189.5572 161.17 189.79 C 160.0682 202.1611 163.8194 233.5565 193.0823 238.1313 C 228.7119 243.7013 238.0119 208.5922 238.0119 208.5922 C 238.0119 208.5922 244.4642 196.5273 233.6438 192.1591 C 222.8233 187.7911 219.9153 198.9138 219.9153 198.9138 C 219.9153 198.9138 217.5579 219.8948 196.8999 217.4521 C 176.2418 215.0093 180.4917 190.7653 180.4917 190.7653 L 180.25 190.74 C 180.3212 190.1928 180.3475 189.6285 180.3258 189.0545 ZM 330.1003 216.2896 C 329.8946 210.8433 325.4181 206.447 320.112 206.4667 C 315.2326 206.4849 311.3487 210.2312 310.925 215.065 L 310.7478 215.0365 C 292.3333 276 264.6667 293 232.75 303.625 C 228 305.125 220 304.375 220.5 316 C 220.875 323.75 231.5072 322.8134 232.455 322.58 C 314.6667 302.3333 330.2453 218.3379 330.2453 218.3379 L 329.975 218.29 C 330.0808 217.6432 330.1262 216.9758 330.1003 216.2896 ZM 91.473 187.9079 C 91.2672 182.4615 86.7908 178.0652 81.4847 178.085 C 76.1901 178.1047 72.0674 182.5156 72.2659 187.9405 C 72.276 188.2179 72.2981 188.4934 72.33 188.765 C 70.9798 211.7965 73.868 225.2284 81.0081 246 C 103.3333 303.3333 160.6716 320.9636 160.6716 320.9636 C 162.5422 321.4537 172.5922 322.9567 173.12 322.875 C 178.1494 322.0957 182 318.7478 182 313.5 C 182 310.0634 180.347 308.0105 177.795 306.095 C 176.0406 304.7781 163.7218 301.9647 163.7218 301.9647 C 163.7218 301.9647 115.3333 288.6667 95.5079 229.5 C 90.9541 215.9099 91.2466 201.1048 91.26 190.4 C 91.4319 189.6044 91.5055 188.7681 91.473 187.9079 ZM 146.3513 97.7741 C 146.1456 92.3278 141.6691 87.9315 136.363 87.9512 C 132.3977 87.966 129.0876 90.4428 127.76 93.965 C 123.0421 100.9397 103.1568 132.1532 102.0652 164.2305 C 101.5533 179.2738 95.3985 213.5877 113.7575 246 C 134.0072 281.75 172.5 293.625 172.5 293.625 C 172.5 293.625 183.125 297 186.125 295.375 C 189.875 294.375 192 290.896 192 286.5 C 192 282.392 189.6422 278.8351 186.205 277.11 C 185.0243 276.5174 145.757 272.25 125.9179 223.8129 C 124.7366 220.929 109.1861 154.9391 143.84 104.705 C 145.4876 102.9232 146.4533 100.474 146.3513 97.7741 ZM 328.2141 172.2693 C 328.0083 166.823 323.5318 162.4266 318.2257 162.4464 C 315.1458 162.4578 312.4619 163.9564 310.795 166.275 C 304.414 172.0175 286.5872 189.9792 277.9795 218.2031 C 271.9609 237.9374 252.8241 265.9332 221.945 275.04 C 221.6336 275.0135 216.8289 276.6206 215.13 277.695 C 212.048 279.6441 210 282.0836 210 286 C 210 291.2392 213.6655 295.6227 218.57 296.73 C 219.3521 296.9064 224.875 296.125 227.56 294.83 C 238.6526 291.959 250.6826 286.8366 261.8187 278.1825 C 283.2018 261.5651 293.8596 237.3438 297.9725 223.2564 C 304.0283 202.5147 318.5671 189.2976 324.5923 180.3099 L 324.55 180.25 C 326.8851 178.4557 328.338 175.5492 328.2141 172.2693 ZM 315.2959 139.2243 C 315.0901 133.778 310.6137 129.3817 305.3076 129.4015 C 303.0653 129.4098 301.0327 130.208 299.45 131.535 L 299.212 131.2272 C 299.212 131.2272 258.8672 162.8843 250.0048 205.1263 C 241.8943 243.7841 212.3817 248.0444 200.8782 248.0147 C 196.6236 248.0038 191.9614 246.8954 187.775 245.505 C 184.3968 244.3834 181.3344 243.0799 179.04 242.015 C 173.2336 242.3088 168.7872 247.1256 169.0079 253.0116 C 169.1156 255.8839 170.3179 258.5018 172.195 260.46 C 174.6079 261.6051 177.6445 262.8628 181.205 263.97 C 186.6535 265.6644 193.321 267.0019 200.8288 267.0213 C 221.5017 267.0746 242.2041 255.7907 251.9014 245.1453 C 261.5987 234.4999 266.8378 220.8939 268.9923 212.1778 C 274.5525 189.6842 286.3617 168.2905 311.9236 147.5157 L 311.66 147.18 C 313.977 145.3838 315.4193 142.4897 315.2959 139.2243 ZM 270.7043 341.5011 C 349.9595 302.4532 382.5553 206.549 343.5096 127.2902 C 342.041 124.3095 340.4779 121.4079 338.8504 118.5616 C 338.7568 118.3732 338.6491 118.1948 338.5469 118.0139 L 338.3193 117.6185 C 335.6192 113.3591 330.0902 111.7308 325.4636 114.01 C 320.5073 116.4506 318.4724 122.4442 320.913 127.3987 C 321.0678 127.7146 321.2386 128.018 321.4224 128.3101 C 322.8804 130.8542 324.2665 133.4577 325.5815 136.1239 C 359.7487 205.4792 331.225 289.4031 261.8739 323.5729 C 192.5209 357.743 108.6024 329.2212 74.4341 259.8651 C 40.2657 190.5084 68.7905 106.5853 138.1427 72.4159 C 180.909 51.3447 229.2132 54.1205 267.975 75.605 C 254.9998 83.7144 236.4727 96.8444 218.216 120.0144 C 198.8127 144.6397 191.8612 189.3042 192.008 196.9739 C 192.1071 202.1495 194.8162 206.9847 200.9848 207.0006 C 210.3209 207.0247 211.0138 197.0229 211.0138 197.0229 C 211.0138 197.0229 217.3131 163.0872 232.1761 137.0564 C 244.078 116.2115 280.3276 92.8047 291.21 86.09 C 291.6451 85.9462 292.077 85.7701 292.4999 85.5618 C 297.4532 83.1211 299.4901 77.127 297.0506 72.1739 C 296.2301 70.5074 295.001 69.1808 293.5513 68.233 L 293.57 68.2142 C 247.1236 34.7822 184.2261 27.4284 129.3102 54.4869 C 50.055 93.5353 17.4604 189.4399 56.506 268.6987 C 95.5515 347.9565 191.4513 380.5507 270.7043 341.5011 Z" fill="#333333"/>	</g></svg>