<?xml version="1.0" standalone="no"?><!-- Generator: Adobe Fireworks CS6, Export SVG Extension by Aaron Beall (http://fireworks.abeall.com) . Version: 0.6.1  --><!DOCTYPE svg PUBLIC "-//W3C//DTD SVG 1.1//EN" "http://www.w3.org/Graphics/SVG/1.1/DTD/svg11.dtd"><svg id="Raichu-Icons.fw-group" viewBox="0 0 400 400" style="background-color:#ffffff00" version="1.1"	xmlns="http://www.w3.org/2000/svg" xmlns:xlink="http://www.w3.org/1999/xlink" xml:space="preserve"	x="0px" y="0px" width="400px" height="400px">	<g id="Layer%20152">		<path d="M 242.0869 222.8643 C 265.4453 208.9355 281.0996 183.4297 281.0996 154.2568 C 281.0996 110.1655 245.3555 74.4233 201.2656 74.4233 C 157.1738 74.4233 121.4326 110.1655 121.4326 154.2568 C 121.4326 183.2866 136.9287 208.6914 160.0977 222.6646 C 124.623 238.3335 99.8633 273.8174 99.8633 315.0923 C 99.8633 325.8335 101.5576 336.1743 104.6641 345.8838 C 104.8359 346.8032 105.1348 347.6753 105.5381 348.4878 C 107.1738 351.7803 110.5625 354.0483 114.4883 354.0483 C 120.0117 354.0483 124.4883 349.5713 124.4883 344.0483 C 124.4883 343.6802 124.4658 343.3174 124.4277 342.9595 C 124.2695 341.5068 123.7949 340.1523 123.083 338.9546 C 120.7695 331.4087 119.5195 323.3975 119.5195 315.0923 C 119.5195 271.7891 153.3564 236.4043 196.0293 233.9014 C 197.7617 234.0137 199.5039 234.0908 201.2656 234.0908 C 202.8906 234.0908 204.499 234.0273 206.0996 233.9321 C 248.582 236.6333 282.209 271.9253 282.209 315.0923 C 282.209 323.8955 280.8066 332.3701 278.2188 340.3086 C 278.1055 340.6548 277.9863 340.9976 277.8691 341.3418 C 277.627 342.2036 277.4883 343.1089 277.4883 344.0483 C 277.4883 349.5713 281.9658 354.0483 287.4883 354.0483 C 290.9375 354.0483 293.9795 352.3018 295.7773 349.645 C 296.7578 348.1943 297.3564 346.4692 297.4609 344.6123 C 300.3125 335.2729 301.8633 325.3657 301.8633 315.0923 C 301.8633 273.9941 277.3164 238.6348 242.0869 222.8643 ZM 141.3857 154.2568 C 141.3857 121.1855 168.1953 94.3765 201.2656 94.3765 C 234.3359 94.3765 261.1465 121.1855 261.1465 154.2568 C 261.1465 186.9688 234.9141 213.5342 202.3418 214.1108 C 201.8496 214.1035 201.3574 214.0918 200.8633 214.0918 C 200.5488 214.0918 200.2363 214.1011 199.9219 214.104 C 167.4746 213.3867 141.3857 186.8784 141.3857 154.2568 Z" fill="#323232"/>		<path d="M 303.416 193.9009 C 322.752 182.3696 334.6523 164.1616 338.1807 141.6855 C 339.0361 137.0044 339.4971 132.1855 339.4971 127.2568 C 339.4971 96.397 321.9766 69.6465 296.3506 56.3584 C 296.0332 56.1924 295.7197 56.0195 295.3994 55.8574 C 295.085 55.6987 294.7686 55.5435 294.4531 55.3867 C 294.374 55.3486 294.2969 55.3076 294.2178 55.2695 C 294.0977 55.2109 293.9795 55.1484 293.8584 55.0908 C 293.8105 55.0718 293.7588 55.0586 293.7109 55.04 C 283.3818 50.1621 271.8447 47.4233 259.6641 47.4233 C 252.6064 47.4233 245.7764 48.375 239.2598 50.0977 C 239.1445 50.1211 239.0342 50.1563 238.9209 50.1836 C 238.8545 50.2012 238.7881 50.2163 238.7217 50.2344 L 238.7217 50.2349 C 234.4336 51.3623 231.2666 55.2539 231.2666 59.8955 C 231.2666 65.4185 235.7441 69.8955 241.2666 69.8955 C 241.7158 69.8955 242.1543 69.8555 242.5879 69.7983 C 242.6201 69.8193 242.6553 69.8379 242.6885 69.8594 C 242.9121 69.793 243.1396 69.7354 243.3643 69.6709 C 243.7363 69.5918 244.0986 69.4873 244.4551 69.3672 C 249.3115 68.0811 254.4023 67.3765 259.6641 67.3765 C 269.9287 67.3765 279.5869 69.9629 288.0303 74.5137 C 288.2998 74.6602 288.5645 74.8125 288.8301 74.9624 C 289.2119 75.1758 289.5889 75.394 289.9658 75.6152 C 307.5498 86.0425 319.3418 105.2041 319.3418 127.1323 C 319.3418 142.2476 313.6973 156.1143 304.4199 166.7158 C 302.625 168.5864 300.5459 170.6299 298.415 172.6626 C 298.0303 172.9951 297.6553 173.3394 297.2627 173.6621 C 297.2607 173.6963 297.2568 173.7295 297.2539 173.7642 C 291.1406 179.5371 284.959 184.9404 284.0586 185.7246 C 281.3496 188.0845 279.2871 191.7021 279.8926 195.3672 C 280.4971 199.0244 283.2715 201.5571 286.1729 203.5708 C 287.8281 204.7202 289.5859 205.7256 291.2305 206.8882 C 294.6094 209.2769 297.8896 211.8164 301.082 214.4473 C 305.9668 218.4727 310.75 222.6895 315.126 227.2681 C 317.2012 229.4399 319.2246 231.6895 320.9336 234.1665 L 320.9063 234.1753 C 333.0908 248.7148 340.4043 267.5918 340.4043 287.9673 C 340.4043 296.771 339.002 305.2456 336.4141 313.1831 C 336.3008 313.5298 336.1816 313.8726 336.0645 314.2163 C 335.8223 315.0786 335.6836 315.9839 335.6836 316.9233 C 335.6836 322.4468 340.1611 326.9233 345.6836 326.9233 C 349.1328 326.9233 352.1748 325.1772 353.9727 322.52 C 354.5762 320.8618 355.1367 319.1841 355.6563 317.4878 C 358.5078 308.1479 360.0586 298.2407 360.0586 287.9673 C 360.0586 246.8696 338.6445 209.6704 303.416 193.9009 Z" fill="#323232"/>		<path d="M 96.7832 193.9009 C 77.4473 182.3696 65.5469 164.1616 62.0186 141.6855 C 61.1631 137.0044 60.7021 132.1855 60.7021 127.2568 C 60.7021 96.397 78.2227 69.6465 103.8486 56.3584 C 104.166 56.1924 104.4795 56.0195 104.7998 55.8574 C 105.1143 55.6987 105.4307 55.5435 105.7461 55.3867 C 105.8252 55.3486 105.9023 55.3076 105.9814 55.2695 C 106.1016 55.2109 106.2197 55.1484 106.3408 55.0908 C 106.3887 55.0718 106.4404 55.0586 106.4883 55.04 C 116.8174 50.1621 128.3545 47.4233 140.5352 47.4233 C 147.5928 47.4233 154.4229 48.375 160.9395 50.0977 C 161.0547 50.1211 161.165 50.1563 161.2783 50.1836 C 161.3447 50.2012 161.4111 50.2163 161.4775 50.2344 L 161.4775 50.2349 C 165.7656 51.3623 168.9326 55.2539 168.9326 59.8955 C 168.9326 65.4185 164.4551 69.8955 158.9326 69.8955 C 158.4834 69.8955 158.0449 69.8555 157.6113 69.7983 C 157.5791 69.8193 157.5439 69.8379 157.5107 69.8594 C 157.2871 69.793 157.0596 69.7354 156.835 69.6709 C 156.4629 69.5918 156.1006 69.4873 155.7441 69.3672 C 150.8877 68.0811 145.7969 67.3765 140.5352 67.3765 C 130.2705 67.3765 120.6123 69.9629 112.1689 74.5137 C 111.8994 74.6602 111.6348 74.8125 111.3691 74.9624 C 110.9873 75.1758 110.6104 75.394 110.2334 75.6152 C 92.6494 86.0425 80.8574 105.2041 80.8574 127.1323 C 80.8574 142.2476 86.502 156.1143 95.7793 166.7158 C 97.5742 168.5864 99.6533 170.6299 101.7842 172.6626 C 102.1689 172.9951 102.5439 173.3394 102.9365 173.6621 C 102.9385 173.6963 102.9424 173.7295 102.9453 173.7642 C 109.0586 179.5371 115.2402 184.9404 116.1406 185.7246 C 118.8496 188.0845 120.9121 191.7021 120.3066 195.3672 C 119.7021 199.0244 116.9277 201.5571 114.0264 203.5708 C 112.3711 204.7202 110.6133 205.7256 108.9688 206.8882 C 105.5898 209.2769 102.3096 211.8164 99.1172 214.4473 C 94.2324 218.4727 89.4492 222.6895 85.0732 227.2681 C 82.998 229.4399 80.9746 231.6895 79.2656 234.1665 L 79.293 234.1753 C 67.1084 248.7148 59.7949 267.5918 59.7949 287.9673 C 59.7949 296.771 61.1973 305.2456 63.7852 313.1831 C 63.8984 313.5298 64.0176 313.8726 64.1348 314.2163 C 64.377 315.0786 64.5156 315.9839 64.5156 316.9233 C 64.5156 322.4468 60.0381 326.9233 54.5156 326.9233 C 51.0664 326.9233 48.0244 325.1772 46.2266 322.52 C 45.623 320.8618 45.0625 319.1841 44.543 317.4878 C 41.6914 308.1479 40.1406 298.2407 40.1406 287.9673 C 40.1406 246.8696 61.5547 209.6704 96.7832 193.9009 Z" fill="#323232"/>	</g></svg>