<?xml version="1.0" standalone="no"?><!-- Generator: Adobe Fireworks CS6, Export SVG Extension by Aaron Beall (http://fireworks.abeall.com) . Version: 0.6.1  --><!DOCTYPE svg PUBLIC "-//W3C//DTD SVG 1.1//EN" "http://www.w3.org/Graphics/SVG/1.1/DTD/svg11.dtd"><svg id="Raichu-Icons.fw-trending" viewBox="0 0 400 400" style="background-color:#ffffff00" version="1.1"	xmlns="http://www.w3.org/2000/svg" xmlns:xlink="http://www.w3.org/1999/xlink" xml:space="preserve"	x="0px" y="0px" width="400px" height="400px">	<g id="Layer%201116">		<path d="M 101.7676 298.2847 C 98.9688 303.0313 92.8535 304.6104 88.1055 301.812 L 88.1055 301.812 C 83.3604 299.0137 81.7813 292.8975 84.5801 288.1509 L 139.1523 203.2949 C 141.9512 198.5488 148.0664 196.9697 152.8125 199.7681 L 152.8125 199.7681 C 157.5596 202.5664 159.1387 208.6826 156.3398 213.4287 L 101.7676 298.2847 Z" fill="#323232"/>		<path d="M 266.5127 227.7417 C 271.2588 230.5405 272.8379 236.6558 270.0391 241.4028 L 270.0391 241.4028 C 267.2412 246.1489 261.125 247.728 256.3789 244.9292 L 182.5215 198.3569 C 177.7764 195.5581 176.1973 189.4429 178.9961 184.6968 L 178.9961 184.6968 C 181.7939 179.9497 187.9102 178.3706 192.6563 181.1694 L 266.5127 227.7417 Z" fill="#323232"/>		<path d="M 301.0361 107.1733 C 301.917 101.7349 307.0391 98.0391 312.4785 98.9189 L 312.4785 98.9189 C 317.917 99.7993 321.6123 104.9224 320.7324 110.3613 L 294.665 231.522 C 293.7852 236.9609 288.6631 240.6567 283.2227 239.7759 L 283.2227 239.7759 C 277.7842 238.896 274.0879 233.7734 274.9688 228.3345 L 301.0361 107.1733 Z" fill="#323232"/>		<path d="M 159.0176 160.376 C 148.1494 160.376 139.3379 169.1865 139.3379 180.0542 C 139.3379 190.9224 148.1494 199.7329 159.0176 199.7329 C 169.8848 199.7329 178.6953 190.9224 178.6953 180.0542 C 178.6953 169.1865 169.8848 160.376 159.0176 160.376 ZM 159.0166 219.9351 C 136.9922 219.9351 119.1367 202.0796 119.1367 180.0547 C 119.1367 158.0293 136.9922 140.1738 159.0166 140.1738 C 181.043 140.1738 198.8975 158.0293 198.8975 180.0547 C 198.8975 202.0796 181.043 219.9351 159.0166 219.9351 Z" fill="#323232"/>		<path d="M 279.6387 240.0049 C 268.7715 240.0049 259.9609 248.8154 259.9609 259.6831 C 259.9609 270.5513 268.7715 279.3618 279.6387 279.3618 C 290.5059 279.3618 299.3174 270.5513 299.3174 259.6831 C 299.3174 248.8154 290.5059 240.0049 279.6387 240.0049 ZM 279.6387 299.564 C 257.6143 299.564 239.7588 281.7085 239.7588 259.6836 C 239.7588 237.6582 257.6143 219.8027 279.6387 219.8027 C 301.665 219.8027 319.5195 237.6582 319.5195 259.6836 C 319.5195 281.7085 301.665 299.564 279.6387 299.564 Z" fill="#323232"/>		<path d="M 96.9063 283.9155 C 97.4453 284.1748 97.9756 284.4487 98.501 284.731 C 97.9971 284.4146 97.4658 284.1396 96.9063 283.9155 Z" fill="#323232"/>		<path d="M 280.6992 87.7734 C 282.2432 92.3862 286.957 95.3081 291.8936 94.4429 C 297.333 93.4907 300.9707 88.3071 300.0186 82.8672 C 299.9521 82.4956 299.8643 82.1343 299.7607 81.7813 C 299.7852 81.7788 299.7988 81.7847 299.8271 81.7788 C 299.4531 72.0933 306.6172 62.4517 316.4297 60.7329 C 327.1348 58.8579 337.333 66.0161 339.208 76.7207 C 341.084 87.4258 333.9258 97.6245 323.2188 99.5 C 320.4111 99.9917 317.2705 99.8833 314.6719 99.2305 C 314.626 99.333 314.9502 99.4009 314.9043 99.5029 C 313.207 98.7988 311.2998 98.5439 309.3545 98.8848 C 303.915 99.8374 300.2773 105.0195 301.2295 110.4595 C 301.8467 113.9771 304.2354 116.7319 307.3154 117.9878 C 307.8809 118.1748 308.4502 118.3535 309.0264 118.5166 C 314.6055 120.0898 320.6152 120.4648 326.707 119.3989 C 348.4004 115.5991 362.9082 94.9302 359.1074 73.2344 C 355.3076 51.54 334.6387 37.0337 312.9443 40.8335 C 292.1582 44.4756 277.9844 63.5991 280.1719 84.2729 C 280.1504 84.9463 280.1973 85.6294 280.3184 86.3179 C 280.4043 86.8208 280.542 87.3027 280.6992 87.7734 ZM 299.5469 81.145 C 299.5303 81.0991 299.5176 81.0508 299.499 81.0044 C 299.5596 80.9922 299.5615 81.0542 299.5469 81.145 Z" fill="#323232"/>		<path d="M 119.4805 318.3765 C 118.6719 313.5815 114.4668 309.9648 109.4551 310.0547 C 103.9346 310.1509 99.5371 314.709 99.6348 320.23 C 99.6426 320.6064 99.6748 320.9761 99.7217 321.3428 C 99.6963 321.3423 99.6836 321.3325 99.6553 321.3345 C 98.5234 330.96 89.9512 339.376 79.9912 339.5522 C 69.126 339.7451 60.1592 331.0923 59.9658 320.2266 C 59.7734 309.3608 68.4258 300.395 79.292 300.2012 C 82.1445 300.1509 85.2305 300.7451 87.6963 301.793 C 87.7578 301.6992 87.4463 301.5811 87.5088 301.4873 C 89.0762 302.4473 90.9219 302.9956 92.8955 302.9595 C 98.417 302.8613 102.8135 298.3047 102.7158 292.7822 C 102.6523 289.2124 100.7188 286.1211 97.8711 284.4028 C 97.3418 284.1294 96.8047 283.8657 96.2627 283.6152 C 90.9951 281.1968 85.1143 279.8926 78.9316 280.0029 C 56.9111 280.394 39.376 298.5649 39.7676 320.5864 C 40.1592 342.6079 58.3291 360.1431 80.3506 359.7505 C 101.4492 359.3765 118.416 342.6802 119.459 321.916 C 119.585 321.2554 119.6455 320.5732 119.6328 319.8745 C 119.623 319.3623 119.5635 318.8667 119.4805 318.3765 ZM 99.834 322.0039 C 99.8438 322.0527 99.8486 322.1016 99.8604 322.1494 C 99.7979 322.1533 99.8047 322.0923 99.834 322.0039 Z" fill="#323232"/>	</g></svg>