<?xml version="1.0" standalone="no"?><!-- Generator: Adobe Fireworks CS6, Export SVG Extension by Aaron Beall (http://fireworks.abeall.com) . Version: 0.6.1  --><!DOCTYPE svg PUBLIC "-//W3C//DTD SVG 1.1//EN" "http://www.w3.org/Graphics/SVG/1.1/DTD/svg11.dtd"><svg id="Raichu-Icons.fw-pen" viewBox="0 0 400 400" style="background-color:#ffffff00" version="1.1"	xmlns="http://www.w3.org/2000/svg" xmlns:xlink="http://www.w3.org/1999/xlink" xml:space="preserve"	x="0px" y="0px" width="400px" height="400px">	<g id="Layer%20166">		<path d="M 217.785 302.29 L 302.625 217.45 L 316.765 231.59 L 231.925 316.43 L 217.785 302.29 ZM 109.03 250.04 C 110.8435 251.86 113.3465 252.9878 116.103 252.9878 L 231.11 260.68 L 197.33 294.46 C 197.0536 294.6825 196.7851 294.9225 196.5288 295.1787 C 192.6401 299.0679 192.6401 305.4321 196.5288 309.3208 L 224.8135 337.6055 L 224.854 337.6455 C 228.7427 341.5347 235.1069 341.5347 238.9956 337.6455 L 337.9907 238.6504 C 341.8799 234.7617 341.8799 228.3975 337.9907 224.5088 C 337.8581 224.3762 337.7232 224.2486 337.585 224.125 L 310.09 196.63 L 309.6553 196.1948 C 309.0193 195.5588 308.3168 195.028 307.57 194.6 C 303.7575 192.445 298.803 192.9856 295.5645 196.2241 L 294.8 196.99 L 249.86 241.93 L 124.135 233.525 C 124.0104 233.3453 123.8802 233.1713 123.745 233 L 88.46 102.85 L 146.7354 161.125 C 150.6245 165.0137 156.9888 165.0137 160.8774 161.125 C 164.7661 157.2354 164.7661 150.8716 160.8774 146.9829 L 102.615 88.72 L 233.38 124.175 L 237.6821 176.0532 C 237.6821 181.5532 242.1821 186.0532 247.6821 186.0532 C 253.1821 186.0532 257.6821 181.5532 257.6821 176.0532 L 252.7329 116.3584 C 252.7329 113.5999 251.6024 111.0938 249.78 109.28 C 248.5859 108.0785 247.0719 107.1643 245.3281 106.6914 L 71.6001 59.5898 C 71.019 59.4323 70.4355 59.3304 69.855 59.28 C 68.7128 59.1772 67.5366 59.2705 66.3696 59.5869 C 64.6364 60.0569 63.1307 60.9644 61.94 62.155 C 59.8371 64.2594 58.7142 67.2573 59.045 70.32 C 59.1004 70.8319 59.1957 71.3431 59.3345 71.855 L 105.04 240.435 C 105.1513 241.6952 105.4879 242.8921 106.005 243.985 L 106.2 244.38 C 106.5082 246.5717 107.5333 248.5396 109.03 250.04 ZM 307.57 194.6 C 303.7505 192.4109 298.7659 192.9417 295.5132 196.1948 C 295.2584 196.4496 295.0214 196.7153 294.8 196.99 L 295.5645 196.2241 C 298.803 192.9856 303.7575 192.445 307.57 194.6 ZM 310.09 196.63 C 309.9666 196.4921 309.8389 196.3565 309.7065 196.2241 C 309.056 195.5735 308.3359 195.0329 307.57 194.6 C 308.3168 195.028 309.0193 195.5588 309.6553 196.1948 L 310.09 196.63 ZM 61.94 62.155 C 60.729 63.352 59.8069 64.8715 59.3315 66.6245 C 58.9959 67.8622 58.9111 69.1136 59.045 70.32 C 58.7142 67.2573 59.8371 64.2594 61.94 62.155 ZM 106.4365 245.583 C 106.9103 247.3307 107.8246 248.8447 109.03 250.04 C 107.5333 248.5396 106.5082 246.5717 106.2 244.38 L 106.005 243.985 L 106.4365 245.583 Z" fill="#323232"/>	</g></svg>