<?xml version="1.0" standalone="no"?><!-- Generator: Adobe Fireworks CS6, Export SVG Extension by Aaron Beall (http://fireworks.abeall.com) . Version: 0.6.1  --><!DOCTYPE svg PUBLIC "-//W3C//DTD SVG 1.1//EN" "http://www.w3.org/Graphics/SVG/1.1/DTD/svg11.dtd"><svg id="Raichu-Icons.fw-external-link" viewBox="0 0 400 400" style="background-color:#ffffff00" version="1.1"	xmlns="http://www.w3.org/2000/svg" xmlns:xlink="http://www.w3.org/1999/xlink" xml:space="preserve"	x="0px" y="0px" width="400px" height="400px">	<g id="Layer%20125">		<path d="M 205.5457 100.2811 L 260.2756 88.7449 L 196.9919 185.95 C 193.975 190.5842 195.2867 196.7829 199.9247 199.7959 C 204.5598 202.8083 210.7618 201.4956 213.778 196.8627 L 277.4082 99.1251 L 289.1355 154.7456 C 290.2757 160.1497 295.5781 163.6053 300.9792 162.4626 C 306.3797 161.3199 309.8338 156.0124 308.6955 150.6084 L 292.1924 72.2656 C 291.5976 69.4404 289.862 67.1543 287.574 65.7683 C 287.4998 65.7157 287.4303 65.6593 287.3553 65.6097 C 287.3381 65.5985 287.3233 65.5853 287.307 65.5746 C 287.298 65.5688 287.289 65.5646 287.28 65.5588 C 287.0117 65.3848 286.7369 65.2246 286.453 65.0766 C 286.3198 65.0071 286.1823 64.9512 286.0473 64.8881 C 285.8864 64.8128 285.7275 64.7342 285.5623 64.6671 C 285.405 64.6041 285.246 64.5546 285.086 64.4992 C 284.937 64.4486 284.7895 64.392 284.6367 64.3471 C 284.478 64.3006 284.3178 64.2672 284.1583 64.229 C 283.9988 64.1909 283.8417 64.149 283.6807 64.1186 C 283.5308 64.0908 283.3802 64.0748 283.2296 64.0535 C 283.0554 64.029 282.8824 64.0007 282.7067 63.9858 C 282.5621 63.9731 282.4187 63.9729 282.2739 63.9659 C 282.0923 63.9582 281.9111 63.9462 281.7277 63.9484 C 281.5699 63.9505 281.4132 63.9655 281.2564 63.9752 C 281.0876 63.9853 280.9199 63.9884 280.751 64.0077 C 280.487 64.0368 280.2255 64.082 279.9652 64.1322 C 279.903 64.1435 279.8416 64.1483 279.7796 64.161 L 201.3964 80.6675 C 195.9799 81.8074 192.5191 87.1233 193.6665 92.5409 C 194.8129 97.9574 200.1313 101.4223 205.5457 100.2811 Z" fill="#333333"/>		<path d="M 60.3858 278.5309 C 103.8847 355.5182 201.5567 382.6233 278.5498 339.2644 C 333.7379 308.1877 363.4201 249.2975 359.88 190.0845 C 359.8538 189.6551 359.8222 189.2269 359.7928 188.7988 C 359.4255 186.0096 357.8967 183.3915 355.3572 181.7362 C 350.7397 178.7264 344.5557 180.0365 341.5437 184.6631 C 340.215 186.704 339.7282 189.0488 339.9934 191.2906 C 339.9821 191.2937 339.9727 191.2992 339.9606 191.3018 C 343.0738 243.1366 317.0941 294.6927 268.7801 321.8931 C 201.3883 359.8321 115.9181 336.0867 77.869 268.7089 C 39.749 201.2047 63.7156 115.6012 131.3993 77.6548 C 137.6765 74.1359 144.1118 71.1682 150.6452 68.7033 C 150.6356 68.6515 150.6323 68.6026 150.6328 68.5515 C 153.1215 68.0125 155.4052 66.5337 156.9034 64.2324 C 159.9245 59.592 158.6073 53.3765 153.9605 50.3476 C 151.4839 48.7333 148.5646 48.3616 145.9176 49.0581 C 145.299 49.2207 144.6967 49.4429 144.117 49.722 C 136.4563 52.5773 128.9123 56.0346 121.5575 60.1572 C 44.1798 103.5254 16.796 201.3802 60.3858 278.5309 Z" fill="#333333"/>	</g></svg>