<?xml version="1.0" standalone="no"?><!-- Generator: Adobe Fireworks CS6, Export SVG Extension by Aaron Beall (http://fireworks.abeall.com) . Version: 0.6.1  --><!DOCTYPE svg PUBLIC "-//W3C//DTD SVG 1.1//EN" "http://www.w3.org/Graphics/SVG/1.1/DTD/svg11.dtd"><svg id="Raichu-Icons.fw-circle-flag%20" viewBox="0 0 400 400" style="background-color:#ffffff00" version="1.1"	xmlns="http://www.w3.org/2000/svg" xmlns:xlink="http://www.w3.org/1999/xlink" xml:space="preserve"	x="0px" y="0px" width="400px" height="400px">	<g id="Layer%20132">		<path d="M 353.7358 151.3096 C 327.3325 66.98 237.5669 20.0234 153.2388 46.4277 C 68.9087 72.8301 21.9507 162.5947 48.354 246.9253 C 49.3462 250.0947 50.4448 253.2012 51.6147 256.2627 C 51.6157 256.2651 51.6157 256.2671 51.6167 256.2695 C 51.6802 256.4702 51.7593 256.6611 51.8325 256.8555 C 51.8872 256.9971 51.9419 257.1396 51.9966 257.2813 C 54.0103 261.9058 59.2241 264.3652 64.147 262.8242 C 69.4204 261.1743 72.353 255.564 70.7026 250.2925 C 70.5981 249.9565 70.4761 249.6304 70.3394 249.3135 C 69.2896 246.5752 68.3198 243.7891 67.4302 240.9521 C 44.3257 167.1587 85.4175 88.6074 159.2095 65.5029 C 233.0034 42.3984 311.5542 83.4883 334.6597 157.2827 C 357.7651 231.0776 316.6724 309.6279 242.8794 332.7319 C 191.7993 348.7251 138.4438 333.9536 102.7729 298.8721 C 102.5132 298.6162 102.2544 298.3584 101.9966 298.1006 C 99.4575 295.8364 95.8335 294.916 92.3511 296.0063 C 87.0806 297.6567 84.146 303.2671 85.7954 308.5371 C 86.3501 310.3101 87.3608 311.8101 88.6479 312.9697 C 88.647 312.9678 88.646 312.9668 88.644 312.9658 C 88.6372 312.9717 88.6323 312.9785 88.6265 312.9854 C 129.3892 353.166 190.4194 370.1045 248.8521 351.8081 C 333.1821 325.4053 380.1392 235.6401 353.7358 151.3096 Z" fill="#323232"/>		<path d="M 283.0044 135.0049 C 283.0044 134.437 282.9648 133.8789 282.9028 133.3276 L 282.9028 133.2642 C 282.8994 133.2627 282.896 133.2612 282.8926 133.2598 C 282.0278 125.9121 275.7886 120.208 268.208 120.208 C 267.8535 120.208 267.5059 120.2363 267.1572 120.2607 C 266.8506 120.2412 266.5469 120.2183 266.2236 120.2183 C 264.4067 120.2183 262.6704 120.5361 261.2759 120.7915 C 257.8638 121.416 254.4194 122.0952 251.0889 122.752 C 245.8579 123.7832 240.4487 124.8496 235.1416 125.7065 C 230.6733 126.4282 225.9346 126.7939 221.0566 126.7939 C 215.6963 126.7939 210.1128 126.3721 203.9883 125.5049 C 199.4912 124.8672 194.9951 124.2197 190.4995 123.5659 C 187.6382 123.1504 184.7783 122.7227 181.918 122.2944 C 177.2339 121.5933 172.3896 120.8682 167.6035 120.2104 C 160.5483 119.2412 153.3359 119.4268 146.2324 118.9648 C 139.7041 118.54 132.6748 118.1816 126.7363 121.4146 C 122.0923 123.9429 122.0986 129.0786 122.1016 131.5469 L 122.1016 267.7246 L 122.0952 268.2422 C 122.0845 268.8071 122.0718 269.5103 122.1421 270.2788 C 122.5835 275.0532 126.3911 278.6851 131.1943 278.9136 C 131.3804 278.9229 131.5635 278.9268 131.7446 278.9268 C 137.457 278.9268 141.2954 274.7329 141.2964 268.4907 L 141.2983 138.4448 C 143.7373 138.4351 146.124 138.4312 148.5078 138.4722 C 149.9346 138.4971 151.3633 138.502 152.7939 138.502 L 155.2461 138.5005 C 159.3687 138.5005 163.3911 138.5396 167.2798 139.0093 C 172.8794 139.686 178.5952 140.5938 184.1235 141.4722 C 191.1167 142.583 198.3486 143.7314 205.5752 144.4561 C 215.5483 145.4556 225.1309 145.5425 233.9111 144.7134 C 241.4043 144.0059 248.8081 142.4868 255.9683 141.0176 C 258.1353 140.5732 260.3613 140.1162 262.5679 139.6875 C 262.645 160.2422 262.7158 180.7959 262.7861 201.3491 L 262.7861 212.3765 C 261.4854 212.0898 260.1919 211.8223 258.9238 211.5601 C 256.7969 211.1206 254.7881 210.7056 252.7827 210.2144 C 242.54 207.7061 231.7871 206.4341 220.8232 206.4341 C 213.9097 206.4341 206.7075 206.939 199.4165 207.9341 C 195.2139 208.5078 190.9966 209.2173 186.918 209.9033 C 177.4399 211.498 168.4873 213.0044 159.2783 213.0464 C 156.8921 213.0581 154.6704 213.9868 153.0234 215.6616 C 151.2485 217.4658 150.2886 219.9487 150.3203 222.6514 C 150.3804 227.9141 154.2729 231.936 159.4009 232.0073 C 160.3101 232.02 161.2222 232.0332 162.1353 232.0332 C 164.0029 232.0332 166.4697 231.9858 168.9868 231.6201 C 173.7646 230.9268 178.5938 230.1538 183.2637 229.4063 C 189.564 228.3975 196.0786 227.3545 202.4761 226.5078 C 209.6729 225.5547 215.6558 225.1108 221.3047 225.1108 C 227.0273 225.1108 232.2446 225.5757 237.2554 226.5317 C 244.3281 227.8804 251.5176 229.3882 258.4697 230.8462 L 262.207 231.6294 C 262.625 231.7163 263.042 231.7827 263.4585 231.8379 C 263.9141 231.9297 264.3765 232.0234 264.8071 232.104 C 269.1372 232.9116 272.2031 233.333 272.2031 233.333 L 272.1807 233.2969 C 272.4175 233.3135 272.6538 233.333 272.895 233.333 C 278.4785 233.333 283.0044 228.8071 283.0044 223.2241 L 282.9067 136.6235 C 282.9648 136.0908 283.0044 135.5527 283.0044 135.0049 Z" fill="#323232"/>	</g></svg>