<?xml version="1.0" standalone="no"?><!-- Generator: Adobe Fireworks CS6, Export SVG Extension by Aaron Beall (http://fireworks.abeall.com) . Version: 0.6.1  --><!DOCTYPE svg PUBLIC "-//W3C//DTD SVG 1.1//EN" "http://www.w3.org/Graphics/SVG/1.1/DTD/svg11.dtd"><svg id="Raichu-Icons.fw-eye" viewBox="0 0 400 400" style="background-color:#ffffff00" version="1.1"	xmlns="http://www.w3.org/2000/svg" xmlns:xlink="http://www.w3.org/1999/xlink" xml:space="preserve"	x="0px" y="0px" width="400px" height="400px">	<g id="Layer%20196">		<image visibility="hidden" x="13" y="-4" width="367" height="365" xlink:href="Raichu-Icons.fw.images/image1.png"/>		<path d="M 360 212.6903 C 360 207.1615 355.3739 202.6797 349.667 202.6797 C 345.1927 202.6797 341.3941 205.4399 339.9572 209.2936 C 339.9531 209.2892 339.9491 209.2853 339.945 209.2809 C 339.9183 209.3669 339.889 209.4579 339.8623 209.5449 C 339.8179 209.6744 339.778 209.8059 339.7392 209.9379 C 337.2644 217.8501 333.3356 228.328 327.5303 238.4746 C 303.4643 276.7531 260.8084 303.5297 212.3675 306.9684 L 212.3675 306.9894 C 208.9498 307.226 205.5053 307.3541 202.0346 307.3541 C 135.6098 307.3541 79.6261 264.0873 62.4404 205.0606 C 61.8526 202.6327 61.3743 200.4693 61.0403 198.9032 C 61.3466 197.5023 61.7315 195.8003 62.1826 193.9394 C 79.3683 134.9127 135.352 91.6459 201.7762 91.6459 C 254.5456 91.6459 301.7241 119.4788 327.5303 160.5254 C 332.1413 168.5853 335.1131 176.3406 337.5687 183.3676 C 337.5692 183.3676 337.5712 183.3681 337.5722 183.3676 C 338.7901 187.5825 342.7745 190.6771 347.5136 190.6771 C 353.2205 190.6771 357.8466 186.1953 357.8466 180.6665 C 357.8466 179.2201 357.5232 177.849 356.9536 176.607 C 334.7755 118.5237 278.9956 76.2956 212.3675 72.3128 L 212.3675 72.3255 C 208.8655 72.111 205.3342 72 201.7762 72 C 123.4045 72 57.7997 124.8443 40.7815 195.7529 C 40.5893 196.3189 40.4526 196.9074 40.3668 197.513 C 40.1337 198.343 40 199.2131 40 200.1149 C 40 201.1521 40.1685 202.186 40.4985 203.1729 C 42.7391 209.8792 45.3345 216.522 47.9833 223.0866 C 50.6039 229.5813 53.4611 235.991 56.7174 242.2125 C 59.9324 248.3572 63.5358 254.3113 67.5625 259.9907 C 71.5852 265.6632 76.0216 271.0581 80.8203 276.1328 C 85.6498 281.2404 90.8405 286.0277 96.3309 290.464 C 101.8435 294.9185 107.6603 299.022 113.7431 302.7163 C 119.8223 306.4092 126.1704 309.6891 132.7375 312.4933 C 139.3308 315.3079 146.1396 317.6346 153.0831 319.4959 C 160.13 321.3846 167.3051 322.7924 174.5275 323.8819 C 181.8777 324.9905 189.2742 325.7741 196.6738 326.4897 C 198.4316 326.6598 200.2697 327 202.0346 327 C 275.3967 327 337.5646 280.6919 359.1751 216.6125 C 359.7054 215.4076 360 214.0824 360 212.6903 Z" fill="#323232"/>		<path d="M 235.6318 180.7681 C 235.5786 180.6489 235.5391 180.5249 235.4814 180.4077 C 235.1792 179.8857 234.8662 179.3677 234.541 178.8574 C 234.3608 178.5767 234.1641 178.3057 233.9771 178.0288 C 233.7168 177.542 233.4253 177.0664 233.0776 176.6133 C 232.8496 176.3184 232.6035 176.0503 232.3496 175.791 C 229.4814 172.1265 225.938 168.8911 221.7461 166.3071 C 202.7646 154.6045 177.8906 160.5059 166.189 179.4878 C 162.3633 185.6929 160.4307 192.5278 160.2095 199.3267 C 160.208 199.374 160.2065 199.4209 160.2046 199.4678 C 160.1899 199.9971 160.1836 200.5264 160.1895 201.0552 C 160.1909 201.2695 160.1958 201.4834 160.2007 201.6982 C 160.21 202.0576 160.2222 202.417 160.2417 202.7764 C 160.2607 203.165 160.2876 203.5527 160.3179 203.9404 C 160.333 204.125 160.3477 204.3096 160.3657 204.4937 C 160.417 205.0483 160.481 205.6021 160.5552 206.1553 C 160.5576 206.1743 160.5601 206.1929 160.563 206.2119 C 161.481 212.9639 164.1108 219.5757 168.5659 225.3628 C 182.166 243.0332 207.5166 246.333 225.187 232.7314 C 228.5605 230.1348 231.4004 227.1055 233.7085 223.7881 C 234.0425 223.3965 234.3599 222.9844 234.6396 222.5313 C 234.8286 222.2231 234.9883 221.9072 235.1372 221.5879 C 242.5474 209.29 242.9746 193.6279 235.6318 180.7681 ZM 212.7129 216.5225 C 212.2568 216.8735 211.7847 217.1885 211.3096 217.4941 C 204.9209 221.1914 196.5703 221.6235 190.103 217.6348 C 185.4316 214.7549 182.3682 210.2578 181.1846 205.312 C 181.1714 205.2563 181.1616 205.2002 181.1494 205.1445 C 181.0264 204.6104 180.9253 204.0713 180.8462 203.5283 C 180.8169 203.3184 180.7993 203.1084 180.7769 202.8979 C 180.7329 202.5127 180.6938 202.1265 180.6724 201.7383 C 180.6528 201.3438 180.6523 200.9487 180.6558 200.5542 C 180.6572 200.3496 180.6528 200.1445 180.6597 199.9395 C 180.6826 199.3848 180.7275 198.8315 180.7959 198.2813 C 180.8018 198.2314 180.8052 198.1812 180.8115 198.1309 C 181.4766 193.0879 184.0601 188.2969 188.4097 184.9482 C 189.7847 183.8896 191.3696 182.9736 192.9868 182.2705 C 198.6826 179.9336 205.3716 180.2402 211.0132 183.7178 C 213.4717 185.2334 215.7773 187.4258 217.3062 189.6675 C 217.4097 189.6206 217.2085 189.3496 217.3135 189.3037 C 217.5503 189.793 217.8384 190.2578 218.1528 190.707 C 222.4487 199.1504 220.4429 210.5747 212.7129 216.5225 Z" fill="#323232"/>	</g></svg>