<?xml version="1.0" standalone="no"?><!-- Generator: Adobe Fireworks CS6, Export SVG Extension by Aaron Beall (http://fireworks.abeall.com) . Version: 0.6.1  --><!DOCTYPE svg PUBLIC "-//W3C//DTD SVG 1.1//EN" "http://www.w3.org/Graphics/SVG/1.1/DTD/svg11.dtd"><svg id="Raichu-Icons.fw-laureate-board" viewBox="0 0 400 400" style="background-color:#ffffff00" version="1.1"	xmlns="http://www.w3.org/2000/svg" xmlns:xlink="http://www.w3.org/1999/xlink" xml:space="preserve"	x="0px" y="0px" width="400px" height="400px">	<g id="Layer%20191">		<path id="Ellipse2" d="M 130 74 C 130 71.2385 132.2385 69 135 69 C 137.7615 69 140 71.2385 140 74 C 140 76.7615 137.7615 79 135 79 C 132.2385 79 130 76.7615 130 74 Z" fill="#333333"/>		<path id="Ellipse3" d="M 60 79 C 60 73.4771 64.4771 69 70 69 C 75.5229 69 80 73.4771 80 79 C 80 84.5229 75.5229 89 70 89 C 64.4771 89 60 84.5229 60 79 Z" fill="#333333"/>		<path id="Ellipse4" d="M 81 79 C 81 73.4771 85.4771 69 91 69 C 96.5229 69 101 73.4771 101 79 C 101 84.5229 96.5229 89 91 89 C 85.4771 89 81 84.5229 81 79 Z" fill="#333333"/>		<path id="Ellipse5" d="M 150 79 C 150 73.4771 154.4771 69 160 69 C 165.5229 69 170 73.4771 170 79 C 170 84.5229 165.5229 89 160 89 C 154.4771 89 150 84.5229 150 79 Z" fill="#333333"/>		<path id="Ellipse6" d="M 60 299 C 60 293.4771 64.4771 289 70 289 C 75.5229 289 80 293.4771 80 299 C 80 304.5229 75.5229 309 70 309 C 64.4771 309 60 304.5229 60 299 Z" fill="#333333"/>		<path id="Ellipse7" d="M 280 79 C 280 73.4771 284.4771 69 290 69 C 295.5229 69 300 73.4771 300 79 C 300 84.5229 295.5229 89 290 89 C 284.4771 89 280 84.5229 280 79 Z" fill="#333333"/>		<path id="Ellipse8" d="M 280 299 C 280 293.4771 284.4771 289 290 289 C 295.5229 289 300 293.4771 300 299 C 300 304.5229 295.5229 309 290 309 C 284.4771 309 280 304.5229 280 299 Z" fill="#333333"/>		<path d="M 70 69 L 90 69 L 90 89 L 70 89 L 70 69 Z" fill="#333333"/>		<path d="M 70 289 L 291 289 L 291 309 L 70 309 L 70 289 Z" fill="#333333"/>		<path d="M 300 78 L 300 299 L 280 299 L 280 78 L 300 78 Z" fill="#333333"/>		<path d="M 160 69 L 291 69 L 291 89 L 160 89 L 160 69 Z" fill="#333333"/>		<path d="M 80 79 L 80 299 L 60 299 L 60 79 L 80 79 Z" fill="#333333"/>		<path d="M 140 76 L 140 119 L 130 119 L 130 76 L 140 76 Z" fill="#333333"/>		<path d="M 120 58 L 120 119 L 110 119 L 110 58 L 120 58 Z" fill="#333333"/>		<path d="M 160 58 L 160 79 L 150 79 L 150 58 L 160 58 Z" fill="#333333"/>		<path d="M 140 49 L 127 49 L 127 39 L 140 39 L 140 49 Z" fill="#333333"/>		<path d="M 130 39 C 118.9542 39 110 47.9542 110 59 L 120 59 C 120 53.4771 124.4771 49 130 49 L 130 39 Z" fill="#333333"/>		<path d="M 160 59 C 160 47.9542 151.0458 39 140 39 L 140 49 C 145.5229 49 150 53.4771 150 59 L 160 59 Z" fill="#333333"/>		<path d="M 110 119 C 110 127.2844 116.7156 134 125 134 C 133.2844 134 140 127.2844 140 119 L 130 119 C 130 121.7615 127.7615 124 125 124 C 122.2385 124 120 121.7615 120 119 L 110 119 Z" fill="#333333"/>		<path d="M 300 78 L 299.95 78 C 299.9826 78.3289 300 78.6625 300 79 L 300 78 Z" fill="#333333"/>		<path d="M 291 69.05 L 291 69 L 290 69 C 290.3375 69 290.6711 69.0173 291 69.05 Z" fill="#333333"/>		<path d="M 290 309 L 291 309 L 291 308.95 C 290.6711 308.9826 290.3375 309 290 309 Z" fill="#333333"/>		<path d="M 317.505 102.525 L 317.4936 102.4355 C 317.4525 102.1012 317.3973 101.7719 317.325 101.45 C 316.2856 96.8269 312.1074 93.5648 307.37 93.675 C 307.0402 93.6827 306.7054 93.7047 306.3711 93.7457 L 306.335 93.75 L 305 93.915 L 305 164.46 L 323.225 312.9 L 125.1 337.225 L 122.25 314 L 102.14 314 L 106.5 349.515 L 106.5064 349.5645 C 107.1782 355.0356 112.1579 358.9261 117.629 358.2543 L 335.5645 331.4936 C 335.8988 331.4526 336.2281 331.3973 336.55 331.325 C 341.4949 330.2133 344.885 325.5078 344.2543 320.3711 L 317.505 102.525 Z" fill="#333333"/>		<path d="M 312.4936 97.4355 L 312.3719 96.4449 L 312.325 96.45 C 312.3973 96.7719 312.4525 97.1012 312.4936 97.4355 Z" fill="#333333"/>		<path d="M 302.37 88.675 L 302.3617 88.6241 L 301.3711 88.7457 C 301.7054 88.7047 302.0402 88.6827 302.37 88.675 Z" fill="#333333"/>		<path d="M 330.5645 326.4936 L 331.5551 326.3719 L 331.55 326.325 C 331.2281 326.3973 330.8988 326.4526 330.5645 326.4936 Z" fill="#333333"/>	</g></svg>