<?xml version="1.0" standalone="no"?><!-- Generator: Adobe Fireworks CS6, Export SVG Extension by Aaron Beall (http://fireworks.abeall.com) . Version: 0.6.1  --><!DOCTYPE svg PUBLIC "-//W3C//DTD SVG 1.1//EN" "http://www.w3.org/Graphics/SVG/1.1/DTD/svg11.dtd"><svg id="Raichu-Icons.fw-flag" viewBox="0 0 400 400" style="background-color:#ffffff00" version="1.1"	xmlns="http://www.w3.org/2000/svg" xmlns:xlink="http://www.w3.org/1999/xlink" xml:space="preserve"	x="0px" y="0px" width="400px" height="400px">	<g id="Layer%20133">		<path d="M 40 50 L 40 350 C 40 355.5229 44.4771 360 50 360 C 55.5229 360 60 355.5229 60 350 L 60 58.375 L 118 58.375 C 118.75 58.375 123.5 58.875 126 59.125 C 144 61.375 162.5 64.875 180.75 67.625 C 189.75 69.125 199.25 70.375 208.5 71.375 C 214.75 72.125 221.5 72.625 228 73.125 L 254.75 73.375 C 267.5 72.875 281 70.625 293.5 68.375 C 308.25 65.625 337.25 59.375 337.75 59.375 C 339.5 59.375 341 60.625 341.5 63.125 L 341.5 170.375 C 341.5 171.3914 341.7716 172.3935 342.25 173.33 L 342.25 235.375 C 341.5 237.375 340.5 240.125 338.25 240.125 C 337.5 240.125 304.25 232.625 287.25 229.375 C 281.75 228.375 276 227.625 270.75 226.875 C 265.75 226.375 260.75 226.125 255.75 225.625 L 231.5 225.625 C 230.75 225.625 225.25 226.125 222.5 226.125 C 197.75 227.625 171.75 232.875 147.25 236.625 C 138.8002 237.925 121.5 239.5 121.5 239.5 L 110.5 239.5 C 104.9771 239.5 100.5 243.9771 100.5 249.5 C 100.5 255.0229 104.9771 259.5 110.5 259.5 L 121.5 259.155 C 138.7657 258.0014 164.2108 252.6821 176 251.125 C 187.75 249.375 199.5 247.125 211.25 246.125 L 231.25 244.625 L 256 244.625 C 262 244.625 290.25 249.375 290.75 249.375 C 297.75 250.875 333.75 259.375 338.25 259.375 C 349 259.375 360.75 249.375 361.25 235.875 L 361.25 129.125 C 361.25 128.0604 360.9737 127.0482 360.5 126.115 L 360.5 62.375 C 360.5 61.625 359.75 59.125 359.5 57.625 C 356.75 46.625 346.75 40.125 338.25 40.125 C 335.25 40.125 296 48.875 283.5 50.875 C 279 51.625 274.5 52.375 270 52.875 C 265.25 53.375 260.25 53.875 255.25 54.375 L 232.25 54.375 C 212.25 54.375 161 44.875 149 43.125 C 138.75 41.625 128.5 40.375 118 39.375 L 55.75 39.375 C 54.431 39.4849 53.2429 39.786 52.195 40.24 C 51.488 40.0815 50.7548 40 50 40 C 44.4771 40 40 44.4771 40 50 Z" fill="#333333"/>	</g></svg>