<?xml version="1.0" standalone="no"?><!-- Generator: Adobe Fireworks CS6, Export SVG Extension by Aaron Beall (http://fireworks.abeall.com) . Version: 0.6.1  --><!DOCTYPE svg PUBLIC "-//W3C//DTD SVG 1.1//EN" "http://www.w3.org/Graphics/SVG/1.1/DTD/svg11.dtd"><svg id="Raichu-Icons.fw-padlock-unlock" viewBox="0 0 400 400" style="background-color:#ffffff00" version="1.1"	xmlns="http://www.w3.org/2000/svg" xmlns:xlink="http://www.w3.org/1999/xlink" xml:space="preserve"	x="0px" y="0px" width="400px" height="400px">	<g id="Layer%201104">		<path d="M 319.5391 230.27 L 319.832 190.5356 C 319.832 189.9961 319.7773 189.4702 319.6948 188.9531 C 319.2002 183.9067 314.9155 179.9287 309.7446 179.9287 L 99.3208 179.9287 C 99.3208 179.8862 99.3208 179.8462 99.3208 179.8037 C 99.5356 124.5073 144.8022 80.041 200.6479 80.2725 C 244.9595 80.4556 282.416 109.6343 295.3467 149.877 C 295.8887 154.8887 300.1299 158.7905 305.2852 158.7905 C 310.8081 158.7905 315.2852 154.3135 315.2852 148.7905 C 315.2852 146.9883 314.8018 145.3018 313.9678 143.8418 C 299.2979 94.0635 253.8921 59.8418 199.5112 59.9243 C 133.5464 60.0254 79.8062 114.3589 79.8228 180.9336 C 79.8237 183.5825 79.9155 186.21 80.085 188.8164 L 80.166 188.8154 L 80.166 239.3418 C 80.1655 239.5337 80.1563 239.7236 80.1567 239.916 C 80.1572 240.127 80.1646 240.3359 80.166 240.5469 L 80.166 246.5356 C 80.166 247.4443 80.2979 248.3203 80.5249 249.1567 C 80.6035 250.168 80.6943 251.1758 80.7979 252.1802 C 87.0518 312.9878 138.3457 360.6875 200.1768 360.5928 C 266.1411 360.4917 319.8818 306.1582 319.8647 239.5835 C 319.8638 236.3198 319.7554 233.2441 319.5391 230.27 ZM 199.04 340.2446 C 148.3149 340.0347 107.3262 302.1382 101.0762 252.833 C 100.8257 250.856 100.4692 248.7964 100.1567 246.7168 C 100.1582 246.6558 100.166 246.5967 100.166 246.5356 L 100.166 199.9287 L 299.9077 199.9287 L 300.2686 244.6235 C 297.9927 298.0898 253.5625 340.4707 199.04 340.2446 Z" fill="#323232"/>		<path d="M 156.3457 222.96 C 152.1905 226.8382 151.9805 233.1776 155.8996 237.0968 L 229.7061 310.9032 C 233.6253 314.8224 239.9647 314.6123 243.8429 310.4572 L 243.8429 310.4572 C 247.6967 306.3281 247.6614 299.8585 243.7867 295.9839 L 170.819 223.0161 C 166.9443 219.1415 160.4747 219.1062 156.3457 222.96 L 156.3457 222.96 Z" fill="#323232"/>		<path d="M 243.4572 222.96 C 247.6123 226.8382 247.8224 233.1776 243.9032 237.0968 L 170.0968 310.9032 C 166.1776 314.8224 159.8382 314.6123 155.96 310.4572 L 155.96 310.4572 C 152.1062 306.3281 152.1415 299.8585 156.0161 295.9839 L 228.9839 223.0161 C 232.8585 219.1415 239.3281 219.1062 243.4572 222.96 L 243.4572 222.96 Z" fill="#323232"/>	</g></svg>