<?xml version="1.0" standalone="no"?><!-- Generator: Adobe Fireworks CS6, Export SVG Extension by Aaron Beall (http://fireworks.abeall.com) . Version: 0.6.1  --><!DOCTYPE svg PUBLIC "-//W3C//DTD SVG 1.1//EN" "http://www.w3.org/Graphics/SVG/1.1/DTD/svg11.dtd"><svg id="Raichu-Icons.fw-less" viewBox="0 0 400 400" style="background-color:#ffffff00" version="1.1"	xmlns="http://www.w3.org/2000/svg" xmlns:xlink="http://www.w3.org/1999/xlink" xml:space="preserve"	x="0px" y="0px" width="400px" height="400px">	<g id="Layer%20112">		<path d="M 301.0215 200.7832 C 301.0215 206.3062 296.5439 210.7832 291.0215 210.7832 L 110.0215 210.7832 C 104.499 210.7832 100.0215 206.3062 100.0215 200.7832 L 100.0215 200.7832 C 100.0215 195.2603 104.499 190.7832 110.0215 190.7832 L 291.0215 190.7832 C 296.5439 190.7832 301.0215 195.2603 301.0215 200.7832 L 301.0215 200.7832 Z" fill="#323232"/>		<path d="M 353.0918 152.8662 C 326.6885 68.5366 236.9229 21.5801 152.5947 47.9844 C 68.2646 74.3867 21.3066 164.1514 47.71 248.4819 C 48.7021 251.6514 49.8008 254.7578 50.9707 257.8193 C 50.9717 257.8218 50.9717 257.8237 50.9727 257.8262 C 51.0361 258.0269 51.1152 258.2178 51.1885 258.4121 C 51.2432 258.5537 51.2979 258.6963 51.3525 258.8379 C 53.3662 263.4624 58.5801 265.9219 63.5029 264.3809 C 68.7764 262.731 71.709 257.1206 70.0586 251.8491 C 69.9541 251.5132 69.832 251.187 69.6953 250.8701 C 68.6455 248.1318 67.6758 245.3457 66.7861 242.5088 C 43.6816 168.7153 84.7734 90.1641 158.5654 67.0596 C 232.3594 43.9551 310.9102 85.0449 334.0156 158.8394 C 357.1211 232.6343 316.0283 311.1846 242.2354 334.2886 C 191.1553 350.2817 137.7998 335.5103 102.1289 300.4287 C 101.8691 300.1729 101.6104 299.915 101.3525 299.6572 C 98.8135 297.3931 95.1895 296.4727 91.707 297.563 C 86.4365 299.2134 83.502 304.8237 85.1514 310.0938 C 85.7061 311.8667 86.7168 313.3667 88.0039 314.5264 C 88.0029 314.5244 88.002 314.5234 88 314.5225 C 87.9932 314.5283 87.9883 314.5352 87.9824 314.542 C 128.7451 354.7227 189.7754 371.6611 248.208 353.3647 C 332.5381 326.9619 379.4951 237.1968 353.0918 152.8662 Z" fill="#323232"/>	</g></svg>