<?xml version="1.0" standalone="no"?><!-- Generator: Adobe Fireworks CS6, Export SVG Extension by Aaron Beall (http://fireworks.abeall.com) . Version: 0.6.1  --><!DOCTYPE svg PUBLIC "-//W3C//DTD SVG 1.1//EN" "http://www.w3.org/Graphics/SVG/1.1/DTD/svg11.dtd"><svg id="Raichu-Icons.fw-list-view" viewBox="0 0 400 400" style="background-color:#ffffff00" version="1.1"	xmlns="http://www.w3.org/2000/svg" xmlns:xlink="http://www.w3.org/1999/xlink" xml:space="preserve"	x="0px" y="0px" width="400px" height="400px">	<g id="Layer%20129">		<path d="M 352.3623 151.9907 C 325.958 67.6611 236.1924 20.7046 151.8652 47.1089 C 67.5352 73.5112 20.5771 163.2759 46.9805 247.6064 C 47.9717 250.7759 49.0713 253.8823 50.2412 256.9438 C 50.2412 256.9463 50.2412 256.9482 50.2432 256.9507 C 50.3066 257.1514 50.3857 257.3423 50.458 257.5366 C 50.5137 257.6782 50.5684 257.8208 50.6221 257.9624 C 52.6367 262.5869 57.8506 265.0464 62.7744 263.5054 C 68.0469 261.8555 70.9795 256.2451 69.3291 250.9736 C 69.2236 250.6377 69.1025 250.3115 68.9658 249.9946 C 67.916 247.2563 66.9463 244.4702 66.0557 241.6333 C 42.9521 167.8398 84.0439 89.2886 157.8359 66.1841 C 231.6299 43.0796 310.1807 84.1694 333.2861 157.9639 C 356.3916 231.7588 315.2988 310.3091 241.5059 333.4131 C 190.4258 349.4063 137.0703 334.6348 101.3994 299.5532 C 101.1396 299.2974 100.8809 299.0396 100.6221 298.7817 C 98.084 296.5176 94.46 295.5972 90.9775 296.6875 C 85.7061 298.3379 82.7725 303.9482 84.4219 309.2183 C 84.9756 310.9912 85.9873 312.4912 87.2744 313.6509 C 87.2744 313.6489 87.2725 313.6479 87.2705 313.647 C 87.2637 313.6528 87.2588 313.6597 87.2529 313.6665 C 128.0156 353.8472 189.0459 370.7856 247.4775 352.4893 C 331.8076 326.0864 378.7656 236.3213 352.3623 151.9907 Z" fill="#323232"/>		<path d="M 121.5615 269.0576 C 116.0518 269.0576 111.585 264.5908 111.585 259.0811 L 111.585 259.0811 C 111.585 253.5713 116.0518 249.1045 121.5615 249.1045 L 141.7588 249.1045 C 147.2686 249.1045 151.7354 253.5713 151.7354 259.0811 L 151.7354 259.0811 C 151.7354 264.5908 147.2686 269.0576 141.7588 269.0576 L 121.5615 269.0576 Z" fill="#323232"/>		<path d="M 121.5615 210.0576 C 116.0518 210.0576 111.585 205.5908 111.585 200.0811 L 111.585 200.0811 C 111.585 194.5713 116.0518 190.1045 121.5615 190.1045 L 141.7588 190.1045 C 147.2686 190.1045 151.7354 194.5713 151.7354 200.0811 L 151.7354 200.0811 C 151.7354 205.5908 147.2686 210.0576 141.7588 210.0576 L 121.5615 210.0576 Z" fill="#323232"/>		<path d="M 121.5615 151.0576 C 116.0518 151.0576 111.585 146.5908 111.585 141.0811 L 111.585 141.0811 C 111.585 135.5713 116.0518 131.1045 121.5615 131.1045 L 141.7588 131.1045 C 147.2686 131.1045 151.7354 135.5713 151.7354 141.0811 L 151.7354 141.0811 C 151.7354 146.5908 147.2686 151.0576 141.7588 151.0576 L 121.5615 151.0576 Z" fill="#323232"/>		<path d="M 177.1963 269.0586 C 171.6865 269.0586 167.2197 264.5918 167.2197 259.082 L 167.2197 259.082 C 167.2197 253.5723 171.6865 249.1055 177.1963 249.1055 L 287.3936 249.1055 C 292.9033 249.1055 297.3701 253.5723 297.3701 259.082 L 297.3701 259.082 C 297.3701 264.5918 292.9033 269.0586 287.3936 269.0586 L 177.1963 269.0586 Z" fill="#323232"/>		<path d="M 177.1963 210.0586 C 171.6865 210.0586 167.2197 205.5918 167.2197 200.082 L 167.2197 200.082 C 167.2197 194.5723 171.6865 190.1055 177.1963 190.1055 L 287.3936 190.1055 C 292.9033 190.1055 297.3701 194.5723 297.3701 200.082 L 297.3701 200.082 C 297.3701 205.5918 292.9033 210.0586 287.3936 210.0586 L 177.1963 210.0586 Z" fill="#323232"/>		<path d="M 177.1963 151.0586 C 171.6865 151.0586 167.2197 146.5918 167.2197 141.082 L 167.2197 141.082 C 167.2197 135.5723 171.6865 131.1055 177.1963 131.1055 L 287.3936 131.1055 C 292.9033 131.1055 297.3701 135.5723 297.3701 141.082 L 297.3701 141.082 C 297.3701 146.5918 292.9033 151.0586 287.3936 151.0586 L 177.1963 151.0586 Z" fill="#323232"/>	</g></svg>