<?xml version="1.0" standalone="no"?><!-- Generator: Adobe Fireworks CS6, Export SVG Extension by Aaron Beall (http://fireworks.abeall.com) . Version: 0.6.1  --><!DOCTYPE svg PUBLIC "-//W3C//DTD SVG 1.1//EN" "http://www.w3.org/Graphics/SVG/1.1/DTD/svg11.dtd"><svg id="Raichu-Icons.fw-university" viewBox="0 0 400 400" style="background-color:#ffffff00" version="1.1"	xmlns="http://www.w3.org/2000/svg" xmlns:xlink="http://www.w3.org/1999/xlink" xml:space="preserve"	x="0px" y="0px" width="400px" height="400px">	<g id="Layer%201110">		<path d="M 70 249 C 70 254.5229 74.4771 259 80 259 C 85.5229 259 90 254.5229 90 249 L 90 189 C 90 183.4771 85.5229 179 80 179 C 74.4771 179 70 183.4771 70 189 L 70 249 Z" fill="#333333"/>		<path d="M 210 189 C 210 183.4771 205.5229 179 200 179 C 194.4771 179 190 183.4771 190 189 L 190 249 C 190 254.5229 194.4771 259 200 259 C 205.5229 259 210 254.5229 210 249 L 210 189 Z" fill="#333333"/>		<path d="M 130 249 C 130 254.5229 134.4771 259 140 259 C 145.5229 259 150 254.5229 150 249 L 150 189 C 150 183.4771 145.5229 179 140 179 C 134.4771 179 130 183.4771 130 189 L 130 249 Z" fill="#333333"/>		<path d="M 250 249 C 250 254.5229 254.4771 259 260 259 C 265.5229 259 270 254.5229 270 249 L 270 189 C 270 183.4771 265.5229 179 260 179 C 254.4771 179 250 183.4771 250 189 L 250 249 Z" fill="#333333"/>		<path d="M 330 189 C 330 183.4771 325.5229 179 320 179 C 314.4771 179 310 183.4771 310 189 L 310 249 C 310 254.5229 314.4771 259 320 259 C 325.5229 259 330 254.5229 330 249 L 330 189 Z" fill="#333333"/>		<path d="M 200 59 C 193.6667 59 190 63 190 63 L 46 130 C 46 130 38 132.6667 41 142 C 44.1637 151.8427 54 147 54 147 L 200 79 L 331 139 L 111.3983 139.045 C 111.3983 139.045 111.323 139.0495 111.1883 139.075 C 110.9282 139.0547 110.6637 139.045 110.3983 139.045 C 104.8754 139.045 100.3983 143.5221 100.3983 149.045 C 100.3983 154.5679 104.8754 159.045 110.3983 159.045 C 110.7129 159.045 111.0262 159.0284 111.3333 159 L 111.3983 159.045 L 343 159 C 350.6667 159 358 152.3333 358 143 C 358 133.6667 352 130 352 130 L 213 64 C 213 64 206 59 200 59 Z" fill="#333333"/>		<path d="M 109.3333 339 L 109.3333 339.05 L 110.3333 339.05 C 109.9958 339.05 109.6622 339.0327 109.3333 339 ZM 109.3333 319.1 C 104.28 319.6017 100.3333 323.8646 100.3333 329.05 C 100.3333 334.2354 104.28 338.4983 109.3333 339 C 109.6622 339.0327 109.9958 339.05 110.3333 339.05 L 350 339 C 355.5229 339 360 334.5229 360 329 L 360 289 C 360 283.4771 355.5229 279 350 279 L 50 279 C 44.4771 279 40 283.4771 40 289 L 40 329 C 40 334.5229 44.4771 339 50 339 C 55.5229 339 60 334.5229 60 329 L 60 299 L 340 299 L 340 319 L 110.3333 319.05 C 109.9958 319.05 109.6622 319.0674 109.3333 319.1 ZM 109.3333 319.05 L 109.3333 319.1 C 109.6622 319.0674 109.9958 319.05 110.3333 319.05 L 109.3333 319.05 Z" fill="#333333"/>	</g></svg>