<?xml version="1.0" standalone="no"?><!-- Generator: Adobe Fireworks CS6, Export SVG Extension by Aaron Beall (http://fireworks.abeall.com) . Version: 0.6.1  --><!DOCTYPE svg PUBLIC "-//W3C//DTD SVG 1.1//EN" "http://www.w3.org/Graphics/SVG/1.1/DTD/svg11.dtd"><svg id="Raichu-Icons.fw-arrow-down" viewBox="0 0 400 400" style="background-color:#ffffff00" version="1.1"	xmlns="http://www.w3.org/2000/svg" xmlns:xlink="http://www.w3.org/1999/xlink" xml:space="preserve"	x="0px" y="0px" width="400px" height="400px">	<g id="Layer%20121">		<path d="M 352.6909 152.2412 C 326.2876 67.9116 236.522 20.9551 152.1938 47.3594 C 67.8638 73.7617 20.9058 163.5264 47.3091 247.8569 C 48.3018 251.0264 49.3999 254.1328 50.5698 257.1943 C 50.5703 257.1968 50.5708 257.1987 50.5718 257.2012 C 50.6353 257.4019 50.7144 257.5928 50.7876 257.7871 C 50.8423 257.9287 50.897 258.0713 50.9512 258.2129 C 52.9653 262.8374 58.1792 265.2969 63.1021 263.7559 C 68.3755 262.106 71.3081 256.4956 69.6577 251.2241 C 69.5532 250.8882 69.4312 250.562 69.2944 250.2451 C 68.2446 247.5068 67.2749 244.7207 66.3853 241.8838 C 43.2808 168.0903 84.3726 89.5391 158.1646 66.4346 C 231.9585 43.3301 310.5093 84.4199 333.6147 158.2144 C 356.7202 232.0093 315.6274 310.5596 241.8345 333.6636 C 190.7544 349.6567 137.3989 334.8853 101.728 299.8037 C 101.4683 299.5479 101.2095 299.29 100.9512 299.0322 C 98.4126 296.7681 94.7886 295.8477 91.3062 296.938 C 86.0352 298.5884 83.1011 304.1987 84.7505 309.4688 C 85.3052 311.2417 86.3159 312.7417 87.603 313.9014 C 87.6021 313.8994 87.6011 313.8984 87.5991 313.8975 C 87.5923 313.9033 87.5874 313.9102 87.5815 313.917 C 128.3442 354.0977 189.3745 371.0361 247.8071 352.7397 C 332.1372 326.3369 379.0942 236.5718 352.6909 152.2412 Z" fill="#333333"/>		<path d="M 199.8312 110 C 194.3414 110 189.8913 114.4766 189.8913 120 L 189.8918 256.5259 L 149.9688 216.3604 C 146.0865 212.4561 139.793 212.4551 135.9112 216.3604 C 132.0289 220.2656 132.0299 226.5977 135.9122 230.5029 L 192.1399 287.0713 C 194.1662 289.1094 196.8492 290.0737 199.5036 289.9844 C 199.5987 289.9873 199.6933 289.9976 199.7885 289.998 C 199.803 289.998 199.8166 290 199.8312 290 C 199.8472 290 199.8627 289.9976 199.8788 289.9976 C 200.1899 289.9961 200.5005 289.981 200.8106 289.9502 C 200.9645 289.9351 201.1144 289.9063 201.2664 289.8843 C 201.4348 289.8594 201.6042 289.8398 201.7716 289.8066 C 201.9429 289.7725 202.1089 289.7251 202.2768 289.6826 C 202.4229 289.645 202.5705 289.6133 202.7151 289.5693 C 202.8787 289.519 203.0364 289.4575 203.1961 289.3999 C 203.3427 289.3467 203.4897 289.2983 203.6339 289.2383 C 203.7804 289.1772 203.9207 289.106 204.0639 289.0381 C 204.2158 288.9658 204.3687 288.8979 204.5177 288.8179 C 204.6502 288.7466 204.7764 288.665 204.905 288.5874 C 205.055 288.498 205.2064 288.4126 205.3525 288.3145 C 205.4874 288.2231 205.6141 288.1216 205.7442 288.0244 C 205.8747 287.9268 206.0082 287.8354 206.1349 287.7305 C 206.3338 287.5664 206.5212 287.3896 206.7066 287.2109 C 206.7566 287.1626 206.8105 287.1211 206.86 287.0713 L 263.0877 230.502 C 266.9705 226.5967 266.9709 220.2656 263.0882 216.3604 C 259.2064 212.4551 252.9134 212.4551 249.0311 216.3604 L 209.7715 255.8579 L 209.7706 120 C 209.7711 114.4766 205.3214 109.999 199.8312 110 Z" fill="#333333"/>	</g></svg>