<?xml version="1.0" standalone="no"?><!-- Generator: Adobe Fireworks CS6, Export SVG Extension by Aaron Beall (http://fireworks.abeall.com) . Version: 0.6.1  --><!DOCTYPE svg PUBLIC "-//W3C//DTD SVG 1.1//EN" "http://www.w3.org/Graphics/SVG/1.1/DTD/svg11.dtd"><svg id="Raichu-Icons.fw-grid-view" viewBox="0 0 400 400" style="background-color:#ffffff00" version="1.1"	xmlns="http://www.w3.org/2000/svg" xmlns:xlink="http://www.w3.org/1999/xlink" xml:space="preserve"	x="0px" y="0px" width="400px" height="400px">	<g id="Layer%20128">		<path d="M 352.3623 151.9907 C 325.959 67.6611 236.1934 20.7046 151.8652 47.1089 C 67.5352 73.5112 20.5762 163.2759 46.9805 247.6064 C 47.9727 250.7759 49.0713 253.8823 50.2412 256.9438 C 50.2422 256.9463 50.2422 256.9482 50.2422 256.9507 C 50.3066 257.1514 50.3857 257.3423 50.459 257.5366 C 50.5137 257.6782 50.5684 257.8208 50.623 257.9624 C 52.6367 262.5869 57.8506 265.0464 62.7734 263.5054 C 68.0469 261.8555 70.9795 256.2451 69.3291 250.9736 C 69.2246 250.6377 69.1025 250.3115 68.9658 249.9946 C 67.916 247.2563 66.9463 244.4702 66.0566 241.6333 C 42.9521 167.8398 84.043 89.2886 157.8359 66.1841 C 231.6299 43.0796 310.1807 84.1694 333.2861 157.9639 C 356.3916 231.7588 315.2988 310.3091 241.5059 333.4131 C 190.4258 349.4063 137.0703 334.6348 101.4004 299.5532 C 101.1396 299.2974 100.8809 299.0396 100.623 298.7817 C 98.084 296.5176 94.459 295.5972 90.9766 296.6875 C 85.707 298.3379 82.7725 303.9482 84.4219 309.2183 C 84.9766 310.9912 85.9873 312.4912 87.2754 313.6509 C 87.2734 313.6489 87.2725 313.6479 87.2705 313.647 C 87.2637 313.6528 87.2588 313.6597 87.2529 313.6665 C 128.0156 353.8472 189.0459 370.7856 247.4785 352.4893 C 331.8086 326.0864 378.7656 236.3213 352.3623 151.9907 Z" fill="#323232"/>		<path d="M 130.5615 270.0576 C 125.0518 270.0576 120.585 265.5908 120.585 260.0811 L 120.585 260.0811 C 120.585 254.5713 125.0518 250.1045 130.5615 250.1045 L 150.7588 250.1045 C 156.2686 250.1045 160.7354 254.5713 160.7354 260.0811 L 160.7354 260.0811 C 160.7354 265.5908 156.2686 270.0576 150.7588 270.0576 L 130.5615 270.0576 Z" fill="#323232"/>		<path d="M 130.5615 210.0576 C 125.0518 210.0576 120.585 205.5908 120.585 200.0811 L 120.585 200.0811 C 120.585 194.5713 125.0518 190.1045 130.5615 190.1045 L 150.7588 190.1045 C 156.2686 190.1045 160.7354 194.5713 160.7354 200.0811 L 160.7354 200.0811 C 160.7354 205.5908 156.2686 210.0576 150.7588 210.0576 L 130.5615 210.0576 Z" fill="#323232"/>		<path d="M 130.5615 149.0576 C 125.0518 149.0576 120.585 144.5908 120.585 139.0811 L 120.585 139.0811 C 120.585 133.5713 125.0518 129.1045 130.5615 129.1045 L 150.7588 129.1045 C 156.2686 129.1045 160.7354 133.5713 160.7354 139.0811 L 160.7354 139.0811 C 160.7354 144.5908 156.2686 149.0576 150.7588 149.0576 L 130.5615 149.0576 Z" fill="#323232"/>		<path d="M 190.5615 270.0576 C 185.0518 270.0576 180.585 265.5908 180.585 260.0811 L 180.585 260.0811 C 180.585 254.5713 185.0518 250.1045 190.5615 250.1045 L 210.7588 250.1045 C 216.2686 250.1045 220.7354 254.5713 220.7354 260.0811 L 220.7354 260.0811 C 220.7354 265.5908 216.2686 270.0576 210.7588 270.0576 L 190.5615 270.0576 Z" fill="#323232"/>		<path d="M 190.5615 210.0576 C 185.0518 210.0576 180.585 205.5908 180.585 200.0811 L 180.585 200.0811 C 180.585 194.5713 185.0518 190.1045 190.5615 190.1045 L 210.7588 190.1045 C 216.2686 190.1045 220.7354 194.5713 220.7354 200.0811 L 220.7354 200.0811 C 220.7354 205.5908 216.2686 210.0576 210.7588 210.0576 L 190.5615 210.0576 Z" fill="#323232"/>		<path d="M 190.5615 149.0576 C 185.0518 149.0576 180.585 144.5908 180.585 139.0811 L 180.585 139.0811 C 180.585 133.5713 185.0518 129.1045 190.5615 129.1045 L 210.7588 129.1045 C 216.2686 129.1045 220.7354 133.5713 220.7354 139.0811 L 220.7354 139.0811 C 220.7354 144.5908 216.2686 149.0576 210.7588 149.0576 L 190.5615 149.0576 Z" fill="#323232"/>		<path d="M 250.5615 270.0576 C 245.0518 270.0576 240.585 265.5908 240.585 260.0811 L 240.585 260.0811 C 240.585 254.5713 245.0518 250.1045 250.5615 250.1045 L 270.7588 250.1045 C 276.2686 250.1045 280.7354 254.5713 280.7354 260.0811 L 280.7354 260.0811 C 280.7354 265.5908 276.2686 270.0576 270.7588 270.0576 L 250.5615 270.0576 Z" fill="#323232"/>		<path d="M 250.5615 210.0576 C 245.0518 210.0576 240.585 205.5908 240.585 200.0811 L 240.585 200.0811 C 240.585 194.5713 245.0518 190.1045 250.5615 190.1045 L 270.7588 190.1045 C 276.2686 190.1045 280.7354 194.5713 280.7354 200.0811 L 280.7354 200.0811 C 280.7354 205.5908 276.2686 210.0576 270.7588 210.0576 L 250.5615 210.0576 Z" fill="#323232"/>		<path d="M 250.5615 149.0576 C 245.0518 149.0576 240.585 144.5908 240.585 139.0811 L 240.585 139.0811 C 240.585 133.5713 245.0518 129.1045 250.5615 129.1045 L 270.7588 129.1045 C 276.2686 129.1045 280.7354 133.5713 280.7354 139.0811 L 280.7354 139.0811 C 280.7354 144.5908 276.2686 149.0576 270.7588 149.0576 L 250.5615 149.0576 Z" fill="#323232"/>	</g></svg>