<?xml version="1.0" standalone="no"?><!-- Generator: Adobe Fireworks CS6, Export SVG Extension by Aaron Beall (http://fireworks.abeall.com) . Version: 0.6.1  --><!DOCTYPE svg PUBLIC "-//W3C//DTD SVG 1.1//EN" "http://www.w3.org/Graphics/SVG/1.1/DTD/svg11.dtd"><svg id="Raichu-Icons.fw-world" viewBox="0 0 400 400" style="background-color:#ffffff00" version="1.1"	xmlns="http://www.w3.org/2000/svg" xmlns:xlink="http://www.w3.org/1999/xlink" xml:space="preserve"	x="0px" y="0px" width="400px" height="400px">	<g id="Layer%20165">		<path d="M 352.7886 152.1094 C 326.3853 67.7793 236.6196 20.8232 152.2915 47.2275 C 67.9614 73.6299 21.0034 163.3945 47.4067 247.7246 C 48.3989 250.8945 49.4976 254.001 50.6675 257.0625 C 50.6685 257.0645 50.6685 257.0664 50.6694 257.0693 C 50.7329 257.27 50.812 257.4609 50.8853 257.6548 C 50.9399 257.7969 50.9946 257.9395 51.0493 258.0811 C 53.063 262.7051 58.2769 265.165 63.1997 263.624 C 68.4731 261.9741 71.4058 256.3633 69.7554 251.0918 C 69.6509 250.7559 69.5288 250.4297 69.3921 250.1133 C 68.3423 247.375 67.3726 244.5889 66.4829 241.752 C 54.8379 204.5581 59.5078 166.1592 76.4463 134.2573 C 74.771 137.7422 74.5728 141.2637 74.4395 143.8916 C 74.3706 145.2222 74.3052 146.4795 74.082 147.4917 C 73.5366 149.9648 74.2725 152.4849 75.9785 154.2588 C 75.5313 156.4219 75.9053 158.8174 77.0977 161.4033 L 77.1489 161.5137 C 78.2695 167.2139 86.4365 172.4033 86.5186 172.4531 C 87.9556 173.3276 89.6611 173.8257 91.3579 173.8853 C 91.4751 174.083 91.5933 174.2681 91.7134 174.4409 C 93.5957 177.2568 96.6099 178.3867 98.4331 178.8755 C 98.6919 179.5215 98.9971 180.124 99.3467 180.6772 C 99.4893 182.4287 99.9629 184.7495 101.7998 186.6772 C 102.4946 187.4033 103.3242 187.9927 104.2271 188.4058 C 105.207 189.7329 106.4219 190.6865 107.8491 191.249 C 107.979 191.374 108.1143 191.5083 108.2065 191.6001 C 109.0615 192.4473 110.2324 193.6074 111.7954 194.3501 C 112.4155 194.6602 113.0728 194.8843 113.75 195.02 C 113.7505 195.0234 113.7505 195.0269 113.7505 195.0303 C 113.1226 195.7466 112.4756 196.5425 111.9482 197.4761 C 109.1284 199.686 108.5073 202.1128 108.5537 203.9189 C 108.4819 204.1172 108.4043 204.3188 108.3599 204.4351 L 108.1919 204.875 C 106.9351 208.2168 106.8521 211.0264 107.9458 213.4282 C 106.1431 219.2036 106.9199 223.6338 110.312 226.6465 C 112.3843 228.3506 115.6929 233.4883 116.313 235.9697 C 116.3813 236.2397 116.4644 236.5059 116.5605 236.7637 C 119.2959 244.0791 123.6836 248.9829 130.7773 252.6592 C 133.1152 253.8887 134.2515 255.4839 134.2515 257.5366 C 134.2515 257.6719 134.2549 257.8105 134.2627 257.9453 C 134.2993 258.6162 134.2983 259.3433 134.2983 260.1206 C 134.3022 262.9722 134.3066 266.187 135.5098 269.4624 C 135.4902 269.6387 135.4692 269.8145 135.4541 269.939 C 135.2617 271.5405 134.9771 273.9146 135.8701 276.4624 C 135.8018 277.8774 136.063 279.2383 136.6426 280.498 C 136.8115 280.8774 137.0317 281.3213 137.2773 281.8062 C 137.4409 282.1289 137.5723 282.3926 137.6694 282.5972 C 137.6587 284.1416 137.6719 286.2715 137.7744 288.4497 C 137.4614 289.7085 136.9185 292.5737 138.6992 295.3589 C 139.3887 296.749 140.8726 300.8687 141.0493 301.7622 C 141.1089 303.3115 141.6494 304.8442 142.5566 306.0557 C 142.5981 306.1929 142.6382 306.3154 142.6733 306.4229 C 142.7407 306.6294 142.7666 306.7085 142.7813 306.8223 C 142.624 308.9063 143.3267 311.0273 144.6841 312.5366 C 144.9395 313.4165 145.3379 314.2441 145.8662 314.9946 C 147.4199 317.2461 149.313 319.1162 150.979 320.7617 L 151.0684 320.8501 C 151.5674 321.3433 152.0454 321.8154 152.481 322.2778 C 156.4517 326.4663 161.9473 327.0356 165.2754 327.3804 C 165.8423 327.4399 166.3887 327.4961 166.9116 327.5752 C 167.5825 327.7461 168.2881 327.833 169.0112 327.833 C 169.2344 327.833 169.458 327.8228 169.5093 327.8164 C 170.8345 327.7549 172.0137 327.4287 173.2109 327.0688 L 173.3213 327.0342 C 176.0586 326.3125 178.1255 324.1436 178.7158 321.3696 C 179.3008 318.5996 178.291 315.7783 176.0796 314.0054 C 174.8135 312.9927 173.4604 312.438 172.2749 312.0664 C 172.7822 310.7578 172.9336 309.3872 172.7256 307.9702 C 172.604 307.1426 172.3101 306.041 171.624 304.9165 C 172.2671 303.9106 172.6738 302.7603 172.812 301.5415 C 173.0376 301.1807 173.2266 300.8179 173.3687 300.4771 C 176.9595 299.6938 179.5088 298.1289 181.1392 295.7144 C 181.856 294.6543 182.3452 293.4644 182.5815 292.2202 C 183.5615 291.6973 184.457 290.9907 185.2573 290.1055 C 185.3359 290.0171 185.4214 289.9155 185.4937 289.8262 L 185.4956 289.8281 C 186.6367 288.522 187.8008 287.0991 188.4722 285.3066 C 189.3101 284.1191 192.5991 279.8101 193.1338 279.1196 C 195.876 275.9746 196.1611 272.4536 196.2954 270.5054 C 197.2666 269.7764 198.4087 269.165 199.8999 268.5684 C 200.186 268.4517 200.6694 268.231 201.3198 267.9224 C 201.4614 267.855 201.6431 267.769 201.8384 267.6782 C 202.124 267.7002 202.4092 267.7114 202.6904 267.7114 C 209.3779 267.7114 211.8735 262.2852 212.9395 259.9668 C 213.0454 259.7363 213.3413 259.0923 213.5073 258.7954 C 217.4468 255.3042 217.6372 249.6001 217.8213 244.0703 C 217.8452 243.3408 217.8813 242.2339 217.9419 241.3032 C 219.1865 240.1738 220.6357 238.5762 222.9312 235.9551 C 223.6035 235.1855 224.2275 234.4697 224.7563 233.9014 C 228.4229 229.917 229.5449 224.6416 227.9204 219.0635 C 226.4961 214.0117 223.5356 211.3296 218.877 210.8682 C 218.5649 210.6255 218.144 210.2534 217.7612 209.9146 C 215.9258 208.2896 213.1523 205.834 208.9336 205.2354 C 207.6641 205.064 206.4253 205.0903 205.2769 205.1436 C 205.0112 205.1558 204.7402 205.1606 204.5181 205.1606 C 203.8457 204.8765 202.9492 204.5229 201.8682 204.3042 C 199.728 202.3369 196.1128 201.1733 193.4917 200.5542 C 192.9375 200.4077 192.3584 200.3071 191.7642 200.2539 C 191.3848 200.002 190.9849 199.7866 190.5669 199.6094 C 190.541 199.5576 190.5146 199.5059 190.4878 199.4541 C 190.1538 198.543 189.7295 197.6514 189.311 196.7734 C 188.1787 194.3906 187.1772 192.5044 186.0107 191.1011 C 182.8687 185.645 174.811 183.3765 171.1445 183.3765 C 170.4487 183.3765 169.7734 183.437 169.126 183.5562 C 168.5737 182.6084 167.6177 180.9741 165.708 179.5864 C 165.6533 176.9023 164.2266 174.4253 161.7935 172.9141 C 160.4751 172.0903 158.9409 171.7051 157.3374 171.8032 C 156.8257 171.8384 156.3169 171.9194 155.8203 172.0454 C 155.2998 172.0376 154.7808 172.084 154.2476 172.1899 L 154.1636 172.1821 C 151.9614 171.9927 149.9946 172.2339 148.3037 172.897 C 147.4868 172.626 146.686 172.4448 145.8838 172.3496 C 145.5439 172.0786 145.1821 171.8252 144.8037 171.5928 C 144.5996 171.4673 144.3901 171.3535 144.1787 171.25 C 144.0928 171.1992 143.9995 171.1431 143.9038 171.0845 C 143.8511 171.0225 143.7896 170.9702 143.7354 170.9102 C 140.7637 170.8872 137.7886 171.1094 134.8096 171.3232 C 134.7949 171.3281 134.7783 171.333 134.7632 171.3384 C 131.6201 171.5625 128.8032 172.2314 126.2549 173.3398 C 126.0244 173.4805 125.7783 173.5928 125.5161 173.6699 C 124.6807 174.0703 123.8721 174.5171 123.0952 175.0195 C 121.6035 174.7583 120.043 174.6035 118.4663 174.5557 C 118.9888 173.6118 119.7559 172.5552 120.7471 171.4272 C 120.8677 171.2773 120.9531 171.125 121.0557 170.9736 C 120.7573 169.9365 121.0166 168.7266 121.7891 167.9619 C 121.833 167.918 121.8838 167.875 121.9297 167.8311 C 121.9292 167.8262 121.9302 167.8208 121.9292 167.8159 C 121.9336 167.8174 121.938 167.8184 121.9424 167.8193 C 122.3193 167.46 122.7573 167.1211 123.2407 166.9058 C 123.4268 166.6206 123.6191 166.3398 123.8198 166.0688 C 123.8374 166.0449 123.8584 166.0254 123.877 166.002 C 124.8892 163.1133 126.9194 161.0093 129.2578 158.6436 C 133.5239 154.3291 134.1533 148.8799 134.2437 143 C 134.2446 142.9336 134.2603 142.8779 134.2646 142.8135 C 133.7681 141.374 132.877 140.1284 131.6738 139.2422 C 132.1733 136.7202 132.4927 135.6255 132.6426 135.1895 C 134.4634 133.7593 136.4473 132.4546 138.3906 131.4087 L 138.6494 131.2729 C 141.1694 129.9727 143.5444 128.5947 144.9141 126.0503 C 145.2817 125.3657 145.5391 124.6367 145.6797 123.8799 C 145.7368 123.7412 145.791 123.5977 145.8438 123.4473 C 146.6426 122.7217 147.3398 121.8169 147.9253 120.7466 C 149.2676 120.0366 150.5669 119.2637 151.6685 118.52 C 152.6353 118.3242 153.9414 117.9775 155.3228 117.2549 C 156.6006 116.5884 157.6416 115.5679 158.3452 114.3281 C 160.5332 115.1914 163.0815 115.0161 165.3037 113.7656 C 165.5757 113.6567 166.373 113.4028 167.7031 113.0024 C 170.9839 112.0166 174.644 110.917 177.0771 108.4619 C 177.9604 108.7085 178.8921 108.8022 179.8184 108.7349 C 180.8438 109.1665 181.9194 109.3853 183.0244 109.3853 C 186.0879 109.3853 190.0532 107.4951 191.2144 102.1816 C 191.5391 101.2275 191.667 100.1968 191.5869 99.1777 C 191.7202 97.7505 191.4399 96.3257 190.7695 95.0371 C 190.5986 94.7119 190.4048 94.3994 190.1919 94.106 C 189.9116 93.4434 189.5527 92.8345 189.1187 92.2852 C 189.3252 90.8545 189.1318 89.376 188.5493 88.021 C 188.1177 87.0161 187.478 86.0962 186.6455 85.2817 C 185.8618 83.8813 184.6382 82.7627 183.1626 82.1079 C 183.1333 82.0947 183.103 82.0815 183.0728 82.0679 C 183.8174 81.7813 184.5688 81.4209 185.2905 81.0044 C 185.7881 81.7817 186.3564 82.5527 186.9839 83.3018 C 188.9004 85.7788 195.292 88.9741 199.4551 88.9741 C 202.4067 88.9741 204.9946 87.6284 206.5654 85.2666 C 207.2451 84.2231 208.0024 83.0298 208.6616 81.7109 C 209.9155 81.4009 211.3687 80.9014 212.7627 79.9683 C 212.9756 79.8477 213.6284 79.6577 214.1582 79.5112 C 215.1021 80.563 216.3184 81.3203 217.7012 81.7026 L 217.8921 81.7896 C 218.0527 81.8623 218.2168 81.936 218.3652 82.0068 C 220.29 83.4663 222.6455 84.2363 225.1929 84.2363 C 228.0957 84.2363 230.707 83.2256 232.4409 82.4556 C 236.6113 80.5415 237.8081 76.6099 237.1436 73.561 C 236.8062 72.0171 235.9268 70.1274 233.7681 68.6963 C 234.7783 67.439 235.2783 65.978 235.3979 64.7148 C 235.4072 64.6162 235.3945 64.5195 235.3994 64.4209 C 236.3691 64.6743 237.335 64.938 238.2979 65.2124 C 238.2695 65.25 238.2339 65.2896 238.2065 65.3271 C 235.8594 68.5938 236.5679 73.2202 239.7935 75.646 C 239.9985 75.7983 240.2124 75.9419 240.4331 76.0737 C 240.5405 76.186 240.6582 76.312 240.7827 76.4482 C 238.8286 77.6606 237.4917 79.6851 237.1885 82.061 C 236.9048 84.2881 237.5918 86.1396 238.394 87.4722 C 238.3105 87.9175 238.2681 88.3706 238.2671 88.8267 C 238.2642 90.9321 239.1235 92.895 240.645 94.3013 C 241.1431 95.5981 241.856 96.6987 242.834 97.6724 C 244.8911 99.6372 247.9443 100.5742 250.8892 100.21 C 251.3574 100.6758 251.8857 101.0781 252.46 101.4053 C 252.521 101.5044 252.584 101.6016 252.6494 101.6978 C 252.3394 102.104 252.1079 102.4868 251.9395 102.8052 C 250.9033 104.7686 250.2178 107.9355 252.7471 111.9419 C 253.146 113.0483 253.6338 113.9146 253.981 114.5195 C 254.0352 116.3921 254.6636 118.8467 257.0132 121.0332 C 257.7354 122.7026 258.8232 123.9766 260.2632 124.8408 C 260.1675 125.1021 260.0801 125.3721 260.002 125.6499 C 259.4102 127.9844 259.6279 130.0313 259.9414 131.5693 C 258.501 132.6011 256.687 134.2705 255.9609 136.9453 C 254.938 138.1548 253.9082 140.0557 253.8701 142.8228 C 249.6411 149.0454 252.0322 155.3945 253.3369 158.8594 C 253.7686 160.0054 254.4204 161.7368 254.3384 162.2368 L 254.1455 163.1528 C 253.3638 166.8159 253.0195 169.3721 254.8696 173.542 C 255.4844 178.4746 257.4302 181.6055 260.6582 182.8608 C 261.5034 183.7822 262.3652 184.48 263.0215 185.0112 C 263.106 185.0791 263.2485 185.1934 263.394 185.3135 C 264.9995 190.3081 268.9009 193.0146 271.5132 194.8271 L 271.6338 194.9111 C 272.1533 195.272 272.6719 195.6304 273.1997 196.0439 C 273.394 196.1938 273.5752 196.3613 273.7993 196.5654 L 273.9326 196.687 C 274.7837 197.4531 276.0698 198.6104 277.7729 199.4741 C 279.3408 200.2798 280.999 200.688 282.7021 200.688 C 285.3677 200.688 287.4365 199.6636 288.6743 199.0508 C 288.8853 198.9463 289.2393 198.7715 289.3755 198.7275 C 289.5283 198.6841 289.8364 198.7017 290.0161 198.7856 C 291.0322 199.2852 292.3286 199.5835 293.4834 199.5835 C 295.8975 199.5835 297.9014 198.5479 300.7124 197.0947 C 300.8765 197.0098 301.0742 196.9072 301.2944 196.7939 C 302.6929 198.6885 304.7241 199.9111 307.0034 200.248 C 307.0024 200.3477 307.0005 200.4419 306.9966 200.5298 C 302.8604 205.6577 307.0503 212.4502 308.8735 215.4063 L 309.1768 215.8872 C 310.2617 218.0537 311.0439 221.8027 310.8574 223.1392 C 310.6768 224.4897 310.6694 225.8423 310.6626 227.1558 C 310.6582 228.8037 310.6113 229.5396 310.5825 229.8379 C 309.2476 231.9438 308.3735 233.9878 307.5283 235.9653 L 307.4409 236.1689 C 307.1816 236.7729 306.9189 237.3857 306.6431 237.9863 C 304.2788 243.0903 304.3096 248.0918 304.3364 252.5083 C 304.354 255.4355 304.3711 258.2017 303.6187 260.2578 C 302.2007 263.5156 301.8374 266.5962 301.5166 269.3198 C 301.3687 270.5796 301.2285 271.771 300.9897 272.8184 C 300.915 273.0054 300.7085 273.4424 300.3765 274.1191 C 299.0293 276.8589 296.7744 281.4443 299.043 286.3848 C 300.0298 288.5376 302.0034 290.1055 304.3174 290.5781 C 304.8105 290.6802 305.3154 290.7319 305.8174 290.7319 C 306.1279 290.7319 306.4341 290.6934 306.7393 290.6553 C 290.1943 310.1372 268.127 325.3301 241.9321 333.5313 C 190.8521 349.5249 137.4966 334.7534 101.8257 299.6719 C 101.5659 299.416 101.3071 299.1582 101.0493 298.9004 C 98.5103 296.6357 94.8862 295.7158 91.4038 296.8057 C 86.1333 298.4561 83.1987 304.0664 84.8481 309.3369 C 85.4028 311.1094 86.4136 312.6094 87.7007 313.7695 C 87.6997 313.7676 87.6987 313.7666 87.6968 313.7656 C 87.6899 313.7715 87.6851 313.7783 87.6792 313.7852 C 128.4419 353.9658 189.4722 370.9038 247.9048 352.6079 C 332.2349 326.2051 379.1919 236.4395 352.7886 152.1094 ZM 122.8667 208.1318 C 122.9111 207.9912 122.9551 207.8438 122.999 207.6909 C 123.915 206.79 124.5908 205.8232 125.0518 204.7559 C 125.1567 204.6372 125.2656 204.5166 125.3647 204.4058 C 126.688 202.9297 130.6006 198.5649 128.8545 193.7012 C 129.0649 192.6787 129.2988 191.4697 129.3115 190.1504 C 129.5317 189.8516 129.7358 189.5415 129.9292 189.2236 C 131.3438 190.1104 132.9902 190.5933 134.7007 190.5933 C 137.0269 190.5933 139.1758 189.6675 140.7124 188.0562 C 140.75 188.0659 140.7876 188.0757 140.8252 188.0845 C 141.0229 188.1372 141.23 188.1802 141.3979 188.2085 C 141.7329 188.269 142.0742 188.3042 142.3062 188.313 C 142.5532 188.3311 142.71 188.3296 142.7915 188.3335 C 143.749 188.3901 144.7002 188.186 145.5874 187.8486 C 147.7222 188.5317 149.8555 188.5142 151.835 187.8389 C 152.6221 189.291 154.0566 190.8652 156.6694 191.7739 C 157.0249 192.3408 157.5322 193.0718 158.2358 193.8369 C 159.0356 194.686 163.2979 198.9219 168.6543 198.9219 C 169.7139 198.9219 170.7397 198.7583 171.7129 198.4351 C 172.1929 198.5859 172.7441 198.8164 173.1748 199.0342 C 173.5903 199.832 174.1475 200.5508 174.8184 201.1519 C 175.2964 202.0186 175.8989 203.2515 176.2598 204.0649 C 176.3682 204.7847 176.5728 205.4995 176.8691 206.1929 C 177.7202 208.1919 179.5449 210.2925 181.6963 211.7749 C 183.1782 214.3354 185.6475 215.7915 188.5483 215.7915 C 189.2261 215.7915 189.8877 215.709 190.5474 215.5415 C 190.9595 216.5308 191.5645 217.3911 192.3564 218.1118 C 192.4033 218.1577 192.4517 218.2026 192.4995 218.2441 C 192.6123 218.3428 192.7275 218.4385 192.9092 218.5801 C 193.0059 218.6548 193.1035 218.7246 193.332 218.8813 L 193.5254 219.0044 C 194.0225 219.312 194.5591 219.5615 195.1196 219.7456 C 196.8428 220.3125 198.7046 220.2261 200.3574 219.5239 C 200.3613 219.5249 200.3652 219.5259 200.3691 219.5273 C 201.9009 219.9858 203.6821 220.1484 205.9746 220.0352 L 206.1958 220.0244 C 206.3052 220.0186 206.4668 220.0098 206.6074 220.0044 C 206.9854 220.2876 207.6104 220.8408 207.8838 221.083 C 208.8262 221.9165 209.999 222.9546 211.5254 223.8755 C 212.0205 224.1675 212.5195 224.4224 213.0269 224.6426 C 212.6045 225.1152 212.1421 225.6421 211.6606 226.1919 C 210.9619 226.9907 208.9263 229.3184 208.0581 230.144 C 203.2803 232.7188 203.0977 238.2407 202.9194 243.5952 C 202.8208 246.5288 202.6929 247.9399 202.5942 248.6187 C 201.3218 249.98 200.4927 251.4502 199.897 252.6665 C 198.0962 252.9502 196.4478 253.7324 194.8413 254.4946 L 194.5786 254.6201 C 194.4604 254.6768 194.3628 254.7241 194.3281 254.7397 C 190.5874 256.2354 187.6519 258.0605 185.0947 260.479 C 181.8389 263.54 181.5732 267.3296 181.4292 269.3809 C 181.4185 269.5371 181.4053 269.7549 181.3896 269.9502 C 180.6431 270.9028 179.2446 272.7373 178.1587 274.1836 C 177.4609 274.5459 176.8159 275.019 176.2681 275.5723 L 176.1475 275.6841 C 175.4336 276.3252 174.8252 277.0005 174.3257 277.7041 C 173.6533 277.4365 172.8916 277.1958 172.0483 277.061 C 168.4204 276.4976 164.9551 278.6162 163.8101 282.0967 C 163.3208 283.5845 163.2622 285.0923 163.6255 286.5601 C 161.5698 287.125 159.8457 288.5483 158.9092 290.4639 C 157.9619 290.8892 157.1113 291.4995 156.3657 292.2905 C 156.0176 292.667 155.7114 293.0693 155.4487 293.4927 C 154.8608 292.6685 154.0952 291.9565 153.2095 291.4126 C 153.0254 290.9595 152.8389 290.5186 152.6567 290.1035 C 152.7329 289.5024 152.7471 288.9463 152.7021 288.4395 C 152.5952 286.6631 152.5532 284.2964 152.5874 281.939 C 152.6128 279.6743 151.8311 277.6333 150.9897 275.8965 C 151.0488 274.5098 150.7915 273.1548 150.2339 271.9165 C 150.2427 271.8403 150.2515 271.77 150.2588 271.7114 C 150.4751 269.9082 150.8022 267.1831 149.5259 264.3779 C 149.2144 263.6821 149.21 261.5239 149.207 260.0967 C 149.2056 259.2036 149.2041 258.1909 149.1606 257.4028 C 149.1113 249.7993 144.9287 243.2554 137.6758 239.4434 C 133.9165 237.4941 132.0669 235.502 130.644 231.8555 C 129.4087 227.4551 125.9297 221.5269 122.2998 217.5444 C 122.4937 216.9873 122.7725 216.2651 123.1733 215.3472 C 124.5806 212.127 123.8101 209.6675 122.8667 208.1318 ZM 115.3535 159.5278 C 108.7354 156.8999 101.7012 158.666 95.6079 163.1431 C 97.2217 156.4648 98.3286 149.9775 99.2603 144.5166 C 99.314 144.2007 99.3857 143.7661 99.4722 143.2563 C 100.7139 141.7163 101.8188 140.3125 102.8281 138.9946 C 108.1958 143.6191 114.1509 146.2686 119.4668 146.2686 C 122.4009 146.2686 125.2246 145.5757 127.9102 144.2041 C 123.3384 147.938 119.1406 153.0581 115.3535 159.5278 ZM 130.9326 118.1885 C 130.8555 118.3281 130.7827 118.4702 130.7144 118.6147 C 127.9224 120.1689 125.2412 121.9849 122.7402 124.0171 C 121.8374 124.7451 121.0542 125.623 120.3672 126.6802 C 119.8657 126.6841 119.3643 126.7139 118.8721 126.7964 C 118.0488 126.5049 116.959 126.1953 115.7202 126.1084 C 114.4678 125.9927 113.3691 125.9341 112.4551 125.9341 C 110.3213 125.9341 108.5083 126.3652 107.0552 127.2173 C 106.5405 127.2563 106.0503 127.3198 105.5947 127.3857 C 103.3569 127.0186 101.0498 127.7012 99.3643 129.249 C 99.0332 129.5532 98.73 129.8853 98.4604 130.2393 C 98.1196 130.4673 97.624 130.7861 96.9067 131.229 C 96.4136 131.5332 95.9351 131.8594 95.6914 132.0571 C 95.5991 132.1318 95.5083 132.2104 95.3657 132.3374 C 94.8706 132.7881 94.4429 133.2715 94.0708 133.7695 C 94.3872 131.8428 94.5483 129.8989 94.3325 128.3652 C 94.7202 127.1382 94.9517 125.9619 95.0352 124.7949 C 96.7383 121.4712 106.1934 109.811 110.7119 105.2324 C 113.7207 102.2021 116.439 99.6309 119.0469 97.354 C 119.2568 98.0762 119.5771 98.7715 120.0059 99.4126 C 120.0991 99.5522 120.1973 99.689 120.3003 99.8223 C 120.1904 100.4097 120.1519 101.0078 120.186 101.6123 C 120.248 102.7085 120.5439 103.7578 121.0522 104.7061 C 120.063 106.5586 119.499 108.1548 119.3726 109.4644 C 119.147 111.8296 119.9434 114.0688 121.6426 115.7979 C 123.0332 117.1597 124.9502 117.9404 126.9014 117.9404 C 127.7642 117.9404 128.5449 117.8228 129.2944 117.5762 C 129.8135 117.8291 130.3613 118.0244 130.9385 118.1606 L 130.9326 118.1885 ZM 271.7554 95.6045 C 272.4941 95.4897 273.2764 95.2954 274.0576 94.9648 C 274.3823 94.9429 274.7207 94.9033 275.0815 94.8457 C 276.7324 94.583 278.2236 93.7754 279.3423 92.5825 C 280.0586 93.0894 280.77 93.603 281.4717 94.1206 C 279.4248 94.5068 277.5962 95.6797 276.4419 97.4688 C 276.019 97.7109 275.6206 97.9932 275.2539 98.3115 C 275.0625 98.4766 274.8799 98.6519 274.7065 98.8359 C 274.502 98.8628 274.3008 98.896 274.1025 98.9351 C 273.4375 98.0454 272.6201 97.1782 271.6572 96.3418 C 271.6992 96.1084 271.7329 95.8623 271.7554 95.6045 ZM 330.5708 194.7617 C 330.564 194.7827 330.5112 194.9409 330.5112 194.9409 C 330.2334 195.7705 329.686 197.4058 329.9194 199.4717 C 328.9653 201.5586 329.1235 203.48 329.1792 204.1533 C 329.2529 205.0615 329.4927 205.9414 329.8838 206.7563 C 329.4893 207.4214 329.1978 208.1489 329.0234 208.9116 C 328.3066 212.0615 328.3462 215.4854 328.3774 218.2065 L 328.3789 218.5913 C 328.3779 218.998 328.3809 219.3711 328.3877 219.7178 C 327.335 221.2334 326.8462 223.0459 326.8594 225.3491 C 326.8706 227.519 327.8296 229.5557 329.4346 230.9463 C 329.2427 231.916 329.0527 232.9897 328.9248 234.1323 C 325.0806 236.8599 325.2256 240.3232 325.6929 242.2202 C 325.9175 243.1372 326.3198 244 326.8765 244.7686 C 326.2964 246.1538 325.7222 247.5479 325.1367 248.9673 C 324.0347 251.644 323.0361 254.0591 321.9902 256.4751 C 321.8545 256.6729 321.4712 257.1294 321.2671 257.373 C 320.5742 258.1973 319.5757 259.3862 318.7837 260.877 C 319.2803 257.8818 319.2622 255.0195 319.2456 252.3853 C 319.2246 249.2744 319.2051 246.3364 320.1851 244.2231 C 320.5405 243.4458 320.8682 242.6826 321.1865 241.9399 L 321.2319 241.8345 C 321.9365 240.1899 322.5444 238.769 323.3901 237.4863 C 325.5518 234.0513 325.5635 229.9321 325.5718 227.2085 C 325.5747 226.4644 325.5781 225.5391 325.6284 225.1616 C 326.3569 219.9434 324.5371 213.2681 322.5508 209.2998 C 322.3672 208.9194 322.0718 208.4058 321.5649 207.5845 C 321.417 207.3438 321.1416 206.897 320.8564 206.4072 C 322.2012 202.937 321.9819 198.9243 321.7065 196.7246 C 320.7969 189.4448 317.564 186.5459 315.019 185.3984 C 314.085 184.9731 313.0098 184.7163 311.9033 184.6465 C 310.896 183.1841 309.5952 182.0571 308.0303 181.291 C 306.8022 180.6807 305.4458 180.3716 303.999 180.3716 C 300.8384 180.3716 297.7891 181.8223 293.8281 183.8701 L 293.5952 183.9902 C 293.457 184.0615 293.3145 184.1353 293.1699 184.209 C 290.5361 183.6113 287.77 183.6704 285.3154 184.3804 C 284.5757 184.5845 283.9028 184.8418 283.332 185.0894 C 283.019 184.814 282.688 184.5337 282.356 184.2778 C 281.6108 183.6934 280.8564 183.1636 280.0166 182.5806 C 279.3237 182.1001 277.9126 181.1211 277.5728 180.6841 C 276.5967 176.8149 273.9673 174.6885 272.3726 173.3994 C 272.3096 173.3486 272.2148 173.272 272.1079 173.1851 C 271.6074 171.6685 270.6113 170.3501 269.2671 169.4185 C 269.1299 168.9263 268.9536 168.4575 268.7271 167.978 C 268.6211 167.7627 268.5078 167.4932 268.4878 167.5337 C 268.4883 167.3799 268.6045 166.8379 268.7285 166.2568 L 268.9424 165.2393 C 269.8984 160.5249 268.3267 156.355 267.2871 153.5957 C 266.7886 152.272 266.4941 151.3872 266.4092 150.9565 C 266.4497 150.9155 266.4956 150.8701 266.5483 150.8164 C 268.043 149.2212 268.8535 147.2056 268.9141 144.9526 C 269.3369 144.3062 269.6812 143.6016 269.9438 142.8457 C 271.4077 141.8833 273.5225 140.2549 274.6221 137.3696 C 275.6616 134.5703 275.3394 132.0298 274.9619 130.3037 C 275.0571 130.2017 275.1499 130.0981 275.2407 129.9932 C 278.3955 130.126 281.3408 128.8013 283.2339 126.356 C 283.5117 126.2622 283.9282 126.1299 284.5522 125.9458 C 284.8159 125.8682 285.0674 125.7939 285.2646 125.7324 C 285.5708 125.6714 286.373 125.5479 287.3149 125.4312 C 287.5273 126.3164 287.8765 127.1694 288.3545 127.9609 C 290.7144 131.8735 295.2471 132.9258 298.0479 133.541 C 299.0127 134.5181 300.7471 136.0967 303.4932 136.7373 C 303.9194 137.0513 304.377 137.3667 304.8662 137.6436 C 306.1299 138.3813 307.4873 138.7554 308.9009 138.7554 C 310.9028 138.7554 312.9082 137.9033 314.3271 136.4888 C 314.5874 136.5586 314.8447 136.6216 315.0972 136.6782 C 315.3252 136.7305 315.5547 136.7715 315.7847 136.8018 C 316.3774 139.8408 318.6084 143.4126 321.8765 148.6445 C 322.3813 149.4512 323.2578 150.8525 323.646 151.501 C 323.7739 151.8403 323.9238 152.1733 324.0933 152.4946 C 324.7886 154.1084 325.4971 155.7197 326.2056 157.3315 L 326.3027 157.5522 C 328.1602 161.7749 330.0811 166.1411 331.7104 170.4521 C 331.8296 170.7686 331.9722 171.0796 332.1353 171.3794 L 332.3101 172.0586 C 332.8335 174.0977 333.3584 176.1421 333.8975 178.144 C 334.6221 181.9946 335.0972 185.7612 335.3408 189.605 C 333.0317 190.4048 331.2168 192.3101 330.5708 194.7617 Z" fill="#333333"/>	</g></svg>