<?xml version="1.0" standalone="no"?><!-- Generator: Adobe Fireworks CS6, Export SVG Extension by Aaron Beall (http://fireworks.abeall.com) . Version: 0.6.1  --><!DOCTYPE svg PUBLIC "-//W3C//DTD SVG 1.1//EN" "http://www.w3.org/Graphics/SVG/1.1/DTD/svg11.dtd"><svg id="Untitled-Page%201" viewBox="0 0 320 320" style="background-color:#ffffff00" version="1.1"	xmlns="http://www.w3.org/2000/svg" xmlns:xlink="http://www.w3.org/1999/xlink" xml:space="preserve"	x="0px" y="0px" width="320px" height="320px">	<path d="M 73.6396 209.9038 L 34.1411 170.348 L 150 170.348 C 155.5234 170.348 160.001 165.8659 160 160.3334 C 160 154.8028 155.5234 150.3187 150 150.3187 L 33.4751 150.3187 L 73.6396 110.096 C 77.5439 106.185 77.5449 99.8438 73.6396 95.9327 C 69.7344 92.0218 63.4023 92.0227 59.4971 95.9337 L 2.9287 152.5847 C 0.8901 154.6258 -0.0742 157.329 0.0161 160.0038 C 0.0127 160.0948 0.0034 160.1838 0.0029 160.2737 C 0.0029 160.2943 0 160.3138 0 160.3334 C 0 160.3442 0.0015 160.3539 0.0015 160.3647 C 0.0024 160.6845 0.0186 161.0023 0.0498 161.3212 C 0.0645 161.4708 0.0928 161.6165 0.1138 161.7642 C 0.1387 161.9402 0.1597 162.1163 0.1938 162.2913 C 0.2271 162.4576 0.2725 162.618 0.3135 162.7823 C 0.3525 162.9348 0.3857 163.0894 0.4316 163.2419 C 0.4795 163.4004 0.5391 163.5529 0.5942 163.7075 C 0.6494 163.862 0.7002 164.0165 0.7627 164.1681 C 0.8213 164.3089 0.8901 164.4439 0.9546 164.5818 C 1.0293 164.7412 1.1001 164.9016 1.1836 165.0571 C 1.252 165.1852 1.3301 165.3055 1.4033 165.4307 C 1.4961 165.5871 1.585 165.7456 1.687 165.8981 C 1.7749 166.0292 1.873 166.1524 1.9668 166.2786 C 2.0674 166.4145 2.1616 166.5534 2.27 166.6845 C 2.4385 166.8898 2.6191 167.0845 2.8032 167.2752 C 2.8467 167.3211 2.8843 167.37 2.9287 167.415 L 59.498 224.066 C 63.4033 227.978 69.7344 227.978 73.6396 224.066 C 77.5449 220.155 77.5449 213.8147 73.6396 209.9038 Z" fill="#ffffff"/>	<path d="M 80.05 311 C 80.5517 316.0534 84.8146 320 90 320 L 310 320 C 315.5229 320 320 315.5229 320 310 L 320 10 C 320 4.4771 315.5229 0 310 0 L 90 0 C 84.4771 0 80 4.4771 80 10 L 80 50.3333 C 80 55.8563 84.4771 60.3333 90 60.3333 C 95.5229 60.3333 100 55.8563 100 50.3333 L 100 20 L 300 20 L 300 300 L 100 300 L 100 270.3333 L 99.95 270.3333 C 99.9827 270.0044 100 269.6708 100 269.3333 C 100 263.8104 95.5229 259.3333 90 259.3333 C 84.4771 259.3333 80 263.8104 80 269.3333 C 80 269.6708 80.0173 270.0044 80.05 270.3333 L 80 270.3333 L 80 310 C 80 310.3375 80.0173 310.6711 80.05 311 ZM 80 311 L 80.05 311 C 80.0173 310.6711 80 310.3375 80 310 L 80 311 Z" fill="#ffffff"/></svg>