<?xml version="1.0" standalone="no"?><!-- Generator: Adobe Fireworks CS6, Export SVG Extension by Aaron Beall (http://fireworks.abeall.com) . Version: 0.6.1  --><!DOCTYPE svg PUBLIC "-//W3C//DTD SVG 1.1//EN" "http://www.w3.org/Graphics/SVG/1.1/DTD/svg11.dtd"><svg id="Raichu-Icons.fw-exclamation" viewBox="0 0 400 400" style="background-color:#ffffff00" version="1.1"	xmlns="http://www.w3.org/2000/svg" xmlns:xlink="http://www.w3.org/1999/xlink" xml:space="preserve"	x="0px" y="0px" width="400px" height="400px">	<g id="Layer%201">		<path d="M 264.6934 49.3931 C 264.5801 49.3291 264.4736 49.2578 264.3584 49.1958 C 264.3564 49.1943 264.3506 49.1924 264.3477 49.1909 C 264.4678 49.2524 264.5771 49.3276 264.6934 49.3931 Z" fill="#333333"/>		<path d="M 152.4795 46.6859 C 68.1494 73.0883 21.1914 162.8529 47.5947 247.1835 C 48.5879 250.3549 49.6865 253.4628 50.8574 256.5258 C 50.8164 256.3973 50.792 256.267 50.7568 256.1391 C 50.792 256.268 50.8174 256.3988 50.8574 256.5277 C 50.9209 256.7283 51 256.9193 51.0732 257.1137 C 51.1279 257.2553 51.1826 257.3979 51.2373 257.5395 C 53.251 262.164 58.4648 264.6233 63.3877 263.0823 C 68.6611 261.4325 71.5938 255.8222 69.9434 250.5507 C 69.8389 250.2147 69.7168 249.8886 69.5801 249.5717 C 68.5303 246.8333 67.5605 244.0473 66.6709 241.2103 C 43.5664 167.4169 84.6582 88.8656 158.4502 65.7611 C 232.2441 42.6566 310.7949 83.7465 333.9004 157.5409 C 357.0059 231.3358 315.9131 309.8861 242.1201 332.9901 C 191.04 348.9833 137.6846 334.2118 102.0137 299.1303 C 101.7539 298.8743 101.4951 298.6166 101.2373 298.3588 C 98.6982 296.0946 95.0742 295.1742 91.5918 296.2646 C 86.3213 297.9149 83.3867 303.5253 85.0361 308.7953 C 85.5908 310.5683 86.6016 312.0683 87.8887 313.2279 C 87.8877 313.226 87.8867 313.225 87.8848 313.224 C 87.8779 313.2299 87.873 313.2367 87.8672 313.2436 C 128.6299 353.4242 189.6602 370.3627 248.0928 352.0663 C 332.4229 325.6635 379.3799 235.8983 352.9766 151.5678 C 326.5732 67.2382 236.8076 20.2816 152.4795 46.6859 Z" fill="#333333"/>		<path d="M 200.2852 258.4239 C 194.7617 258.4249 190.2852 253.9464 190.2861 248.423 L 190.2852 109.4239 C 190.2852 103.9005 194.7617 99.4239 200.2852 99.4239 L 200.2852 99.4239 C 205.8086 99.423 210.2852 103.9005 210.2852 109.4239 L 210.2861 248.4239 C 210.2852 253.9464 205.8076 258.4239 200.2852 258.4239 L 200.2852 258.4239 Z" fill="#333333"/>		<path d="M 210.2852 289.9429 C 210.2852 295.4658 205.8076 299.9429 200.2852 299.9429 C 194.7617 299.9429 190.2852 295.4658 190.2852 289.9429 C 190.2852 284.4199 194.7617 279.9429 200.2852 279.9429 C 205.8076 279.9429 210.2852 284.4199 210.2852 289.9429 Z" fill="#333333"/>	</g></svg>