<?xml version="1.0" standalone="no"?><!-- Generator: Adobe Fireworks CS6, Export SVG Extension by Aaron Beall (http://fireworks.abeall.com) . Version: 0.6.1  --><!DOCTYPE svg PUBLIC "-//W3C//DTD SVG 1.1//EN" "http://www.w3.org/Graphics/SVG/1.1/DTD/svg11.dtd"><svg id="Raichu-Icons.fw-padlock-checked" viewBox="0 0 400 400" style="background-color:#ffffff00" version="1.1"	xmlns="http://www.w3.org/2000/svg" xmlns:xlink="http://www.w3.org/1999/xlink" xml:space="preserve"	x="0px" y="0px" width="400px" height="400px">	<g id="Layer%201103">		<path d="M 319.5391 230.27 L 319.832 190.5356 C 319.832 189.9961 319.7773 189.4702 319.6948 188.9531 C 319.2002 183.9067 314.9155 179.9287 309.7446 179.9287 L 99.3208 179.9287 C 99.3208 179.8862 99.3208 179.8462 99.3208 179.8037 C 99.5356 124.5073 144.8022 80.041 200.6479 80.2725 C 244.9595 80.4556 282.416 109.6343 295.3467 149.877 C 295.8887 154.8887 300.1299 158.7905 305.2852 158.7905 C 310.8081 158.7905 315.2852 154.3135 315.2852 148.7905 C 315.2852 146.9883 314.8018 145.3018 313.9678 143.8418 C 299.2979 94.0635 253.8921 59.8418 199.5112 59.9243 C 133.5464 60.0254 79.8062 114.3589 79.8228 180.9336 C 79.8237 183.5825 79.9155 186.21 80.085 188.8164 L 80.166 188.8154 L 80.166 239.3418 C 80.1655 239.5337 80.1563 239.7236 80.1567 239.916 C 80.1572 240.127 80.1646 240.3359 80.166 240.5469 L 80.166 246.5356 C 80.166 247.4443 80.2979 248.3203 80.5249 249.1567 C 80.6035 250.168 80.6943 251.1758 80.7979 252.1802 C 87.0518 312.9878 138.3457 360.6875 200.1768 360.5928 C 266.1411 360.4917 319.8818 306.1582 319.8647 239.5835 C 319.8638 236.3198 319.7554 233.2441 319.5391 230.27 ZM 199.04 340.2446 C 148.3149 340.0347 107.3262 302.1382 101.0762 252.833 C 100.8257 250.856 100.4692 248.7964 100.1567 246.7168 C 100.1582 246.6558 100.166 246.5967 100.166 246.5356 L 100.166 199.9287 L 299.9077 199.9287 L 300.2686 244.6235 C 297.9927 298.0898 253.5625 340.4707 199.04 340.2446 Z" fill="#323232"/>		<path d="M 264.4572 220.96 C 268.6123 224.8382 268.8224 231.1776 264.9032 235.0968 L 191.0968 308.9032 C 187.1776 312.8224 180.8382 312.6123 176.96 308.4572 L 176.96 308.4572 C 173.1062 304.3281 173.1415 297.8585 177.0161 293.9839 L 249.9839 221.0161 C 253.8585 217.1415 260.3281 217.1062 264.4572 220.96 L 264.4572 220.96 Z" fill="#323232"/>		<path d="M 158.9551 257.9005 C 163.7898 254.8559 170.0055 256.2768 172.8102 261.0908 L 192.6286 295.7493 C 195.4333 300.5633 193.604 306.6712 188.5711 309.3756 L 188.5711 309.3756 C 183.5698 312.0629 177.2905 310.3701 174.5177 305.6108 L 155.2995 271.9826 C 152.5267 267.2233 154.1509 260.9259 158.9551 257.9005 L 158.9551 257.9005 Z" fill="#323232"/>	</g></svg>