<?xml version="1.0" standalone="no"?><!-- Generator: Adobe Fireworks CS6, Export SVG Extension by Aaron Beall (http://fireworks.abeall.com) . Version: 0.6.1  --><!DOCTYPE svg PUBLIC "-//W3C//DTD SVG 1.1//EN" "http://www.w3.org/Graphics/SVG/1.1/DTD/svg11.dtd"><svg id="Raichu-Icons.fw-location" viewBox="0 0 400 400" style="background-color:#ffffff00" version="1.1"	xmlns="http://www.w3.org/2000/svg" xmlns:xlink="http://www.w3.org/1999/xlink" xml:space="preserve"	x="0px" y="0px" width="400px" height="400px">	<g id="Layer%201119">		<path d="M 302.7217 95.1396 C 280.2217 60.4014 241.7725 39.6621 199.8691 39.6621 C 178.7188 39.6621 157.9106 45.2036 139.6943 55.688 C 101.7222 77.543 81.4629 110.8428 79.4795 154.6616 C 78.3613 179.3706 84.1089 204.7852 97.0508 232.3574 C 117.5356 275.9927 148.123 315.4131 193.312 356.4155 C 195.8174 358.689 197.9287 359.7031 200.1572 359.7031 C 202.4722 359.7031 204.7793 358.5703 207.6367 356.0303 C 245.4629 322.3979 273.9551 287.813 294.7407 250.2993 C 306.6563 228.7964 320.9004 196.7803 321.0928 166.3687 C 321.2441 136.9575 315.5781 114.9897 302.7217 95.1396 ZM 300.6138 167.8579 C 298.4272 196.0171 288.1494 223.8096 268.2695 255.3218 C 251.0654 282.5894 229.0679 308.5225 201.02 334.603 C 200.7676 334.8374 200.4771 335.0649 200.0708 335.374 C 161.5244 297.6611 123.5874 254.8867 105.6792 198.1353 C 95.7627 166.7119 97.1533 139.4097 109.9292 114.6689 C 125.0449 85.3984 149.1392 67.7505 181.543 62.2158 C 188.5859 61.0127 195.5313 60.4028 202.1851 60.4028 C 229.8804 60.4028 254.0342 70.8296 273.9766 91.3936 C 293.9893 112.0278 302.9517 137.7544 300.6138 167.8579 Z" fill="#323232"/>		<path d="M 200 99.979 C 166.8975 99.979 140.0625 126.814 140.0625 159.9165 C 140.0625 163.2739 140.3521 166.5625 140.8823 169.7695 C 140.8823 169.791 140.8794 169.8115 140.8794 169.833 C 140.8794 171.2363 141.1709 172.5703 141.6924 173.7822 C 143.2241 177.3403 146.7598 179.833 150.8804 179.833 C 156.4033 179.833 160.8813 175.356 160.8813 169.833 C 160.8813 169.2529 160.8213 168.6875 160.7266 168.1348 C 160.6914 167.9658 160.6616 167.7949 160.6284 167.625 C 160.1431 165.1299 159.8809 162.5542 159.8809 159.9165 C 159.8809 137.7593 177.8428 119.7974 200 119.7974 C 222.1572 119.7974 240.1191 137.7593 240.1191 159.9165 C 240.1191 171.7905 234.9609 182.4604 226.7617 189.8057 C 219.6621 196.167 210.2832 200.0356 200 200.0356 C 191.5278 200.0356 183.6738 197.4028 177.1982 192.9204 C 176.5708 192.3135 175.8667 191.7871 175.0981 191.3599 C 173.6616 190.562 172.0107 190.104 170.251 190.104 C 164.728 190.104 160.251 194.5811 160.251 200.104 C 160.251 202.9375 161.4341 205.4897 163.3276 207.3091 C 163.9536 207.9111 164.6553 208.4355 165.4214 208.8589 C 175.1934 215.7754 187.1167 219.854 200 219.854 C 233.1025 219.854 259.9375 193.019 259.9375 159.9165 C 259.9375 126.814 233.1025 99.979 200 99.979 Z" fill="#323232"/>	</g></svg>