<?xml version="1.0" standalone="no"?><!-- Generator: Adobe Fireworks CS6, Export SVG Extension by Aaron Beall (http://fireworks.abeall.com) . Version: 0.6.1  --><!DOCTYPE svg PUBLIC "-//W3C//DTD SVG 1.1//EN" "http://www.w3.org/Graphics/SVG/1.1/DTD/svg11.dtd"><svg id="Raichu-Icons.fw-international-oportunities" viewBox="0 0 400 400" style="background-color:#ffffff00" version="1.1"	xmlns="http://www.w3.org/2000/svg" xmlns:xlink="http://www.w3.org/1999/xlink" xml:space="preserve"	x="0px" y="0px" width="400px" height="400px">	<g id="Layer%20182">		<path d="M 120.1513 160.0177 C 120.1513 151.912 121.372 144.0919 123.6212 136.7225 C 128.1327 121.9287 136.8303 108.9675 148.3402 99.1752 C 162.3631 87.2328 180.5589 80.0059 200.4474 80.0059 C 214.8674 80.0059 228.3987 83.8138 240.0909 90.4501 C 251.819 97.0994 261.6786 106.6224 268.7616 118.0332 L 302.2042 95.7987 C 301.5793 94.8321 300.9608 93.8688 300.313 92.9184 C 299.6555 91.9389 298.9784 90.969 298.2883 90.0187 C 276.4175 59.724 240.7484 40 200.4474 40 C 180.1651 40 161.0513 45.008 144.2747 53.8369 C 121.1441 66.0165 102.4665 85.481 91.3309 109.1718 C 86.8227 118.75 83.548 129.0288 81.7155 139.7941 C 80.6055 146.3688 80 153.1186 80 160.0177 C 80 177.2636 88.167 199.0699 100.2303 221.9012 C 101.2719 223.8798 102.3981 225.8778 103.4918 227.8758 L 135.2841 206.7441 C 125.7793 193.5948 120.1513 177.4647 120.1513 160.0177 ZM 201.2459 147.1848 L 192.8055 148.3623 C 196.8645 139.955 197.3723 139.8642 208.1499 145.9004 L 205.6012 140.9475 L 221.6259 150.4251 C 217.9705 155.0732 205.7835 153.5423 201.2459 147.1848 ZM 168.1841 117.4902 C 187.5778 101.9926 217.8858 101.7752 234.4834 116.8837 C 222.827 122.0831 208.1922 111.8854 197.0859 123.8411 L 206.3563 128.1193 L 208.9214 121.6225 C 209.9499 122.5437 211.2585 123.7341 214.442 126.5819 C 209.4194 127.7398 206.148 129.0729 202.8474 129.1086 C 198.3261 129.1604 190.7353 136.0725 191.5685 140.7367 C 186.7869 140.6167 184.7036 142.245 186.6404 147.5222 C 187.2556 149.1927 185.3448 152.2805 183.8573 154.1553 C 178.3204 161.1094 178.0665 169.6043 184.1112 174.5539 C 186.0838 176.1659 189.1989 177.1098 191.8029 177.1584 C 200.6828 177.3239 204.0485 180.522 203.6872 189.3964 C 203.6286 190.5932 202.8474 192.0302 203.2803 192.9254 C 205.0217 196.4479 206.4442 200.7196 209.3608 202.7922 C 210.6661 203.7199 216.0337 200.8136 218.1136 198.4134 C 221.7561 194.2195 228.1621 191.2193 226.3067 183.6358 C 226.0658 182.5914 228.8066 180.9697 229.8742 179.416 C 231.658 176.8244 233.2172 174.0706 234.6364 170.4508 C 229.0345 173.3441 226.9447 171.5601 226.4597 165.4265 C 228.1491 167.3403 229.1386 168.4528 230.3234 169.8119 L 242.1947 161.9722 L 232.0649 156.3804 C 243.692 156.8311 249.8604 161.3883 250.902 172.3678 L 257.7702 161.609 C 259.8567 181.5924 246.5239 202.9317 227.3743 212.4807 C 205.7379 223.2622 181.735 219.8208 163.9818 203.629 L 167.9823 194.7839 C 160.7268 187.9692 154.0604 182.04 147.8041 175.6924 C 143.3023 171.1222 144.8095 155.1543 150.3203 151.3464 C 154.9946 148.1125 156.1013 144.9793 154.6202 139.3712 C 153.6535 135.6768 155.5284 131.2364 156.1371 127.1301 C 157.042 127.1495 157.9306 127.1624 158.8388 127.1917 L 160.8765 133.948 C 163.5945 128.3366 173.6071 126.1213 168.1841 117.4902 ZM 267.6656 162.4263 C 267.8902 126.4976 238.8745 97.1143 202.8181 96.7704 C 167.1555 96.4267 136.981 125.5115 136.7499 160.4575 C 136.5025 197.8231 164.711 227.0766 201.5486 227.6378 C 237.5659 228.1891 267.441 198.7345 267.6656 162.4263 ZM 268.8733 117.9861 C 276.4511 130.1851 280.8486 144.5573 280.8486 159.9706 C 280.8486 160.4409 280.8259 160.9079 280.8161 161.3751 C 280.546 176.9992 275.7837 191.5303 267.7535 203.7423 C 253.4084 225.555 228.6796 239.9792 200.5558 239.9792 C 177.0802 239.9792 155.9646 229.9404 141.294 213.9432 C 139.1814 211.65 137.2252 209.2174 135.3958 206.6971 L 103.6003 227.8256 C 109.225 238.0038 115.5073 248.3085 122.1574 258.4543 C 137.5767 282.0122 154.7635 304.6716 169.1053 322.5727 C 187.0505 344.9954 200.5558 360 200.5558 360 C 200.5558 360 216.9418 341.7972 237.6116 315.5148 C 243.6627 307.8276 250.0785 299.4495 256.5626 290.6238 C 275.3378 265.0679 294.6436 235.8339 307.1691 209.0324 C 312.0127 198.6693 315.8406 188.6759 318.2233 179.3897 C 320.004 172.4712 321 165.9452 321 159.9706 C 321 136.3479 314.135 114.3242 302.3126 95.7517 L 268.8733 117.9861 Z" fill="#181512"/>	</g></svg>