<?xml version="1.0" standalone="no"?><!-- Generator: Adobe Fireworks CS6, Export SVG Extension by Aaron Beall (http://fireworks.abeall.com) . Version: 0.6.1  --><!DOCTYPE svg PUBLIC "-//W3C//DTD SVG 1.1//EN" "http://www.w3.org/Graphics/SVG/1.1/DTD/svg11.dtd"><svg id="Raichu-Icons.fw-tag" viewBox="0 0 400 400" style="background-color:#ffffff00" version="1.1"	xmlns="http://www.w3.org/2000/svg" xmlns:xlink="http://www.w3.org/1999/xlink" xml:space="preserve"	x="0px" y="0px" width="400px" height="400px">	<g id="Layer%201115">		<path d="M 265.7769 45.9434 C 246.8057 45.9185 229.187 51.5996 214.5679 61.3247 C 210.7876 63.2568 208.3516 67.4443 209.0654 72.1201 C 209.752 76.6133 213.4678 80.1855 217.9805 80.7266 C 221.0562 81.0957 223.8936 80.0986 225.9937 78.2749 C 226.0039 78.2871 226.0142 78.2993 226.0244 78.3115 C 237.5449 70.3086 251.5684 65.5947 266.7397 65.5698 C 288.7329 65.5337 308.4287 75.5645 321.4604 91.2827 L 335.3145 77.4287 C 318.8047 56.9814 294.7852 45.9814 265.7769 45.9434 Z" fill="#333333"/>		<path d="M 336.7656 124.8447 C 337.375 128.5474 337.7041 132.3428 337.7051 136.2144 C 337.707 141.8662 337.0303 147.5161 335.6797 153.0044 C 334.3633 158.353 332.4102 163.542 329.8804 168.4341 C 327.3843 173.2607 324.3296 177.7959 320.8027 181.9297 C 318.1543 185.0332 314.8564 187.4751 311.98 190.3496 C 311.1245 191.2051 310.269 192.0605 309.4141 192.916 C 308.2988 194.0308 307.1841 195.1455 306.0693 196.2607 C 304.7168 197.6128 303.3647 198.9648 302.0127 200.3174 L 273.4019 228.9277 C 271.0957 231.2339 268.7896 233.54 266.4834 235.8462 C 264.0967 238.2329 261.71 240.6201 259.3232 243.0068 C 256.8779 245.4521 254.4326 247.8975 251.9873 250.3428 L 244.5435 257.7861 C 242.0488 260.2813 239.5537 262.7764 237.0586 265.271 L 229.5996 272.73 C 227.1445 275.1855 224.6895 277.6406 222.2339 280.0957 C 219.832 282.4976 217.4307 284.8994 215.0283 287.3013 C 212.7026 289.627 210.3765 291.9536 208.0503 294.2793 C 205.8223 296.5073 203.5942 298.7354 201.3662 300.9634 C 199.2588 303.0708 197.1514 305.1787 195.0439 307.2861 L 183.751 318.5791 C 182.1387 320.1909 180.5269 321.8027 178.915 323.415 C 177.5127 324.8174 176.1104 326.2197 174.708 327.6216 C 173.5386 328.7915 172.3687 329.9614 171.1987 331.1313 L 166.5376 335.792 C 166.1982 336.1313 165.8594 336.4707 165.5205 336.8096 C 165.5132 336.8169 165.3672 336.9614 165.3677 336.9619 L 64.3438 235.938 L 193.2275 107.0547 C 197.0947 103.187 197.0947 96.8584 193.2275 92.9912 C 189.3599 89.1235 183.0313 89.1235 179.1641 92.9912 L 43.5615 228.5938 C 43.4521 228.6934 43.3379 228.7852 43.2324 228.8906 C 41.2949 230.8281 40.3286 233.3838 40.333 235.938 C 40.3286 238.4922 41.2949 241.0479 43.2324 242.9854 C 43.3379 243.0913 43.4521 243.1826 43.5615 243.2822 L 158.0234 357.7446 C 158.123 357.8535 158.2148 357.9678 158.3203 358.0732 C 162.1875 361.9404 168.5161 361.9404 172.3838 358.0732 L 174.3257 356.1309 C 175.1011 355.3555 175.876 354.5801 176.6514 353.8052 L 183.6792 346.7773 C 185.2021 345.2544 186.7251 343.7314 188.248 342.209 L 199.1602 331.2969 C 201.23 329.2266 203.2998 327.1567 205.3701 325.0864 L 226.2158 304.2407 C 228.7041 301.7529 231.1919 299.2646 233.6802 296.7764 L 248.9824 281.4741 C 251.5508 278.9058 254.1187 276.3379 256.687 273.77 C 259.2373 271.2197 261.7871 268.6689 264.3374 266.1191 C 266.8477 263.6089 269.3579 261.0986 271.8682 258.5889 C 274.3159 256.1411 276.7637 253.6934 279.2114 251.2456 L 286.3008 244.1558 C 288.5571 241.8999 290.8135 239.6436 293.0693 237.3872 C 295.1968 235.2598 297.3237 233.1328 299.4512 231.0059 C 301.4268 229.0298 303.4023 227.0542 305.3784 225.0786 L 310.7847 219.6719 C 312.3911 218.0654 313.9976 216.459 315.6035 214.853 C 316.9917 213.4648 318.3799 212.0767 319.7681 210.6885 C 320.916 209.541 322.0635 208.3931 323.2114 207.2456 L 325.8667 204.5898 C 326.4668 203.9897 327.0664 203.3887 327.6675 202.7891 C 331.6084 198.8564 335.4668 194.8711 338.853 190.4399 C 342.1265 186.1563 345.0151 181.5791 347.4658 176.7769 C 349.9414 171.9258 351.9683 166.8467 353.5088 161.623 C 355.0825 156.2852 356.147 150.7993 356.6885 145.2607 C 356.9604 142.4785 357.1016 139.6836 357.1123 136.8877 C 357.1475 127.9092 355.291 117.606 352.7119 108.8984 L 336.7656 124.8447 Z" fill="#333333"/>		<path d="M 359.4922 77.5518 L 359.4922 77.5518 C 355.6406 73.7002 349.3384 73.7002 345.4868 77.5518 L 343.9258 79.1133 L 285.5581 137.4805 C 285.4517 137.5361 285.3447 137.5947 285.2378 137.6455 C 284.3438 138.7866 283.2939 139.728 282.1392 140.6162 C 281.4844 141.1201 280.8613 141.6631 280.2207 142.1812 C 278.3745 144.4258 275.541 145.8613 272.3525 145.8486 C 266.8687 145.8262 262.437 141.4082 262.4492 135.9746 C 262.4556 133.1348 263.749 130.4116 265.9126 128.5791 C 266.998 127.6597 268.2793 126.9775 269.6475 126.5874 C 271.0054 126.2012 272.5083 126.0664 273.9531 126.0957 C 275.4419 126.126 276.8643 126.6758 278.3555 126.6758 C 283.8784 126.6758 288.3555 122.1982 288.3555 116.6758 C 288.3555 114.3677 287.5098 111.8633 286.0391 110.0776 C 284.2197 107.8687 281.1558 107.313 278.5869 106.8081 C 277.7432 106.6421 276.8994 106.4834 276.0444 106.3896 C 257.7734 104.3896 242.4131 118.4893 242.4492 136.2285 C 242.4834 152.7207 256.0171 166.168 272.5566 166.1431 C 281.4551 166.1294 289.4619 162.2246 294.9658 156.0547 C 295.0596 155.9688 295.1582 155.8901 295.249 155.7993 L 353.0215 98.0273 L 359.4922 91.5566 C 363.3433 87.7051 363.3433 81.4028 359.4922 77.5518 Z" fill="#333333"/>	</g></svg>